%TF.GenerationSoftware,KiCad,Pcbnew,10.0.3*%
%TF.CreationDate,2026-07-09T19:23:11+03:00*%
%TF.ProjectId,XIAO_nRF54L15 V1,5849414f-5f6e-4524-9635-344c31352056,rev?*%
%TF.SameCoordinates,Original*%
%TF.FileFunction,Legend,Bot*%
%TF.FilePolarity,Positive*%
%FSLAX46Y46*%
G04 Gerber Fmt 4.6, Leading zero omitted, Abs format (unit mm)*
G04 Created by KiCad (PCBNEW 10.0.3) date 2026-07-09 19:23:11*
%MOMM*%
%LPD*%
G01*
G04 APERTURE LIST*
%ADD10C,0.100000*%
%ADD11C,0.000000*%
%ADD12C,0.142240*%
G04 APERTURE END LIST*
D10*
X129250000Y-117000000D02*
X90750000Y-117000000D01*
X136000000Y-153750000D02*
X136000000Y-124250000D01*
X90750000Y-161000000D02*
X129250000Y-161000000D01*
X84000000Y-124250000D02*
X84000000Y-153750000D01*
X86650000Y-161000000D02*
G75*
G02*
X84213268Y-159524691I0J2750000D01*
G01*
X85500000Y-155250000D02*
X86500000Y-155250000D01*
X84000000Y-153750000D02*
X84001608Y-156850852D01*
D11*
G36*
X89254844Y-158783832D02*
G01*
X89266005Y-159771587D01*
X89530150Y-160400327D01*
X90151057Y-160908799D01*
X90750000Y-161000000D01*
X86250000Y-161000000D01*
X85409823Y-160704478D01*
X84608124Y-160092075D01*
X84851948Y-160201459D01*
X85434475Y-160535184D01*
X86065183Y-160715407D01*
X86857407Y-160726676D01*
X87651410Y-160516868D01*
X88399202Y-160023921D01*
X88910711Y-159354907D01*
X89208339Y-158547589D01*
X89254844Y-158783832D01*
G37*
D10*
X90750000Y-161000000D02*
X86650000Y-161000000D01*
X89241543Y-157784496D02*
X89250000Y-159500000D01*
X85500000Y-155250000D02*
G75*
G02*
X84000000Y-153750000I0J1500000D01*
G01*
X90750000Y-161000000D02*
G75*
G02*
X89250000Y-159500000I0J1500000D01*
G01*
X84001608Y-156850852D02*
G75*
G02*
X84211861Y-159525425I2498392J-1149148D01*
G01*
D11*
G36*
X84041464Y-154100247D02*
G01*
X84357154Y-154751626D01*
X85010076Y-155186909D01*
X85824834Y-155265036D01*
X86000000Y-155250000D01*
X84954271Y-155717058D01*
X84357154Y-156286274D01*
X84008370Y-156805265D01*
X84000000Y-154000000D01*
X84041464Y-154100247D01*
G37*
D10*
X134500000Y-122750000D02*
G75*
G02*
X136000000Y-124250000I0J-1500000D01*
G01*
X129250000Y-117000000D02*
G75*
G02*
X130750000Y-118500000I0J-1500000D01*
G01*
X135998392Y-121149148D02*
G75*
G02*
X135788139Y-118474575I-2498392J1149148D01*
G01*
D11*
G36*
X136000000Y-124000000D02*
G01*
X135958536Y-123899753D01*
X135642846Y-123248374D01*
X134989924Y-122813091D01*
X134175166Y-122734964D01*
X134000000Y-122750000D01*
X135045729Y-122282942D01*
X135642846Y-121713726D01*
X135991630Y-121194735D01*
X136000000Y-124000000D01*
G37*
D10*
X133350000Y-117000000D02*
G75*
G02*
X135786732Y-118475309I0J-2750000D01*
G01*
X134500000Y-122750000D02*
X133500000Y-122750000D01*
X136000000Y-124250000D02*
X135998392Y-121149148D01*
D11*
G36*
X134590177Y-117295522D02*
G01*
X135391876Y-117907925D01*
X135148052Y-117798541D01*
X134565525Y-117464816D01*
X133934817Y-117284593D01*
X133142593Y-117273324D01*
X132348590Y-117483132D01*
X131600798Y-117976079D01*
X131089289Y-118645093D01*
X130791661Y-119452411D01*
X130745156Y-119216168D01*
X130733995Y-118228413D01*
X130469850Y-117599673D01*
X129848943Y-117091201D01*
X129250000Y-117000000D01*
X133750000Y-117000000D01*
X134590177Y-117295522D01*
G37*
D10*
X129250000Y-117000000D02*
X133350000Y-117000000D01*
X130758457Y-120215504D02*
X130750000Y-118500000D01*
X136000000Y-153750000D02*
X135998392Y-156850852D01*
D11*
G36*
X131089289Y-159354907D02*
G01*
X131600798Y-160023921D01*
X132348590Y-160516868D01*
X133142593Y-160726676D01*
X133934817Y-160715407D01*
X134565525Y-160535184D01*
X135148052Y-160201459D01*
X135391876Y-160092075D01*
X134590177Y-160704478D01*
X133750000Y-161000000D01*
X129250000Y-161000000D01*
X129848943Y-160908799D01*
X130469850Y-160400327D01*
X130733995Y-159771587D01*
X130745156Y-158783832D01*
X130791661Y-158547589D01*
X131089289Y-159354907D01*
G37*
D10*
X135788140Y-159525426D02*
G75*
G02*
X135998393Y-156850852I-2288140J1525426D01*
G01*
X135786733Y-159524691D02*
G75*
G02*
X133350000Y-161000001I-2436733J1274691D01*
G01*
D11*
G36*
X135991630Y-156805265D02*
G01*
X135642846Y-156286274D01*
X135045729Y-155717058D01*
X134000000Y-155250000D01*
X134175166Y-155265036D01*
X134989924Y-155186909D01*
X135642846Y-154751626D01*
X135958536Y-154100247D01*
X136000000Y-154000000D01*
X135991630Y-156805265D01*
G37*
D10*
X130758457Y-157784496D02*
X130750000Y-159500000D01*
X130750000Y-159500000D02*
G75*
G02*
X129250000Y-161000000I-1500000J0D01*
G01*
X134500000Y-155250000D02*
X133500000Y-155250000D01*
X136000000Y-153750000D02*
G75*
G02*
X134500000Y-155250000I-1500000J0D01*
G01*
X129250000Y-161000000D02*
X133350000Y-161000000D01*
X89250000Y-118500000D02*
G75*
G02*
X90750000Y-117000000I1500000J0D01*
G01*
X84211861Y-118474574D02*
G75*
G02*
X84001607Y-121149147I2288139J-1525426D01*
G01*
X84000000Y-124250000D02*
G75*
G02*
X85500000Y-122750000I1500000J0D01*
G01*
D11*
G36*
X84357154Y-121713726D02*
G01*
X84954271Y-122282941D01*
X86000000Y-122750000D01*
X85824834Y-122734964D01*
X85010076Y-122813091D01*
X84357154Y-123248373D01*
X84041464Y-123899752D01*
X84000000Y-124000000D01*
X84008370Y-121194736D01*
X84357154Y-121713726D01*
G37*
D10*
X85500000Y-122750000D02*
X86500000Y-122750000D01*
X84000000Y-124250000D02*
X84001608Y-121149147D01*
X84213267Y-118475309D02*
G75*
G02*
X86650000Y-116999999I2436733J-1274691D01*
G01*
D11*
G36*
X90151057Y-117091201D02*
G01*
X89530150Y-117599673D01*
X89266005Y-118228413D01*
X89254844Y-119216168D01*
X89208339Y-119452411D01*
X88910711Y-118645093D01*
X88399202Y-117976079D01*
X87651410Y-117483132D01*
X86857407Y-117273324D01*
X86065183Y-117284593D01*
X85434475Y-117464816D01*
X84851948Y-117798541D01*
X84608124Y-117907925D01*
X85409823Y-117295522D01*
X86250000Y-117000000D01*
X90750000Y-117000000D01*
X90151057Y-117091201D01*
G37*
D10*
X90750000Y-117000000D02*
X86650000Y-117000000D01*
X89241543Y-120215504D02*
X89250000Y-118500000D01*
X99035000Y-120817500D02*
X99035000Y-120817500D01*
G75*
G02*
X98535000Y-121317500I-500000J0D01*
G01*
X94455000Y-121317500D01*
G75*
G02*
X93955000Y-120817500I0J500000D01*
G01*
X93955000Y-120067500D01*
G75*
G02*
X94455000Y-119567500I500000J0D01*
G01*
X98535000Y-119567500D01*
G75*
G02*
X99035000Y-120067500I0J-500000D01*
G01*
X99035000Y-120817500D01*
X126539999Y-157060537D02*
X126539999Y-157060537D01*
G75*
G03*
X126040000Y-156560537I-499999J37D01*
G01*
X121960000Y-156560537D01*
G75*
G03*
X121460000Y-157060537I0J-499963D01*
G01*
X121460000Y-157810537D01*
G75*
G03*
X121960000Y-158310537I500000J37D01*
G01*
X126040000Y-158310538D01*
G75*
G03*
X126540000Y-157810537I0J500038D01*
G01*
X126539999Y-157060537D01*
X86507446Y-126904156D02*
X86507446Y-132524156D01*
X86507446Y-126904156D02*
G75*
G02*
X87507446Y-125904246I999954J-44D01*
G01*
X87507446Y-125904157D02*
G75*
G02*
X88507443Y-126904156I-46J-1000043D01*
G01*
X87507446Y-133524156D02*
G75*
G02*
X86507444Y-132524156I-46J999956D01*
G01*
X88507446Y-132524156D02*
G75*
G02*
X87507446Y-133524246I-1000046J-44D01*
G01*
X88507446Y-132524156D02*
X88507446Y-126904156D01*
X91957699Y-146852327D02*
X92757699Y-146852327D01*
X92757699Y-146852327D02*
X92757699Y-146661851D01*
X92757699Y-146661851D02*
X92719604Y-146547565D01*
X92719604Y-146547565D02*
X92643414Y-146471375D01*
X92643414Y-146471375D02*
X92567223Y-146433280D01*
X92567223Y-146433280D02*
X92414842Y-146395184D01*
X92414842Y-146395184D02*
X92300556Y-146395184D01*
X92300556Y-146395184D02*
X92148175Y-146433280D01*
X92148175Y-146433280D02*
X92071985Y-146471375D01*
X92071985Y-146471375D02*
X91995795Y-146547565D01*
X91995795Y-146547565D02*
X91957699Y-146661851D01*
X91957699Y-146661851D02*
X91957699Y-146852327D01*
X92757699Y-145709470D02*
X92757699Y-145861851D01*
X92757699Y-145861851D02*
X92719604Y-145938042D01*
X92719604Y-145938042D02*
X92681509Y-145976137D01*
X92681509Y-145976137D02*
X92567223Y-146052327D01*
X92567223Y-146052327D02*
X92414842Y-146090423D01*
X92414842Y-146090423D02*
X92110080Y-146090423D01*
X92110080Y-146090423D02*
X92033890Y-146052327D01*
X92033890Y-146052327D02*
X91995795Y-146014232D01*
X91995795Y-146014232D02*
X91957699Y-145938042D01*
X91957699Y-145938042D02*
X91957699Y-145785661D01*
X91957699Y-145785661D02*
X91995795Y-145709470D01*
X91995795Y-145709470D02*
X92033890Y-145671375D01*
X92033890Y-145671375D02*
X92110080Y-145633280D01*
X92110080Y-145633280D02*
X92300556Y-145633280D01*
X92300556Y-145633280D02*
X92376747Y-145671375D01*
X92376747Y-145671375D02*
X92414842Y-145709470D01*
X92414842Y-145709470D02*
X92452937Y-145785661D01*
X92452937Y-145785661D02*
X92452937Y-145938042D01*
X92452937Y-145938042D02*
X92414842Y-146014232D01*
X92414842Y-146014232D02*
X92376747Y-146052327D01*
X92376747Y-146052327D02*
X92300556Y-146090423D01*
X94497700Y-146852327D02*
X95297700Y-146852327D01*
X95297700Y-146852327D02*
X95297700Y-146661851D01*
X95297700Y-146661851D02*
X95259605Y-146547565D01*
X95259605Y-146547565D02*
X95183415Y-146471375D01*
X95183415Y-146471375D02*
X95107224Y-146433280D01*
X95107224Y-146433280D02*
X94954843Y-146395184D01*
X94954843Y-146395184D02*
X94840557Y-146395184D01*
X94840557Y-146395184D02*
X94688176Y-146433280D01*
X94688176Y-146433280D02*
X94611986Y-146471375D01*
X94611986Y-146471375D02*
X94535796Y-146547565D01*
X94535796Y-146547565D02*
X94497700Y-146661851D01*
X94497700Y-146661851D02*
X94497700Y-146852327D01*
X95297700Y-145671375D02*
X95297700Y-146052327D01*
X95297700Y-146052327D02*
X94916748Y-146090423D01*
X94916748Y-146090423D02*
X94954843Y-146052327D01*
X94954843Y-146052327D02*
X94992938Y-145976137D01*
X94992938Y-145976137D02*
X94992938Y-145785661D01*
X94992938Y-145785661D02*
X94954843Y-145709470D01*
X94954843Y-145709470D02*
X94916748Y-145671375D01*
X94916748Y-145671375D02*
X94840557Y-145633280D01*
X94840557Y-145633280D02*
X94650081Y-145633280D01*
X94650081Y-145633280D02*
X94573891Y-145671375D01*
X94573891Y-145671375D02*
X94535796Y-145709470D01*
X94535796Y-145709470D02*
X94497700Y-145785661D01*
X94497700Y-145785661D02*
X94497700Y-145976137D01*
X94497700Y-145976137D02*
X94535796Y-146052327D01*
X94535796Y-146052327D02*
X94573891Y-146090423D01*
X97037699Y-146852326D02*
X97837699Y-146852326D01*
X97837699Y-146852326D02*
X97837699Y-146661850D01*
X97837699Y-146661850D02*
X97799604Y-146547564D01*
X97799604Y-146547564D02*
X97723414Y-146471374D01*
X97723414Y-146471374D02*
X97647223Y-146433279D01*
X97647223Y-146433279D02*
X97494842Y-146395183D01*
X97494842Y-146395183D02*
X97380556Y-146395183D01*
X97380556Y-146395183D02*
X97228175Y-146433279D01*
X97228175Y-146433279D02*
X97151985Y-146471374D01*
X97151985Y-146471374D02*
X97075795Y-146547564D01*
X97075795Y-146547564D02*
X97037699Y-146661850D01*
X97037699Y-146661850D02*
X97037699Y-146852326D01*
X97571033Y-145709469D02*
X97037699Y-145709469D01*
X97875795Y-145899945D02*
X97304366Y-146090422D01*
X97304366Y-146090422D02*
X97304366Y-145595183D01*
X99577699Y-146852328D02*
X100377699Y-146852328D01*
X100377699Y-146852328D02*
X100377699Y-146661852D01*
X100377699Y-146661852D02*
X100339604Y-146547566D01*
X100339604Y-146547566D02*
X100263414Y-146471376D01*
X100263414Y-146471376D02*
X100187223Y-146433281D01*
X100187223Y-146433281D02*
X100034842Y-146395185D01*
X100034842Y-146395185D02*
X99920556Y-146395185D01*
X99920556Y-146395185D02*
X99768175Y-146433281D01*
X99768175Y-146433281D02*
X99691985Y-146471376D01*
X99691985Y-146471376D02*
X99615795Y-146547566D01*
X99615795Y-146547566D02*
X99577699Y-146661852D01*
X99577699Y-146661852D02*
X99577699Y-146852328D01*
X100377699Y-146128519D02*
X100377699Y-145633281D01*
X100377699Y-145633281D02*
X100072937Y-145899947D01*
X100072937Y-145899947D02*
X100072937Y-145785662D01*
X100072937Y-145785662D02*
X100034842Y-145709471D01*
X100034842Y-145709471D02*
X99996747Y-145671376D01*
X99996747Y-145671376D02*
X99920556Y-145633281D01*
X99920556Y-145633281D02*
X99730080Y-145633281D01*
X99730080Y-145633281D02*
X99653890Y-145671376D01*
X99653890Y-145671376D02*
X99615795Y-145709471D01*
X99615795Y-145709471D02*
X99577699Y-145785662D01*
X99577699Y-145785662D02*
X99577699Y-146014233D01*
X99577699Y-146014233D02*
X99615795Y-146090424D01*
X99615795Y-146090424D02*
X99653890Y-146128519D01*
X102117699Y-146852327D02*
X102917699Y-146852327D01*
X102917699Y-146852327D02*
X102917699Y-146661851D01*
X102917699Y-146661851D02*
X102879604Y-146547565D01*
X102879604Y-146547565D02*
X102803414Y-146471375D01*
X102803414Y-146471375D02*
X102727223Y-146433280D01*
X102727223Y-146433280D02*
X102574842Y-146395184D01*
X102574842Y-146395184D02*
X102460556Y-146395184D01*
X102460556Y-146395184D02*
X102308175Y-146433280D01*
X102308175Y-146433280D02*
X102231985Y-146471375D01*
X102231985Y-146471375D02*
X102155795Y-146547565D01*
X102155795Y-146547565D02*
X102117699Y-146661851D01*
X102117699Y-146661851D02*
X102117699Y-146852327D01*
X102841509Y-146090423D02*
X102879604Y-146052327D01*
X102879604Y-146052327D02*
X102917699Y-145976137D01*
X102917699Y-145976137D02*
X102917699Y-145785661D01*
X102917699Y-145785661D02*
X102879604Y-145709470D01*
X102879604Y-145709470D02*
X102841509Y-145671375D01*
X102841509Y-145671375D02*
X102765318Y-145633280D01*
X102765318Y-145633280D02*
X102689128Y-145633280D01*
X102689128Y-145633280D02*
X102574842Y-145671375D01*
X102574842Y-145671375D02*
X102117699Y-146128518D01*
X102117699Y-146128518D02*
X102117699Y-145633280D01*
X104657698Y-146852326D02*
X105457698Y-146852326D01*
X105457698Y-146852326D02*
X105457698Y-146661850D01*
X105457698Y-146661850D02*
X105419603Y-146547564D01*
X105419603Y-146547564D02*
X105343413Y-146471374D01*
X105343413Y-146471374D02*
X105267222Y-146433279D01*
X105267222Y-146433279D02*
X105114841Y-146395183D01*
X105114841Y-146395183D02*
X105000555Y-146395183D01*
X105000555Y-146395183D02*
X104848174Y-146433279D01*
X104848174Y-146433279D02*
X104771984Y-146471374D01*
X104771984Y-146471374D02*
X104695794Y-146547564D01*
X104695794Y-146547564D02*
X104657698Y-146661850D01*
X104657698Y-146661850D02*
X104657698Y-146852326D01*
X104657698Y-145633279D02*
X104657698Y-146090422D01*
X104657698Y-145861850D02*
X105457698Y-145861850D01*
X105457698Y-145861850D02*
X105343413Y-145938041D01*
X105343413Y-145938041D02*
X105267222Y-146014231D01*
X105267222Y-146014231D02*
X105229127Y-146090422D01*
X107197698Y-146852327D02*
X107997698Y-146852327D01*
X107997698Y-146852327D02*
X107997698Y-146661851D01*
X107997698Y-146661851D02*
X107959603Y-146547565D01*
X107959603Y-146547565D02*
X107883413Y-146471375D01*
X107883413Y-146471375D02*
X107807222Y-146433280D01*
X107807222Y-146433280D02*
X107654841Y-146395184D01*
X107654841Y-146395184D02*
X107540555Y-146395184D01*
X107540555Y-146395184D02*
X107388174Y-146433280D01*
X107388174Y-146433280D02*
X107311984Y-146471375D01*
X107311984Y-146471375D02*
X107235794Y-146547565D01*
X107235794Y-146547565D02*
X107197698Y-146661851D01*
X107197698Y-146661851D02*
X107197698Y-146852327D01*
X107997698Y-145899946D02*
X107997698Y-145823756D01*
X107997698Y-145823756D02*
X107959603Y-145747565D01*
X107959603Y-145747565D02*
X107921508Y-145709470D01*
X107921508Y-145709470D02*
X107845317Y-145671375D01*
X107845317Y-145671375D02*
X107692936Y-145633280D01*
X107692936Y-145633280D02*
X107502460Y-145633280D01*
X107502460Y-145633280D02*
X107350079Y-145671375D01*
X107350079Y-145671375D02*
X107273889Y-145709470D01*
X107273889Y-145709470D02*
X107235794Y-145747565D01*
X107235794Y-145747565D02*
X107197698Y-145823756D01*
X107197698Y-145823756D02*
X107197698Y-145899946D01*
X107197698Y-145899946D02*
X107235794Y-145976137D01*
X107235794Y-145976137D02*
X107273889Y-146014232D01*
X107273889Y-146014232D02*
X107350079Y-146052327D01*
X107350079Y-146052327D02*
X107502460Y-146090423D01*
X107502460Y-146090423D02*
X107692936Y-146090423D01*
X107692936Y-146090423D02*
X107845317Y-146052327D01*
X107845317Y-146052327D02*
X107921508Y-146014232D01*
X107921508Y-146014232D02*
X107959603Y-145976137D01*
X107959603Y-145976137D02*
X107997698Y-145899946D01*
X92015104Y-158461026D02*
X92815104Y-158461026D01*
X92815104Y-158461026D02*
X92815104Y-158270550D01*
X92815104Y-158270550D02*
X92777009Y-158156264D01*
X92777009Y-158156264D02*
X92700819Y-158080074D01*
X92700819Y-158080074D02*
X92624628Y-158041979D01*
X92624628Y-158041979D02*
X92472247Y-158003883D01*
X92472247Y-158003883D02*
X92357961Y-158003883D01*
X92357961Y-158003883D02*
X92205580Y-158041979D01*
X92205580Y-158041979D02*
X92129390Y-158080074D01*
X92129390Y-158080074D02*
X92053200Y-158156264D01*
X92053200Y-158156264D02*
X92015104Y-158270550D01*
X92015104Y-158270550D02*
X92015104Y-158461026D01*
X92815104Y-157737217D02*
X92815104Y-157203883D01*
X92815104Y-157203883D02*
X92015104Y-157546741D01*
X94555104Y-158461026D02*
X95355104Y-158461026D01*
X95355104Y-158461026D02*
X95355104Y-158270550D01*
X95355104Y-158270550D02*
X95317009Y-158156264D01*
X95317009Y-158156264D02*
X95240819Y-158080074D01*
X95240819Y-158080074D02*
X95164628Y-158041979D01*
X95164628Y-158041979D02*
X95012247Y-158003883D01*
X95012247Y-158003883D02*
X94897961Y-158003883D01*
X94897961Y-158003883D02*
X94745580Y-158041979D01*
X94745580Y-158041979D02*
X94669390Y-158080074D01*
X94669390Y-158080074D02*
X94593200Y-158156264D01*
X94593200Y-158156264D02*
X94555104Y-158270550D01*
X94555104Y-158270550D02*
X94555104Y-158461026D01*
X95012247Y-157546741D02*
X95050342Y-157622931D01*
X95050342Y-157622931D02*
X95088438Y-157661026D01*
X95088438Y-157661026D02*
X95164628Y-157699122D01*
X95164628Y-157699122D02*
X95202723Y-157699122D01*
X95202723Y-157699122D02*
X95278914Y-157661026D01*
X95278914Y-157661026D02*
X95317009Y-157622931D01*
X95317009Y-157622931D02*
X95355104Y-157546741D01*
X95355104Y-157546741D02*
X95355104Y-157394360D01*
X95355104Y-157394360D02*
X95317009Y-157318169D01*
X95317009Y-157318169D02*
X95278914Y-157280074D01*
X95278914Y-157280074D02*
X95202723Y-157241979D01*
X95202723Y-157241979D02*
X95164628Y-157241979D01*
X95164628Y-157241979D02*
X95088438Y-157280074D01*
X95088438Y-157280074D02*
X95050342Y-157318169D01*
X95050342Y-157318169D02*
X95012247Y-157394360D01*
X95012247Y-157394360D02*
X95012247Y-157546741D01*
X95012247Y-157546741D02*
X94974152Y-157622931D01*
X94974152Y-157622931D02*
X94936057Y-157661026D01*
X94936057Y-157661026D02*
X94859866Y-157699122D01*
X94859866Y-157699122D02*
X94707485Y-157699122D01*
X94707485Y-157699122D02*
X94631295Y-157661026D01*
X94631295Y-157661026D02*
X94593200Y-157622931D01*
X94593200Y-157622931D02*
X94555104Y-157546741D01*
X94555104Y-157546741D02*
X94555104Y-157394360D01*
X94555104Y-157394360D02*
X94593200Y-157318169D01*
X94593200Y-157318169D02*
X94631295Y-157280074D01*
X94631295Y-157280074D02*
X94707485Y-157241979D01*
X94707485Y-157241979D02*
X94859866Y-157241979D01*
X94859866Y-157241979D02*
X94936057Y-157280074D01*
X94936057Y-157280074D02*
X94974152Y-157318169D01*
X94974152Y-157318169D02*
X95012247Y-157394360D01*
X97095104Y-158461025D02*
X97895104Y-158461025D01*
X97895104Y-158461025D02*
X97895104Y-158270549D01*
X97895104Y-158270549D02*
X97857009Y-158156263D01*
X97857009Y-158156263D02*
X97780819Y-158080073D01*
X97780819Y-158080073D02*
X97704628Y-158041978D01*
X97704628Y-158041978D02*
X97552247Y-158003882D01*
X97552247Y-158003882D02*
X97437961Y-158003882D01*
X97437961Y-158003882D02*
X97285580Y-158041978D01*
X97285580Y-158041978D02*
X97209390Y-158080073D01*
X97209390Y-158080073D02*
X97133200Y-158156263D01*
X97133200Y-158156263D02*
X97095104Y-158270549D01*
X97095104Y-158270549D02*
X97095104Y-158461025D01*
X97095104Y-157622930D02*
X97095104Y-157470549D01*
X97095104Y-157470549D02*
X97133200Y-157394359D01*
X97133200Y-157394359D02*
X97171295Y-157356263D01*
X97171295Y-157356263D02*
X97285580Y-157280073D01*
X97285580Y-157280073D02*
X97437961Y-157241978D01*
X97437961Y-157241978D02*
X97742723Y-157241978D01*
X97742723Y-157241978D02*
X97818914Y-157280073D01*
X97818914Y-157280073D02*
X97857009Y-157318168D01*
X97857009Y-157318168D02*
X97895104Y-157394359D01*
X97895104Y-157394359D02*
X97895104Y-157546740D01*
X97895104Y-157546740D02*
X97857009Y-157622930D01*
X97857009Y-157622930D02*
X97818914Y-157661025D01*
X97818914Y-157661025D02*
X97742723Y-157699121D01*
X97742723Y-157699121D02*
X97552247Y-157699121D01*
X97552247Y-157699121D02*
X97476057Y-157661025D01*
X97476057Y-157661025D02*
X97437961Y-157622930D01*
X97437961Y-157622930D02*
X97399866Y-157546740D01*
X97399866Y-157546740D02*
X97399866Y-157394359D01*
X97399866Y-157394359D02*
X97437961Y-157318168D01*
X97437961Y-157318168D02*
X97476057Y-157280073D01*
X97476057Y-157280073D02*
X97552247Y-157241978D01*
X99635104Y-158461026D02*
X100435104Y-158461026D01*
X100435104Y-158461026D02*
X100435104Y-158270550D01*
X100435104Y-158270550D02*
X100397009Y-158156264D01*
X100397009Y-158156264D02*
X100320819Y-158080074D01*
X100320819Y-158080074D02*
X100244628Y-158041979D01*
X100244628Y-158041979D02*
X100092247Y-158003883D01*
X100092247Y-158003883D02*
X99977961Y-158003883D01*
X99977961Y-158003883D02*
X99825580Y-158041979D01*
X99825580Y-158041979D02*
X99749390Y-158080074D01*
X99749390Y-158080074D02*
X99673200Y-158156264D01*
X99673200Y-158156264D02*
X99635104Y-158270550D01*
X99635104Y-158270550D02*
X99635104Y-158461026D01*
X99635104Y-157241979D02*
X99635104Y-157699122D01*
X99635104Y-157470550D02*
X100435104Y-157470550D01*
X100435104Y-157470550D02*
X100320819Y-157546741D01*
X100320819Y-157546741D02*
X100244628Y-157622931D01*
X100244628Y-157622931D02*
X100206533Y-157699122D01*
X100435104Y-156746740D02*
X100435104Y-156670550D01*
X100435104Y-156670550D02*
X100397009Y-156594359D01*
X100397009Y-156594359D02*
X100358914Y-156556264D01*
X100358914Y-156556264D02*
X100282723Y-156518169D01*
X100282723Y-156518169D02*
X100130342Y-156480074D01*
X100130342Y-156480074D02*
X99939866Y-156480074D01*
X99939866Y-156480074D02*
X99787485Y-156518169D01*
X99787485Y-156518169D02*
X99711295Y-156556264D01*
X99711295Y-156556264D02*
X99673200Y-156594359D01*
X99673200Y-156594359D02*
X99635104Y-156670550D01*
X99635104Y-156670550D02*
X99635104Y-156746740D01*
X99635104Y-156746740D02*
X99673200Y-156822931D01*
X99673200Y-156822931D02*
X99711295Y-156861026D01*
X99711295Y-156861026D02*
X99787485Y-156899121D01*
X99787485Y-156899121D02*
X99939866Y-156937217D01*
X99939866Y-156937217D02*
X100130342Y-156937217D01*
X100130342Y-156937217D02*
X100282723Y-156899121D01*
X100282723Y-156899121D02*
X100358914Y-156861026D01*
X100358914Y-156861026D02*
X100397009Y-156822931D01*
X100397009Y-156822931D02*
X100435104Y-156746740D01*
X102975104Y-158537217D02*
X102975104Y-158041979D01*
X102975104Y-158041979D02*
X102670342Y-158308645D01*
X102670342Y-158308645D02*
X102670342Y-158194360D01*
X102670342Y-158194360D02*
X102632247Y-158118169D01*
X102632247Y-158118169D02*
X102594152Y-158080074D01*
X102594152Y-158080074D02*
X102517961Y-158041979D01*
X102517961Y-158041979D02*
X102327485Y-158041979D01*
X102327485Y-158041979D02*
X102251295Y-158080074D01*
X102251295Y-158080074D02*
X102213200Y-158118169D01*
X102213200Y-158118169D02*
X102175104Y-158194360D01*
X102175104Y-158194360D02*
X102175104Y-158422931D01*
X102175104Y-158422931D02*
X102213200Y-158499122D01*
X102213200Y-158499122D02*
X102251295Y-158537217D01*
X102975104Y-157813407D02*
X102175104Y-157546740D01*
X102175104Y-157546740D02*
X102975104Y-157280074D01*
X102975104Y-157089598D02*
X102975104Y-156594360D01*
X102975104Y-156594360D02*
X102670342Y-156861026D01*
X102670342Y-156861026D02*
X102670342Y-156746741D01*
X102670342Y-156746741D02*
X102632247Y-156670550D01*
X102632247Y-156670550D02*
X102594152Y-156632455D01*
X102594152Y-156632455D02*
X102517961Y-156594360D01*
X102517961Y-156594360D02*
X102327485Y-156594360D01*
X102327485Y-156594360D02*
X102251295Y-156632455D01*
X102251295Y-156632455D02*
X102213200Y-156670550D01*
X102213200Y-156670550D02*
X102175104Y-156746741D01*
X102175104Y-156746741D02*
X102175104Y-156975312D01*
X102175104Y-156975312D02*
X102213200Y-157051503D01*
X102213200Y-157051503D02*
X102251295Y-157089598D01*
X105477009Y-158041979D02*
X105515104Y-158118169D01*
X105515104Y-158118169D02*
X105515104Y-158232455D01*
X105515104Y-158232455D02*
X105477009Y-158346741D01*
X105477009Y-158346741D02*
X105400819Y-158422931D01*
X105400819Y-158422931D02*
X105324628Y-158461026D01*
X105324628Y-158461026D02*
X105172247Y-158499122D01*
X105172247Y-158499122D02*
X105057961Y-158499122D01*
X105057961Y-158499122D02*
X104905580Y-158461026D01*
X104905580Y-158461026D02*
X104829390Y-158422931D01*
X104829390Y-158422931D02*
X104753200Y-158346741D01*
X104753200Y-158346741D02*
X104715104Y-158232455D01*
X104715104Y-158232455D02*
X104715104Y-158156264D01*
X104715104Y-158156264D02*
X104753200Y-158041979D01*
X104753200Y-158041979D02*
X104791295Y-158003883D01*
X104791295Y-158003883D02*
X105057961Y-158003883D01*
X105057961Y-158003883D02*
X105057961Y-158156264D01*
X104715104Y-157661026D02*
X105515104Y-157661026D01*
X105515104Y-157661026D02*
X104715104Y-157203883D01*
X104715104Y-157203883D02*
X105515104Y-157203883D01*
X104715104Y-156822931D02*
X105515104Y-156822931D01*
X105515104Y-156822931D02*
X105515104Y-156632455D01*
X105515104Y-156632455D02*
X105477009Y-156518169D01*
X105477009Y-156518169D02*
X105400819Y-156441979D01*
X105400819Y-156441979D02*
X105324628Y-156403884D01*
X105324628Y-156403884D02*
X105172247Y-156365788D01*
X105172247Y-156365788D02*
X105057961Y-156365788D01*
X105057961Y-156365788D02*
X104905580Y-156403884D01*
X104905580Y-156403884D02*
X104829390Y-156441979D01*
X104829390Y-156441979D02*
X104753200Y-156518169D01*
X104753200Y-156518169D02*
X104715104Y-156632455D01*
X104715104Y-156632455D02*
X104715104Y-156822931D01*
X108055104Y-158575312D02*
X107255104Y-158308645D01*
X107255104Y-158308645D02*
X108055104Y-158041979D01*
X108055104Y-157775312D02*
X107407485Y-157775312D01*
X107407485Y-157775312D02*
X107331295Y-157737217D01*
X107331295Y-157737217D02*
X107293200Y-157699122D01*
X107293200Y-157699122D02*
X107255104Y-157622931D01*
X107255104Y-157622931D02*
X107255104Y-157470550D01*
X107255104Y-157470550D02*
X107293200Y-157394360D01*
X107293200Y-157394360D02*
X107331295Y-157356265D01*
X107331295Y-157356265D02*
X107407485Y-157318169D01*
X107407485Y-157318169D02*
X108055104Y-157318169D01*
X107293200Y-156975313D02*
X107255104Y-156861027D01*
X107255104Y-156861027D02*
X107255104Y-156670551D01*
X107255104Y-156670551D02*
X107293200Y-156594360D01*
X107293200Y-156594360D02*
X107331295Y-156556265D01*
X107331295Y-156556265D02*
X107407485Y-156518170D01*
X107407485Y-156518170D02*
X107483676Y-156518170D01*
X107483676Y-156518170D02*
X107559866Y-156556265D01*
X107559866Y-156556265D02*
X107597961Y-156594360D01*
X107597961Y-156594360D02*
X107636057Y-156670551D01*
X107636057Y-156670551D02*
X107674152Y-156822932D01*
X107674152Y-156822932D02*
X107712247Y-156899122D01*
X107712247Y-156899122D02*
X107750342Y-156937217D01*
X107750342Y-156937217D02*
X107826533Y-156975313D01*
X107826533Y-156975313D02*
X107902723Y-156975313D01*
X107902723Y-156975313D02*
X107978914Y-156937217D01*
X107978914Y-156937217D02*
X108017009Y-156899122D01*
X108017009Y-156899122D02*
X108055104Y-156822932D01*
X108055104Y-156822932D02*
X108055104Y-156632455D01*
X108055104Y-156632455D02*
X108017009Y-156518170D01*
X107674152Y-155908646D02*
X107636057Y-155794360D01*
X107636057Y-155794360D02*
X107597961Y-155756265D01*
X107597961Y-155756265D02*
X107521771Y-155718169D01*
X107521771Y-155718169D02*
X107407485Y-155718169D01*
X107407485Y-155718169D02*
X107331295Y-155756265D01*
X107331295Y-155756265D02*
X107293200Y-155794360D01*
X107293200Y-155794360D02*
X107255104Y-155870550D01*
X107255104Y-155870550D02*
X107255104Y-156175312D01*
X107255104Y-156175312D02*
X108055104Y-156175312D01*
X108055104Y-156175312D02*
X108055104Y-155908646D01*
X108055104Y-155908646D02*
X108017009Y-155832455D01*
X108017009Y-155832455D02*
X107978914Y-155794360D01*
X107978914Y-155794360D02*
X107902723Y-155756265D01*
X107902723Y-155756265D02*
X107826533Y-155756265D01*
X107826533Y-155756265D02*
X107750342Y-155794360D01*
X107750342Y-155794360D02*
X107712247Y-155832455D01*
X107712247Y-155832455D02*
X107674152Y-155908646D01*
X107674152Y-155908646D02*
X107674152Y-156175312D01*
D12*
X105977069Y-136496821D02*
X105977069Y-135623061D01*
X105977069Y-135623061D02*
X105769031Y-135623061D01*
X105769031Y-135623061D02*
X105644208Y-135664669D01*
X105644208Y-135664669D02*
X105560993Y-135747884D01*
X105560993Y-135747884D02*
X105519386Y-135831099D01*
X105519386Y-135831099D02*
X105477778Y-135997530D01*
X105477778Y-135997530D02*
X105477778Y-136122353D01*
X105477778Y-136122353D02*
X105519386Y-136288783D01*
X105519386Y-136288783D02*
X105560993Y-136371998D01*
X105560993Y-136371998D02*
X105644208Y-136455214D01*
X105644208Y-136455214D02*
X105769031Y-136496821D01*
X105769031Y-136496821D02*
X105977069Y-136496821D01*
X104604018Y-136496821D02*
X104895271Y-136080745D01*
X105103309Y-136496821D02*
X105103309Y-135623061D01*
X105103309Y-135623061D02*
X104770448Y-135623061D01*
X104770448Y-135623061D02*
X104687233Y-135664669D01*
X104687233Y-135664669D02*
X104645626Y-135706276D01*
X104645626Y-135706276D02*
X104604018Y-135789492D01*
X104604018Y-135789492D02*
X104604018Y-135914314D01*
X104604018Y-135914314D02*
X104645626Y-135997530D01*
X104645626Y-135997530D02*
X104687233Y-136039137D01*
X104687233Y-136039137D02*
X104770448Y-136080745D01*
X104770448Y-136080745D02*
X105103309Y-136080745D01*
X104229549Y-136496821D02*
X104229549Y-135623061D01*
X104229549Y-135623061D02*
X104021511Y-135623061D01*
X104021511Y-135623061D02*
X103896688Y-135664669D01*
X103896688Y-135664669D02*
X103813473Y-135747884D01*
X103813473Y-135747884D02*
X103771866Y-135831099D01*
X103771866Y-135831099D02*
X103730258Y-135997530D01*
X103730258Y-135997530D02*
X103730258Y-136122353D01*
X103730258Y-136122353D02*
X103771866Y-136288783D01*
X103771866Y-136288783D02*
X103813473Y-136371998D01*
X103813473Y-136371998D02*
X103896688Y-136455214D01*
X103896688Y-136455214D02*
X104021511Y-136496821D01*
X104021511Y-136496821D02*
X104229549Y-136496821D01*
X103189359Y-136080745D02*
X103189359Y-136496821D01*
X103480612Y-135623061D02*
X103189359Y-136080745D01*
X103189359Y-136080745D02*
X102898106Y-135623061D01*
X105519387Y-128044669D02*
X105602602Y-128003061D01*
X105602602Y-128003061D02*
X105727425Y-128003061D01*
X105727425Y-128003061D02*
X105852248Y-128044669D01*
X105852248Y-128044669D02*
X105935463Y-128127884D01*
X105935463Y-128127884D02*
X105977070Y-128211099D01*
X105977070Y-128211099D02*
X106018678Y-128377530D01*
X106018678Y-128377530D02*
X106018678Y-128502353D01*
X106018678Y-128502353D02*
X105977070Y-128668783D01*
X105977070Y-128668783D02*
X105935463Y-128751998D01*
X105935463Y-128751998D02*
X105852248Y-128835214D01*
X105852248Y-128835214D02*
X105727425Y-128876821D01*
X105727425Y-128876821D02*
X105644209Y-128876821D01*
X105644209Y-128876821D02*
X105519387Y-128835214D01*
X105519387Y-128835214D02*
X105477779Y-128793606D01*
X105477779Y-128793606D02*
X105477779Y-128502353D01*
X105477779Y-128502353D02*
X105644209Y-128502353D01*
X105103310Y-128876821D02*
X105103310Y-128003061D01*
X105103310Y-128003061D02*
X104604019Y-128876821D01*
X104604019Y-128876821D02*
X104604019Y-128003061D01*
X104187942Y-128876821D02*
X104187942Y-128003061D01*
X104187942Y-128003061D02*
X103979904Y-128003061D01*
X103979904Y-128003061D02*
X103855081Y-128044669D01*
X103855081Y-128044669D02*
X103771866Y-128127884D01*
X103771866Y-128127884D02*
X103730259Y-128211099D01*
X103730259Y-128211099D02*
X103688651Y-128377530D01*
X103688651Y-128377530D02*
X103688651Y-128502353D01*
X103688651Y-128502353D02*
X103730259Y-128668783D01*
X103730259Y-128668783D02*
X103771866Y-128751998D01*
X103771866Y-128751998D02*
X103855081Y-128835214D01*
X103855081Y-128835214D02*
X103979904Y-128876821D01*
X103979904Y-128876821D02*
X104187942Y-128876821D01*
X106018677Y-133915214D02*
X105893854Y-133956821D01*
X105893854Y-133956821D02*
X105685816Y-133956821D01*
X105685816Y-133956821D02*
X105602601Y-133915214D01*
X105602601Y-133915214D02*
X105560993Y-133873606D01*
X105560993Y-133873606D02*
X105519386Y-133790391D01*
X105519386Y-133790391D02*
X105519386Y-133707175D01*
X105519386Y-133707175D02*
X105560993Y-133623960D01*
X105560993Y-133623960D02*
X105602601Y-133582353D01*
X105602601Y-133582353D02*
X105685816Y-133540745D01*
X105685816Y-133540745D02*
X105852247Y-133499137D01*
X105852247Y-133499137D02*
X105935462Y-133457530D01*
X105935462Y-133457530D02*
X105977069Y-133415922D01*
X105977069Y-133415922D02*
X106018677Y-133332707D01*
X106018677Y-133332707D02*
X106018677Y-133249492D01*
X106018677Y-133249492D02*
X105977069Y-133166276D01*
X105977069Y-133166276D02*
X105935462Y-133124669D01*
X105935462Y-133124669D02*
X105852247Y-133083061D01*
X105852247Y-133083061D02*
X105644208Y-133083061D01*
X105644208Y-133083061D02*
X105519386Y-133124669D01*
X105144917Y-133956821D02*
X105144917Y-133083061D01*
X105144917Y-133083061D02*
X104936879Y-133083061D01*
X104936879Y-133083061D02*
X104812056Y-133124669D01*
X104812056Y-133124669D02*
X104728841Y-133207884D01*
X104728841Y-133207884D02*
X104687234Y-133291099D01*
X104687234Y-133291099D02*
X104645626Y-133457530D01*
X104645626Y-133457530D02*
X104645626Y-133582353D01*
X104645626Y-133582353D02*
X104687234Y-133748783D01*
X104687234Y-133748783D02*
X104728841Y-133831998D01*
X104728841Y-133831998D02*
X104812056Y-133915214D01*
X104812056Y-133915214D02*
X104936879Y-133956821D01*
X104936879Y-133956821D02*
X105144917Y-133956821D01*
X104312765Y-133707175D02*
X103896689Y-133707175D01*
X104395980Y-133956821D02*
X104104727Y-133083061D01*
X104104727Y-133083061D02*
X103813474Y-133956821D01*
X106018678Y-131375214D02*
X105893855Y-131416821D01*
X105893855Y-131416821D02*
X105685817Y-131416821D01*
X105685817Y-131416821D02*
X105602602Y-131375214D01*
X105602602Y-131375214D02*
X105560994Y-131333606D01*
X105560994Y-131333606D02*
X105519387Y-131250391D01*
X105519387Y-131250391D02*
X105519387Y-131167175D01*
X105519387Y-131167175D02*
X105560994Y-131083960D01*
X105560994Y-131083960D02*
X105602602Y-131042353D01*
X105602602Y-131042353D02*
X105685817Y-131000745D01*
X105685817Y-131000745D02*
X105852248Y-130959137D01*
X105852248Y-130959137D02*
X105935463Y-130917530D01*
X105935463Y-130917530D02*
X105977070Y-130875922D01*
X105977070Y-130875922D02*
X106018678Y-130792707D01*
X106018678Y-130792707D02*
X106018678Y-130709492D01*
X106018678Y-130709492D02*
X105977070Y-130626276D01*
X105977070Y-130626276D02*
X105935463Y-130584669D01*
X105935463Y-130584669D02*
X105852248Y-130543061D01*
X105852248Y-130543061D02*
X105644209Y-130543061D01*
X105644209Y-130543061D02*
X105519387Y-130584669D01*
X104645627Y-131333606D02*
X104687235Y-131375214D01*
X104687235Y-131375214D02*
X104812057Y-131416821D01*
X104812057Y-131416821D02*
X104895273Y-131416821D01*
X104895273Y-131416821D02*
X105020096Y-131375214D01*
X105020096Y-131375214D02*
X105103311Y-131291998D01*
X105103311Y-131291998D02*
X105144918Y-131208783D01*
X105144918Y-131208783D02*
X105186526Y-131042353D01*
X105186526Y-131042353D02*
X105186526Y-130917530D01*
X105186526Y-130917530D02*
X105144918Y-130751099D01*
X105144918Y-130751099D02*
X105103311Y-130667884D01*
X105103311Y-130667884D02*
X105020096Y-130584669D01*
X105020096Y-130584669D02*
X104895273Y-130543061D01*
X104895273Y-130543061D02*
X104812057Y-130543061D01*
X104812057Y-130543061D02*
X104687235Y-130584669D01*
X104687235Y-130584669D02*
X104645627Y-130626276D01*
X103855082Y-131416821D02*
X104271158Y-131416821D01*
X104271158Y-131416821D02*
X104271158Y-130543061D01*
X106101892Y-122923061D02*
X105810639Y-123796821D01*
X105810639Y-123796821D02*
X105519386Y-122923061D01*
X105228132Y-123796821D02*
X105228132Y-122923061D01*
X104812056Y-123796821D02*
X104812056Y-122923061D01*
X104812056Y-122923061D02*
X104312765Y-123796821D01*
X104312765Y-123796821D02*
X104312765Y-122923061D01*
X106018678Y-126087175D02*
X105602602Y-126087175D01*
X106101893Y-126336821D02*
X105810640Y-125463061D01*
X105810640Y-125463061D02*
X105519387Y-126336821D01*
X105352956Y-125463061D02*
X105061703Y-126336821D01*
X105061703Y-126336821D02*
X104770450Y-125463061D01*
D10*
G36*
X93958914Y-118623500D02*
G01*
X93676118Y-118623500D01*
X93608515Y-118618749D01*
X93549311Y-118605163D01*
X93497185Y-118583361D01*
X93451078Y-118553432D01*
X93411634Y-118515136D01*
X93384215Y-118472517D01*
X93367655Y-118424664D01*
X93361942Y-118370104D01*
X93362545Y-118364608D01*
X93517464Y-118364608D01*
X93522710Y-118406805D01*
X93537571Y-118440921D01*
X93562032Y-118468857D01*
X93593850Y-118488947D01*
X93635080Y-118501916D01*
X93688373Y-118506666D01*
X93813175Y-118506666D01*
X93813175Y-118227441D01*
X93707442Y-118227441D01*
X93641575Y-118232484D01*
X93593887Y-118245791D01*
X93560026Y-118265489D01*
X93536802Y-118291045D01*
X93522558Y-118323363D01*
X93517464Y-118364608D01*
X93362545Y-118364608D01*
X93368360Y-118311616D01*
X93386595Y-118263047D01*
X93416347Y-118222221D01*
X93455741Y-118190051D01*
X93503568Y-118167549D01*
X93561757Y-118154901D01*
X93561757Y-118152428D01*
X93514376Y-118132730D01*
X93475645Y-118106487D01*
X93444319Y-118073568D01*
X93420908Y-118034726D01*
X93406762Y-117991560D01*
X93404779Y-117971737D01*
X93555602Y-117971737D01*
X93560763Y-118013751D01*
X93575268Y-118047125D01*
X93598961Y-118073898D01*
X93629775Y-118093184D01*
X93668868Y-118105522D01*
X93718488Y-118110003D01*
X93813175Y-118110003D01*
X93813175Y-117858146D01*
X93706837Y-117858146D01*
X93646229Y-117863943D01*
X93605030Y-117878984D01*
X93577848Y-117901315D01*
X93561487Y-117931344D01*
X93555602Y-117971737D01*
X93404779Y-117971737D01*
X93401894Y-117942886D01*
X93406623Y-117899736D01*
X93420383Y-117861718D01*
X93443316Y-117827646D01*
X93476577Y-117796817D01*
X93514873Y-117773418D01*
X93560449Y-117755903D01*
X93614663Y-117744706D01*
X93679140Y-117740708D01*
X93958914Y-117740708D01*
X93958914Y-118623500D01*
G37*
G36*
X92575706Y-118309928D02*
G01*
X92818551Y-118309928D01*
X92818551Y-118552608D01*
X92919997Y-118552608D01*
X92919997Y-118309928D01*
X93162841Y-118309928D01*
X93162841Y-118208482D01*
X92919997Y-118208482D01*
X92919997Y-117965802D01*
X92818551Y-117965802D01*
X92818551Y-118208482D01*
X92575706Y-118208482D01*
X92575706Y-118309928D01*
G37*
G36*
X98697801Y-120873500D02*
G01*
X98415005Y-120873500D01*
X98347402Y-120868749D01*
X98288198Y-120855163D01*
X98236072Y-120833361D01*
X98189965Y-120803432D01*
X98150521Y-120765136D01*
X98123102Y-120722517D01*
X98106542Y-120674664D01*
X98100829Y-120620104D01*
X98101432Y-120614608D01*
X98256351Y-120614608D01*
X98261597Y-120656805D01*
X98276458Y-120690921D01*
X98300919Y-120718857D01*
X98332737Y-120738947D01*
X98373967Y-120751916D01*
X98427260Y-120756666D01*
X98552062Y-120756666D01*
X98552062Y-120477441D01*
X98446329Y-120477441D01*
X98380462Y-120482484D01*
X98332774Y-120495791D01*
X98298913Y-120515489D01*
X98275689Y-120541045D01*
X98261445Y-120573363D01*
X98256351Y-120614608D01*
X98101432Y-120614608D01*
X98107247Y-120561616D01*
X98125482Y-120513047D01*
X98155234Y-120472221D01*
X98194628Y-120440051D01*
X98242455Y-120417549D01*
X98300644Y-120404901D01*
X98300644Y-120402428D01*
X98253263Y-120382730D01*
X98214532Y-120356487D01*
X98183206Y-120323568D01*
X98159795Y-120284726D01*
X98145649Y-120241560D01*
X98143666Y-120221737D01*
X98294489Y-120221737D01*
X98299650Y-120263751D01*
X98314155Y-120297125D01*
X98337848Y-120323898D01*
X98368662Y-120343184D01*
X98407755Y-120355522D01*
X98457375Y-120360003D01*
X98552062Y-120360003D01*
X98552062Y-120108146D01*
X98445724Y-120108146D01*
X98385116Y-120113943D01*
X98343917Y-120128984D01*
X98316735Y-120151315D01*
X98300374Y-120181344D01*
X98294489Y-120221737D01*
X98143666Y-120221737D01*
X98140781Y-120192886D01*
X98145510Y-120149736D01*
X98159270Y-120111718D01*
X98182203Y-120077646D01*
X98215464Y-120046817D01*
X98253760Y-120023418D01*
X98299336Y-120005903D01*
X98353550Y-119994706D01*
X98418027Y-119990708D01*
X98697801Y-119990708D01*
X98697801Y-120873500D01*
G37*
G36*
X98035598Y-120873500D02*
G01*
X97875735Y-120873500D01*
X97799513Y-120648076D01*
X97452749Y-120648076D01*
X97373449Y-120873500D01*
X97212982Y-120873500D01*
X97340926Y-120528824D01*
X97491492Y-120528824D01*
X97761374Y-120528824D01*
X97640254Y-120176345D01*
X97627944Y-120120841D01*
X97625526Y-120120841D01*
X97613821Y-120176345D01*
X97491492Y-120528824D01*
X97340926Y-120528824D01*
X97540676Y-119990708D01*
X97705430Y-119990708D01*
X98035598Y-120873500D01*
G37*
G36*
X96576717Y-120114906D02*
G01*
X96830058Y-120114906D01*
X96830058Y-120873500D01*
X96976347Y-120873500D01*
X96976347Y-120114906D01*
X97229029Y-120114906D01*
X97229029Y-119990708D01*
X96576717Y-119990708D01*
X96576717Y-120114906D01*
G37*
G36*
X95882090Y-120114906D02*
G01*
X96135431Y-120114906D01*
X96135431Y-120873500D01*
X96281721Y-120873500D01*
X96281721Y-120114906D01*
X96534402Y-120114906D01*
X96534402Y-119990708D01*
X95882090Y-119990708D01*
X95882090Y-120114906D01*
G37*
G36*
X95257531Y-120873500D02*
G01*
X95408162Y-120873500D01*
X95408162Y-119990708D01*
X95257531Y-119990708D01*
X95257531Y-120873500D01*
G37*
G36*
X94293297Y-120873500D02*
G01*
X94453160Y-120873500D01*
X94874277Y-120224650D01*
X94900710Y-120173542D01*
X94904392Y-120173542D01*
X94901092Y-120209808D01*
X94899501Y-120294827D01*
X94899501Y-120873500D01*
X95040900Y-120873500D01*
X95040900Y-119990708D01*
X94870595Y-119990708D01*
X94463601Y-120624170D01*
X94430409Y-120678356D01*
X94427936Y-120678356D01*
X94432214Y-120637159D01*
X94434091Y-120559544D01*
X94434091Y-119990708D01*
X94293297Y-119990708D01*
X94293297Y-120873500D01*
G37*
G36*
X100024266Y-118623500D02*
G01*
X99741470Y-118623500D01*
X99673867Y-118618749D01*
X99614663Y-118605163D01*
X99562537Y-118583361D01*
X99516430Y-118553432D01*
X99476986Y-118515136D01*
X99449567Y-118472517D01*
X99433007Y-118424664D01*
X99427294Y-118370104D01*
X99427897Y-118364608D01*
X99582816Y-118364608D01*
X99588062Y-118406805D01*
X99602923Y-118440921D01*
X99627384Y-118468857D01*
X99659202Y-118488947D01*
X99700432Y-118501916D01*
X99753725Y-118506666D01*
X99878527Y-118506666D01*
X99878527Y-118227441D01*
X99772794Y-118227441D01*
X99706927Y-118232484D01*
X99659239Y-118245791D01*
X99625378Y-118265489D01*
X99602154Y-118291045D01*
X99587910Y-118323363D01*
X99582816Y-118364608D01*
X99427897Y-118364608D01*
X99433712Y-118311616D01*
X99451947Y-118263047D01*
X99481699Y-118222221D01*
X99521093Y-118190051D01*
X99568920Y-118167549D01*
X99627109Y-118154901D01*
X99627109Y-118152428D01*
X99579728Y-118132730D01*
X99540997Y-118106487D01*
X99509671Y-118073568D01*
X99486260Y-118034726D01*
X99472114Y-117991560D01*
X99470131Y-117971737D01*
X99620954Y-117971737D01*
X99626115Y-118013751D01*
X99640620Y-118047125D01*
X99664313Y-118073898D01*
X99695127Y-118093184D01*
X99734220Y-118105522D01*
X99783840Y-118110003D01*
X99878527Y-118110003D01*
X99878527Y-117858146D01*
X99772189Y-117858146D01*
X99711581Y-117863943D01*
X99670382Y-117878984D01*
X99643200Y-117901315D01*
X99626839Y-117931344D01*
X99620954Y-117971737D01*
X99470131Y-117971737D01*
X99467246Y-117942886D01*
X99471975Y-117899736D01*
X99485735Y-117861718D01*
X99508668Y-117827646D01*
X99541929Y-117796817D01*
X99580225Y-117773418D01*
X99625801Y-117755903D01*
X99680015Y-117744706D01*
X99744492Y-117740708D01*
X100024266Y-117740708D01*
X100024266Y-118623500D01*
G37*
G36*
X98948309Y-118331196D02*
G01*
X99283972Y-118331196D01*
X99283972Y-118226068D01*
X98948309Y-118226068D01*
X98948309Y-118331196D01*
G37*
G36*
X121458914Y-160123500D02*
G01*
X121176118Y-160123500D01*
X121108515Y-160118749D01*
X121049311Y-160105163D01*
X120997185Y-160083361D01*
X120951078Y-160053432D01*
X120911634Y-160015136D01*
X120884215Y-159972517D01*
X120867655Y-159924664D01*
X120861942Y-159870104D01*
X120862545Y-159864608D01*
X121017464Y-159864608D01*
X121022710Y-159906805D01*
X121037571Y-159940921D01*
X121062032Y-159968857D01*
X121093850Y-159988947D01*
X121135080Y-160001916D01*
X121188373Y-160006666D01*
X121313175Y-160006666D01*
X121313175Y-159727441D01*
X121207442Y-159727441D01*
X121141575Y-159732484D01*
X121093887Y-159745791D01*
X121060026Y-159765489D01*
X121036802Y-159791045D01*
X121022558Y-159823363D01*
X121017464Y-159864608D01*
X120862545Y-159864608D01*
X120868360Y-159811616D01*
X120886595Y-159763047D01*
X120916347Y-159722221D01*
X120955741Y-159690051D01*
X121003568Y-159667549D01*
X121061757Y-159654901D01*
X121061757Y-159652428D01*
X121014376Y-159632730D01*
X120975645Y-159606487D01*
X120944319Y-159573568D01*
X120920908Y-159534726D01*
X120906762Y-159491560D01*
X120904779Y-159471737D01*
X121055602Y-159471737D01*
X121060763Y-159513751D01*
X121075268Y-159547125D01*
X121098961Y-159573898D01*
X121129775Y-159593184D01*
X121168868Y-159605522D01*
X121218488Y-159610003D01*
X121313175Y-159610003D01*
X121313175Y-159358146D01*
X121206837Y-159358146D01*
X121146229Y-159363943D01*
X121105030Y-159378984D01*
X121077848Y-159401315D01*
X121061487Y-159431344D01*
X121055602Y-159471737D01*
X120904779Y-159471737D01*
X120901894Y-159442886D01*
X120906623Y-159399736D01*
X120920383Y-159361718D01*
X120943316Y-159327646D01*
X120976577Y-159296817D01*
X121014873Y-159273418D01*
X121060449Y-159255903D01*
X121114663Y-159244706D01*
X121179140Y-159240708D01*
X121458914Y-159240708D01*
X121458914Y-160123500D01*
G37*
G36*
X120075706Y-159809928D02*
G01*
X120318551Y-159809928D01*
X120318551Y-160052608D01*
X120419997Y-160052608D01*
X120419997Y-159809928D01*
X120662841Y-159809928D01*
X120662841Y-159708482D01*
X120419997Y-159708482D01*
X120419997Y-159465802D01*
X120318551Y-159465802D01*
X120318551Y-159708482D01*
X120075706Y-159708482D01*
X120075706Y-159809928D01*
G37*
G36*
X126012438Y-157866537D02*
G01*
X125729642Y-157866537D01*
X125662039Y-157861786D01*
X125602835Y-157848200D01*
X125550709Y-157826398D01*
X125504602Y-157796469D01*
X125465158Y-157758173D01*
X125437739Y-157715554D01*
X125421179Y-157667701D01*
X125415466Y-157613141D01*
X125416069Y-157607645D01*
X125570988Y-157607645D01*
X125576234Y-157649842D01*
X125591095Y-157683958D01*
X125615556Y-157711894D01*
X125647374Y-157731984D01*
X125688604Y-157744953D01*
X125741897Y-157749703D01*
X125866699Y-157749703D01*
X125866699Y-157470478D01*
X125760966Y-157470478D01*
X125695099Y-157475521D01*
X125647411Y-157488828D01*
X125613550Y-157508526D01*
X125590326Y-157534082D01*
X125576082Y-157566400D01*
X125570988Y-157607645D01*
X125416069Y-157607645D01*
X125421884Y-157554653D01*
X125440119Y-157506084D01*
X125469871Y-157465258D01*
X125509265Y-157433088D01*
X125557092Y-157410586D01*
X125615281Y-157397938D01*
X125615281Y-157395465D01*
X125567900Y-157375767D01*
X125529169Y-157349524D01*
X125497843Y-157316605D01*
X125474432Y-157277763D01*
X125460286Y-157234597D01*
X125458303Y-157214774D01*
X125609126Y-157214774D01*
X125614287Y-157256788D01*
X125628792Y-157290162D01*
X125652485Y-157316935D01*
X125683299Y-157336221D01*
X125722392Y-157348559D01*
X125772012Y-157353040D01*
X125866699Y-157353040D01*
X125866699Y-157101183D01*
X125760361Y-157101183D01*
X125699753Y-157106980D01*
X125658554Y-157122021D01*
X125631372Y-157144352D01*
X125615011Y-157174381D01*
X125609126Y-157214774D01*
X125458303Y-157214774D01*
X125455418Y-157185923D01*
X125460147Y-157142773D01*
X125473907Y-157104755D01*
X125496840Y-157070683D01*
X125530101Y-157039854D01*
X125568397Y-157016455D01*
X125613973Y-156998940D01*
X125668187Y-156987743D01*
X125732664Y-156983745D01*
X126012438Y-156983745D01*
X126012438Y-157866537D01*
G37*
G36*
X125350235Y-157866537D02*
G01*
X125190372Y-157866537D01*
X125114150Y-157641113D01*
X124767386Y-157641113D01*
X124688086Y-157866537D01*
X124527619Y-157866537D01*
X124655563Y-157521861D01*
X124806129Y-157521861D01*
X125076011Y-157521861D01*
X124954891Y-157169382D01*
X124942581Y-157113878D01*
X124940163Y-157113878D01*
X124928458Y-157169382D01*
X124806129Y-157521861D01*
X124655563Y-157521861D01*
X124855313Y-156983745D01*
X125020067Y-156983745D01*
X125350235Y-157866537D01*
G37*
G36*
X123891354Y-157107943D02*
G01*
X124144695Y-157107943D01*
X124144695Y-157866537D01*
X124290984Y-157866537D01*
X124290984Y-157107943D01*
X124543666Y-157107943D01*
X124543666Y-156983745D01*
X123891354Y-156983745D01*
X123891354Y-157107943D01*
G37*
G36*
X123196727Y-157107943D02*
G01*
X123450068Y-157107943D01*
X123450068Y-157866537D01*
X123596358Y-157866537D01*
X123596358Y-157107943D01*
X123849039Y-157107943D01*
X123849039Y-156983745D01*
X123196727Y-156983745D01*
X123196727Y-157107943D01*
G37*
G36*
X122424847Y-156975209D02*
G01*
X122495296Y-156991052D01*
X122557550Y-157016496D01*
X122612819Y-157051420D01*
X122661964Y-157096292D01*
X122702803Y-157148543D01*
X122735008Y-157207512D01*
X122758704Y-157274154D01*
X122773547Y-157349693D01*
X122778742Y-157435582D01*
X122773743Y-157515016D01*
X122759370Y-157585754D01*
X122736252Y-157649028D01*
X122704581Y-157705870D01*
X122664107Y-157757067D01*
X122615800Y-157801080D01*
X122562037Y-157835192D01*
X122502054Y-157859934D01*
X122434767Y-157875270D01*
X122358834Y-157880605D01*
X122281383Y-157875179D01*
X122212859Y-157859595D01*
X122151876Y-157834475D01*
X122097318Y-157799869D01*
X122048395Y-157755253D01*
X122007916Y-157703566D01*
X121975891Y-157644768D01*
X121952246Y-157577838D01*
X121937384Y-157501462D01*
X121933009Y-157428218D01*
X122085270Y-157428218D01*
X122090493Y-157505469D01*
X122105076Y-157569664D01*
X122127869Y-157623020D01*
X122158414Y-157667326D01*
X122197836Y-157704320D01*
X122243377Y-157730701D01*
X122296251Y-157747006D01*
X122358229Y-157752725D01*
X122415957Y-157746919D01*
X122466450Y-157730136D01*
X122511232Y-157702491D01*
X122551285Y-157662985D01*
X122582504Y-157616492D01*
X122605464Y-157562523D01*
X122619926Y-157499710D01*
X122625034Y-157426350D01*
X122619798Y-157352805D01*
X122604954Y-157289730D01*
X122581339Y-157235418D01*
X122549142Y-157188506D01*
X122508039Y-157148743D01*
X122462237Y-157120901D01*
X122410751Y-157104002D01*
X122352075Y-157098161D01*
X122291124Y-157103916D01*
X122239276Y-157120317D01*
X122194728Y-157146880D01*
X122156271Y-157184220D01*
X122126825Y-157228631D01*
X122104674Y-157282729D01*
X122090405Y-157348466D01*
X122085270Y-157428218D01*
X121933009Y-157428218D01*
X121932166Y-157414095D01*
X121937133Y-157334307D01*
X121951395Y-157263412D01*
X121974301Y-157200158D01*
X122005627Y-157143493D01*
X122045593Y-157092610D01*
X122093456Y-157048661D01*
X122146432Y-157014696D01*
X122205240Y-156990133D01*
X122270906Y-156974948D01*
X122344711Y-156969677D01*
X122424847Y-156975209D01*
G37*
G36*
X127524266Y-160123500D02*
G01*
X127241470Y-160123500D01*
X127173867Y-160118749D01*
X127114663Y-160105163D01*
X127062537Y-160083361D01*
X127016430Y-160053432D01*
X126976986Y-160015136D01*
X126949567Y-159972517D01*
X126933007Y-159924664D01*
X126927294Y-159870104D01*
X126927897Y-159864608D01*
X127082816Y-159864608D01*
X127088062Y-159906805D01*
X127102923Y-159940921D01*
X127127384Y-159968857D01*
X127159202Y-159988947D01*
X127200432Y-160001916D01*
X127253725Y-160006666D01*
X127378527Y-160006666D01*
X127378527Y-159727441D01*
X127272794Y-159727441D01*
X127206927Y-159732484D01*
X127159239Y-159745791D01*
X127125378Y-159765489D01*
X127102154Y-159791045D01*
X127087910Y-159823363D01*
X127082816Y-159864608D01*
X126927897Y-159864608D01*
X126933712Y-159811616D01*
X126951947Y-159763047D01*
X126981699Y-159722221D01*
X127021093Y-159690051D01*
X127068920Y-159667549D01*
X127127109Y-159654901D01*
X127127109Y-159652428D01*
X127079728Y-159632730D01*
X127040997Y-159606487D01*
X127009671Y-159573568D01*
X126986260Y-159534726D01*
X126972114Y-159491560D01*
X126970131Y-159471737D01*
X127120954Y-159471737D01*
X127126115Y-159513751D01*
X127140620Y-159547125D01*
X127164313Y-159573898D01*
X127195127Y-159593184D01*
X127234220Y-159605522D01*
X127283840Y-159610003D01*
X127378527Y-159610003D01*
X127378527Y-159358146D01*
X127272189Y-159358146D01*
X127211581Y-159363943D01*
X127170382Y-159378984D01*
X127143200Y-159401315D01*
X127126839Y-159431344D01*
X127120954Y-159471737D01*
X126970131Y-159471737D01*
X126967246Y-159442886D01*
X126971975Y-159399736D01*
X126985735Y-159361718D01*
X127008668Y-159327646D01*
X127041929Y-159296817D01*
X127080225Y-159273418D01*
X127125801Y-159255903D01*
X127180015Y-159244706D01*
X127244492Y-159240708D01*
X127524266Y-159240708D01*
X127524266Y-160123500D01*
G37*
G36*
X126448309Y-159831196D02*
G01*
X126783972Y-159831196D01*
X126783972Y-159726068D01*
X126448309Y-159726068D01*
X126448309Y-159831196D01*
G37*
G36*
X87582668Y-126821696D02*
G01*
X87661266Y-126837665D01*
X87731571Y-126863352D01*
X87794728Y-126898541D01*
X87851614Y-126943513D01*
X87900517Y-126997188D01*
X87938420Y-127056924D01*
X87965910Y-127123572D01*
X87982950Y-127198335D01*
X87988878Y-127282705D01*
X87982850Y-127368762D01*
X87965534Y-127444900D01*
X87937622Y-127512659D01*
X87899171Y-127573278D01*
X87849599Y-127627637D01*
X87792168Y-127672614D01*
X87726837Y-127708198D01*
X87652470Y-127734470D01*
X87567608Y-127750983D01*
X87470534Y-127756781D01*
X87381880Y-127751261D01*
X87303108Y-127735415D01*
X87232825Y-127709964D01*
X87169865Y-127675157D01*
X87113328Y-127630751D01*
X87064496Y-127577570D01*
X87026757Y-127518707D01*
X86999465Y-127453365D01*
X86982593Y-127380403D01*
X86976736Y-127298398D01*
X86977301Y-127290216D01*
X87119496Y-127290216D01*
X87125890Y-127357938D01*
X87144114Y-127415548D01*
X87173628Y-127465045D01*
X87215117Y-127507775D01*
X87264462Y-127540493D01*
X87324571Y-127565105D01*
X87397612Y-127580959D01*
X87486226Y-127586665D01*
X87572060Y-127580862D01*
X87643388Y-127564658D01*
X87702673Y-127539333D01*
X87751901Y-127505394D01*
X87793006Y-127461591D01*
X87822318Y-127410991D01*
X87840435Y-127352242D01*
X87846790Y-127283377D01*
X87840338Y-127219235D01*
X87821691Y-127163132D01*
X87790974Y-127113374D01*
X87747078Y-127068871D01*
X87695419Y-127034182D01*
X87635454Y-127008672D01*
X87565662Y-126992603D01*
X87484150Y-126986927D01*
X87402433Y-126992745D01*
X87332350Y-127009239D01*
X87272003Y-127035477D01*
X87219879Y-127071252D01*
X87175698Y-127116922D01*
X87144763Y-127167813D01*
X87125986Y-127225019D01*
X87119496Y-127290216D01*
X86977301Y-127290216D01*
X86982883Y-127209357D01*
X87000486Y-127131080D01*
X87028758Y-127061909D01*
X87067561Y-127000500D01*
X87117420Y-126945894D01*
X87175476Y-126900517D01*
X87240997Y-126864734D01*
X87315043Y-126838405D01*
X87398976Y-126821913D01*
X87494408Y-126816140D01*
X87582668Y-126821696D01*
G37*
G36*
X87973247Y-128767702D02*
G01*
X87973247Y-128590076D01*
X87252303Y-128122168D01*
X87195516Y-128092798D01*
X87195516Y-128088707D01*
X87235812Y-128092373D01*
X87330277Y-128094141D01*
X87973247Y-128094141D01*
X87973247Y-127937032D01*
X86992367Y-127937032D01*
X86992367Y-128126259D01*
X87696214Y-128578475D01*
X87756420Y-128615355D01*
X87756420Y-128618103D01*
X87710646Y-128613349D01*
X87624407Y-128611264D01*
X86992367Y-128611264D01*
X86992367Y-128767702D01*
X87973247Y-128767702D01*
G37*
G36*
X87632407Y-130360628D02*
G01*
X87711005Y-130376597D01*
X87781310Y-130402284D01*
X87844467Y-130437473D01*
X87901353Y-130482445D01*
X87950256Y-130536120D01*
X87988159Y-130595856D01*
X88015649Y-130662504D01*
X88032689Y-130737267D01*
X88038617Y-130821637D01*
X88032589Y-130907694D01*
X88015273Y-130983832D01*
X87987361Y-131051591D01*
X87948910Y-131112210D01*
X87899338Y-131166569D01*
X87841907Y-131211546D01*
X87776576Y-131247130D01*
X87702209Y-131273402D01*
X87617347Y-131289915D01*
X87520273Y-131295713D01*
X87431619Y-131290193D01*
X87352847Y-131274347D01*
X87282564Y-131248896D01*
X87219604Y-131214089D01*
X87163067Y-131169683D01*
X87114235Y-131116502D01*
X87076496Y-131057639D01*
X87049204Y-130992297D01*
X87032332Y-130919335D01*
X87026475Y-130837330D01*
X87027040Y-130829148D01*
X87169235Y-130829148D01*
X87175629Y-130896870D01*
X87193853Y-130954480D01*
X87223367Y-131003977D01*
X87264856Y-131046707D01*
X87314201Y-131079425D01*
X87374310Y-131104037D01*
X87447351Y-131119891D01*
X87535965Y-131125597D01*
X87621799Y-131119794D01*
X87693127Y-131103590D01*
X87752412Y-131078265D01*
X87801640Y-131044326D01*
X87842745Y-131000523D01*
X87872057Y-130949923D01*
X87890174Y-130891174D01*
X87896529Y-130822309D01*
X87890077Y-130758167D01*
X87871430Y-130702064D01*
X87840713Y-130652306D01*
X87796817Y-130607803D01*
X87745158Y-130573114D01*
X87685193Y-130547604D01*
X87615401Y-130531535D01*
X87533889Y-130525859D01*
X87452172Y-130531677D01*
X87382089Y-130548171D01*
X87321742Y-130574409D01*
X87269618Y-130610184D01*
X87225437Y-130655854D01*
X87194502Y-130706745D01*
X87175725Y-130763951D01*
X87169235Y-130829148D01*
X87027040Y-130829148D01*
X87032622Y-130748289D01*
X87050225Y-130670012D01*
X87078497Y-130600841D01*
X87117300Y-130539432D01*
X87167159Y-130484826D01*
X87225215Y-130439449D01*
X87290736Y-130403666D01*
X87364782Y-130377337D01*
X87448715Y-130360845D01*
X87544147Y-130355072D01*
X87632407Y-130360628D01*
G37*
G36*
X87180103Y-132004688D02*
G01*
X87180103Y-131638568D01*
X87475882Y-131638568D01*
X87475882Y-131975990D01*
X87613207Y-131975990D01*
X87613207Y-131638568D01*
X88022986Y-131638568D01*
X88022986Y-131475964D01*
X87042106Y-131475964D01*
X87042106Y-132004688D01*
X87180103Y-132004688D01*
G37*
G36*
X87180103Y-132708108D02*
G01*
X87180103Y-132341988D01*
X87475882Y-132341988D01*
X87475882Y-132679409D01*
X87613207Y-132679409D01*
X87613207Y-132341988D01*
X88022986Y-132341988D01*
X88022986Y-132179383D01*
X87042106Y-132179383D01*
X87042106Y-132708108D01*
X87180103Y-132708108D01*
G37*
G36*
X130158349Y-151746814D02*
G01*
X130251793Y-151790160D01*
X130350528Y-151821305D01*
X130455412Y-151840288D01*
X130567432Y-151846758D01*
X130671487Y-151839751D01*
X130764188Y-151819578D01*
X130847234Y-151787024D01*
X130922018Y-151742199D01*
X130989557Y-151684532D01*
X131046694Y-151616832D01*
X131091283Y-151541320D01*
X131123791Y-151456899D01*
X131144008Y-151362084D01*
X131151050Y-151255080D01*
X131143529Y-151146616D01*
X131121779Y-151049112D01*
X131086490Y-150960883D01*
X131037617Y-150880563D01*
X130974389Y-150807163D01*
X130900393Y-150744521D01*
X130819656Y-150696097D01*
X130731212Y-150661146D01*
X130633733Y-150639623D01*
X130525593Y-150632188D01*
X130395703Y-150639250D01*
X130286943Y-150658941D01*
X130196085Y-150689487D01*
X130196085Y-150890108D01*
X130265390Y-150851483D01*
X130341412Y-150823477D01*
X130425242Y-150806183D01*
X130518192Y-150800202D01*
X130610087Y-150808352D01*
X130690701Y-150831826D01*
X130762168Y-150870108D01*
X130826012Y-150923960D01*
X130877833Y-150989265D01*
X130915054Y-151063230D01*
X130938071Y-151147520D01*
X130946106Y-151244382D01*
X130938856Y-151345608D01*
X130918483Y-151430689D01*
X130886358Y-151502371D01*
X130842864Y-151562826D01*
X130787469Y-151612914D01*
X130723516Y-151648756D01*
X130649314Y-151670953D01*
X130562449Y-151678744D01*
X130482719Y-151673187D01*
X130413311Y-151657343D01*
X130352596Y-151631996D01*
X130352596Y-151354218D01*
X130600185Y-151354218D01*
X130600185Y-151190234D01*
X130158349Y-151190234D01*
X130158349Y-151746814D01*
G37*
G36*
X128907655Y-151828001D02*
G01*
X129120806Y-151828001D01*
X129682296Y-150962868D01*
X129717540Y-150894724D01*
X129722449Y-150894724D01*
X129718049Y-150943079D01*
X129715928Y-151056437D01*
X129715928Y-151828001D01*
X129904459Y-151828001D01*
X129904459Y-150650945D01*
X129677386Y-150650945D01*
X129134728Y-151495562D01*
X129090471Y-151567809D01*
X129087174Y-151567809D01*
X129092878Y-151512879D01*
X129095380Y-151409393D01*
X129095380Y-150650945D01*
X128907655Y-150650945D01*
X128907655Y-151828001D01*
G37*
G36*
X128616029Y-151828001D02*
G01*
X128290551Y-151828001D01*
X128168003Y-151820633D01*
X128060274Y-151799591D01*
X127965294Y-151766016D01*
X127881308Y-151720412D01*
X127806950Y-151662624D01*
X127742490Y-151592809D01*
X127692658Y-151515394D01*
X127656603Y-151429314D01*
X127634300Y-151333042D01*
X127626903Y-151229581D01*
X127831497Y-151229581D01*
X127839515Y-151332628D01*
X127862005Y-151418414D01*
X127897518Y-151490058D01*
X127945876Y-151549930D01*
X128006175Y-151597864D01*
X128077982Y-151633042D01*
X128163590Y-151655291D01*
X128266005Y-151663210D01*
X128421709Y-151663210D01*
X128421709Y-150816542D01*
X128258604Y-150816542D01*
X128150387Y-150824173D01*
X128063193Y-150845213D01*
X127993126Y-150877712D01*
X127937103Y-150920940D01*
X127893082Y-150975455D01*
X127860254Y-151043040D01*
X127839130Y-151126529D01*
X127831497Y-151229581D01*
X127626903Y-151229581D01*
X127626552Y-151224672D01*
X127633739Y-151110366D01*
X127653973Y-151013210D01*
X127685809Y-150930536D01*
X127728588Y-150860125D01*
X127782477Y-150800318D01*
X127848453Y-150750114D01*
X127928239Y-150709243D01*
X128024197Y-150678185D01*
X128139217Y-150658137D01*
X128276629Y-150650945D01*
X128616029Y-150650945D01*
X128616029Y-151828001D01*
G37*
G36*
X131119908Y-141623817D02*
G01*
X131119908Y-141445691D01*
X131060139Y-141485457D01*
X130997592Y-141513406D01*
X130931500Y-141530199D01*
X130860889Y-141535890D01*
X130784350Y-141529353D01*
X130722943Y-141511256D01*
X130673603Y-141482913D01*
X130634554Y-141443298D01*
X130611481Y-141396295D01*
X130603481Y-141339445D01*
X130611235Y-141281130D01*
X130633161Y-141234796D01*
X130669559Y-141197477D01*
X130723659Y-141168198D01*
X130801083Y-141148160D01*
X130909249Y-141140509D01*
X131000253Y-141140509D01*
X131000253Y-140988028D01*
X130913352Y-140988028D01*
X130818665Y-140980960D01*
X130750363Y-140962354D01*
X130702117Y-140934926D01*
X130669228Y-140899545D01*
X130649171Y-140855064D01*
X130642022Y-140798545D01*
X130648104Y-140744322D01*
X130664877Y-140702571D01*
X130691627Y-140670313D01*
X130729674Y-140646024D01*
X130782130Y-140629907D01*
X130853488Y-140623862D01*
X130929287Y-140633004D01*
X131002761Y-140660767D01*
X131075651Y-140709152D01*
X131075651Y-140539672D01*
X130993348Y-140502970D01*
X130899809Y-140480159D01*
X130792818Y-140472188D01*
X130714600Y-140477676D01*
X130647920Y-140493188D01*
X130590892Y-140517775D01*
X130542005Y-140551176D01*
X130500343Y-140593929D01*
X130471300Y-140641164D01*
X130453749Y-140693847D01*
X130447703Y-140753482D01*
X130454660Y-140828487D01*
X130474302Y-140890994D01*
X130505804Y-140943496D01*
X130549748Y-140987679D01*
X130608053Y-141024238D01*
X130683788Y-141052802D01*
X130683788Y-141056099D01*
X130602384Y-141072206D01*
X130536433Y-141101925D01*
X130482947Y-141144759D01*
X130442193Y-141199455D01*
X130417661Y-141262226D01*
X130409161Y-141335488D01*
X130416864Y-141411808D01*
X130439112Y-141478419D01*
X130475741Y-141537367D01*
X130528083Y-141589965D01*
X130589605Y-141630921D01*
X130661019Y-141661060D01*
X130744130Y-141680050D01*
X130841178Y-141686758D01*
X130956337Y-141678816D01*
X131047724Y-141657086D01*
X131119908Y-141623817D01*
G37*
G36*
X129222214Y-140490945D02*
G01*
X129644413Y-141668001D01*
X129862399Y-141668001D01*
X130277197Y-140490945D01*
X130064119Y-140490945D01*
X129773886Y-141383995D01*
X129761937Y-141428555D01*
X129752563Y-141483280D01*
X129749339Y-141483280D01*
X129740786Y-141435881D01*
X129725526Y-141382310D01*
X129428771Y-140490945D01*
X129222214Y-140490945D01*
G37*
G36*
X129110473Y-141623817D02*
G01*
X129110473Y-141445691D01*
X129050704Y-141485457D01*
X128988157Y-141513406D01*
X128922065Y-141530199D01*
X128851454Y-141535890D01*
X128774915Y-141529353D01*
X128713508Y-141511256D01*
X128664168Y-141482913D01*
X128625119Y-141443298D01*
X128602046Y-141396295D01*
X128594046Y-141339445D01*
X128601800Y-141281130D01*
X128623726Y-141234796D01*
X128660124Y-141197477D01*
X128714224Y-141168198D01*
X128791649Y-141148160D01*
X128899814Y-141140509D01*
X128990819Y-141140509D01*
X128990819Y-140988028D01*
X128903917Y-140988028D01*
X128809230Y-140980960D01*
X128740928Y-140962354D01*
X128692682Y-140934926D01*
X128659793Y-140899545D01*
X128639736Y-140855064D01*
X128632588Y-140798545D01*
X128638669Y-140744322D01*
X128655442Y-140702571D01*
X128682192Y-140670313D01*
X128720239Y-140646024D01*
X128772696Y-140629907D01*
X128844053Y-140623862D01*
X128919852Y-140633004D01*
X128993326Y-140660767D01*
X129066216Y-140709152D01*
X129066216Y-140539672D01*
X128983913Y-140502970D01*
X128890374Y-140480159D01*
X128783383Y-140472188D01*
X128705165Y-140477676D01*
X128638486Y-140493188D01*
X128581458Y-140517775D01*
X128532570Y-140551176D01*
X128490909Y-140593929D01*
X128461865Y-140641164D01*
X128444314Y-140693847D01*
X128438268Y-140753482D01*
X128445226Y-140828487D01*
X128464868Y-140890994D01*
X128496370Y-140943496D01*
X128540314Y-140987679D01*
X128598618Y-141024238D01*
X128674353Y-141052802D01*
X128674353Y-141056099D01*
X128592949Y-141072206D01*
X128526998Y-141101925D01*
X128473512Y-141144759D01*
X128432758Y-141199455D01*
X128408227Y-141262226D01*
X128399727Y-141335488D01*
X128407430Y-141411808D01*
X128429677Y-141478419D01*
X128466306Y-141537367D01*
X128518648Y-141589965D01*
X128580171Y-141630921D01*
X128651584Y-141661060D01*
X128734695Y-141680050D01*
X128831743Y-141686758D01*
X128946902Y-141678816D01*
X129038289Y-141657086D01*
X129110473Y-141623817D01*
G37*
G36*
X131129727Y-146700372D02*
G01*
X131129727Y-146499458D01*
X131100702Y-146522451D01*
X131065393Y-146543788D01*
X130986332Y-146576981D01*
X130902727Y-146597937D01*
X130825644Y-146605264D01*
X130744101Y-146599792D01*
X130684741Y-146585397D01*
X130642389Y-146564304D01*
X130609000Y-146532999D01*
X130589134Y-146494225D01*
X130582159Y-146445529D01*
X130587342Y-146405941D01*
X130602235Y-146373062D01*
X130625675Y-146344277D01*
X130658436Y-146316862D01*
X130743286Y-146268136D01*
X130847773Y-146219336D01*
X130959221Y-146154636D01*
X131008079Y-146119610D01*
X131048980Y-146082096D01*
X131083035Y-146039705D01*
X131108844Y-145992337D01*
X131124821Y-145939548D01*
X131130533Y-145875100D01*
X131126160Y-145820952D01*
X131113597Y-145773392D01*
X131093237Y-145731265D01*
X131050113Y-145675669D01*
X130994905Y-145630515D01*
X130930423Y-145596200D01*
X130855979Y-145571457D01*
X130777378Y-145557018D01*
X130696904Y-145552187D01*
X130573055Y-145558027D01*
X130486441Y-145573015D01*
X130428066Y-145594025D01*
X130428066Y-145786660D01*
X130479356Y-145756185D01*
X130538417Y-145733675D01*
X130606587Y-145719487D01*
X130685473Y-145714486D01*
X130771935Y-145722692D01*
X130813270Y-145733752D01*
X130849018Y-145749730D01*
X130880067Y-145771428D01*
X130904339Y-145798090D01*
X130920089Y-145830058D01*
X130925588Y-145869385D01*
X130921322Y-145906821D01*
X130909249Y-145937455D01*
X130889595Y-145964292D01*
X130861328Y-145989845D01*
X130784245Y-146036154D01*
X130678879Y-146084880D01*
X130562888Y-146152145D01*
X130511132Y-146189661D01*
X130466974Y-146230034D01*
X130429743Y-146275165D01*
X130401394Y-146324629D01*
X130383481Y-146379170D01*
X130377214Y-146443038D01*
X130381562Y-146501661D01*
X130393843Y-146551422D01*
X130413338Y-146593833D01*
X130455559Y-146649497D01*
X130510424Y-146693851D01*
X130575048Y-146726591D01*
X130651035Y-146749538D01*
X130731918Y-146762363D01*
X130819050Y-146766757D01*
X130891663Y-146762214D01*
X130979737Y-146749099D01*
X131065027Y-146728216D01*
X131102850Y-146714418D01*
X131129727Y-146700372D01*
G37*
G36*
X129961171Y-146748000D02*
G01*
X130162012Y-146748000D01*
X130162012Y-145570944D01*
X129961171Y-145570944D01*
X129961171Y-146748000D01*
G37*
G36*
X128755027Y-146666813D02*
G01*
X128848470Y-146710159D01*
X128947205Y-146741304D01*
X129052089Y-146760287D01*
X129164109Y-146766757D01*
X129268164Y-146759750D01*
X129360866Y-146739577D01*
X129443912Y-146707023D01*
X129518695Y-146662198D01*
X129586234Y-146604531D01*
X129643372Y-146536831D01*
X129687960Y-146461319D01*
X129720468Y-146376898D01*
X129740685Y-146282083D01*
X129747727Y-146175079D01*
X129740206Y-146066615D01*
X129718457Y-145969111D01*
X129683167Y-145880882D01*
X129634294Y-145800562D01*
X129571066Y-145727162D01*
X129497070Y-145664520D01*
X129416333Y-145616096D01*
X129327889Y-145581145D01*
X129230411Y-145559622D01*
X129122270Y-145552187D01*
X128992380Y-145559249D01*
X128883620Y-145578940D01*
X128792762Y-145609486D01*
X128792762Y-145810107D01*
X128862068Y-145771482D01*
X128938089Y-145743476D01*
X129021920Y-145726182D01*
X129114870Y-145720201D01*
X129206764Y-145728351D01*
X129287379Y-145751825D01*
X129358846Y-145790107D01*
X129422689Y-145843959D01*
X129474511Y-145909264D01*
X129511731Y-145983229D01*
X129534748Y-146067519D01*
X129542783Y-146164381D01*
X129535533Y-146265607D01*
X129515160Y-146350688D01*
X129483036Y-146422370D01*
X129439542Y-146482825D01*
X129384146Y-146532913D01*
X129320193Y-146568755D01*
X129245991Y-146590952D01*
X129159126Y-146598743D01*
X129079396Y-146593186D01*
X129009988Y-146577342D01*
X128949273Y-146551995D01*
X128949273Y-146274217D01*
X129196862Y-146274217D01*
X129196862Y-146110233D01*
X128755027Y-146110233D01*
X128755027Y-146666813D01*
G37*
D11*
%TO.C,G\u002A\u002A\u002A*%
G36*
X111833704Y-130374197D02*
G01*
X111833704Y-130782326D01*
X111633641Y-130782326D01*
X111433578Y-130782326D01*
X111433578Y-130374197D01*
X111433578Y-129966069D01*
X111633641Y-129966069D01*
X111833704Y-129966069D01*
X111833704Y-130374197D01*
G37*
G36*
X112449898Y-129549938D02*
G01*
X112649961Y-129549938D01*
X112649962Y-129758003D01*
X112649961Y-129966068D01*
X112449898Y-129966068D01*
X112249835Y-129966069D01*
X112249835Y-129758003D01*
X112249835Y-129549937D01*
X112449898Y-129549938D01*
G37*
G36*
X113466218Y-125252584D02*
G01*
X113466218Y-125868778D01*
X112858026Y-125868778D01*
X112249835Y-125868778D01*
X112249835Y-125252584D01*
X112249835Y-124636390D01*
X112858026Y-124636390D01*
X113466218Y-124636390D01*
X113466218Y-125252584D01*
G37*
G36*
X113466217Y-134247417D02*
G01*
X113466217Y-134863611D01*
X112858026Y-134863611D01*
X112249835Y-134863611D01*
X112249835Y-134247417D01*
X112249835Y-133631223D01*
X112858026Y-133631223D01*
X113466217Y-133631223D01*
X113466217Y-134247417D01*
G37*
G36*
X113466218Y-132206774D02*
G01*
X113466218Y-132414840D01*
X113058089Y-132414840D01*
X112649961Y-132414840D01*
X112649961Y-132206774D01*
X112649961Y-131998709D01*
X113058089Y-131998709D01*
X113466218Y-131998709D01*
X113466218Y-132206774D01*
G37*
G36*
X114298480Y-128117486D02*
G01*
X114298480Y-128317549D01*
X114090414Y-128317549D01*
X113882349Y-128317549D01*
X113882349Y-128117486D01*
X113882349Y-127917423D01*
X114090414Y-127917423D01*
X114298480Y-127917423D01*
X114298480Y-128117486D01*
G37*
G36*
X115114737Y-123820133D02*
G01*
X115114737Y-124028198D01*
X115114737Y-124236264D01*
X114906671Y-124236263D01*
X114698606Y-124236264D01*
X114698606Y-124028198D01*
X114698606Y-123820133D01*
X114906671Y-123820132D01*
X115114737Y-123820133D01*
G37*
G36*
X115114737Y-127909421D02*
G01*
X115114737Y-128317549D01*
X114906671Y-128317549D01*
X114698606Y-128317549D01*
X114698606Y-127909421D01*
X114698606Y-127501292D01*
X114906671Y-127501292D01*
X115114737Y-127501292D01*
X115114737Y-127909421D01*
G37*
G36*
X115514864Y-126893101D02*
G01*
X115514864Y-127101166D01*
X115314800Y-127101166D01*
X115114737Y-127101166D01*
X115114737Y-126893101D01*
X115114737Y-126685035D01*
X115314800Y-126685035D01*
X115514864Y-126685035D01*
X115514864Y-126893101D01*
G37*
G36*
X115514864Y-132206774D02*
G01*
X115514864Y-132414840D01*
X115314800Y-132414840D01*
X115114737Y-132414840D01*
X115114737Y-132206774D01*
X115114737Y-131998709D01*
X115314800Y-131998709D01*
X115514864Y-131998709D01*
X115514864Y-132206774D01*
G37*
G36*
X115930994Y-126484972D02*
G01*
X115930994Y-126685035D01*
X115722928Y-126685035D01*
X115514864Y-126685035D01*
X115514864Y-126484972D01*
X115514863Y-126284909D01*
X115722928Y-126284909D01*
X115930994Y-126284909D01*
X115930994Y-126484972D01*
G37*
G36*
X116331120Y-129758003D02*
G01*
X116331120Y-129966069D01*
X116131057Y-129966069D01*
X115930994Y-129966069D01*
X115930994Y-129758003D01*
X115930994Y-129549937D01*
X116131057Y-129549937D01*
X116331120Y-129549937D01*
X116331120Y-129758003D01*
G37*
G36*
X116331120Y-135479805D02*
G01*
X116331120Y-135679868D01*
X116131057Y-135679868D01*
X115930994Y-135679868D01*
X115930994Y-135479805D01*
X115930994Y-135279742D01*
X116131057Y-135279742D01*
X116331120Y-135279742D01*
X116331120Y-135479805D01*
G37*
G36*
X117147376Y-127917423D02*
G01*
X117147377Y-128117486D01*
X117147377Y-128317549D01*
X116947314Y-128317549D01*
X116747251Y-128317549D01*
X116747251Y-128117486D01*
X116747251Y-127917422D01*
X116947314Y-127917422D01*
X117147376Y-127917423D01*
G37*
G36*
X119196022Y-128933743D02*
G01*
X119196023Y-129133806D01*
X118787894Y-129133807D01*
X118379765Y-129133806D01*
X118379765Y-128933743D01*
X118379765Y-128733680D01*
X118787894Y-128733680D01*
X119196022Y-128733680D01*
X119196022Y-128933743D01*
G37*
G36*
X119612153Y-129758003D02*
G01*
X119612153Y-129966069D01*
X119404088Y-129966068D01*
X119196023Y-129966069D01*
X119196023Y-129758003D01*
X119196023Y-129549937D01*
X119404088Y-129549938D01*
X119612153Y-129549937D01*
X119612153Y-129758003D01*
G37*
G36*
X120828537Y-133023030D02*
G01*
X120828537Y-133231097D01*
X120628474Y-133231097D01*
X120428411Y-133231097D01*
X120428411Y-133023031D01*
X120428411Y-132814966D01*
X120628474Y-132814966D01*
X120828537Y-132814966D01*
X120828537Y-133023030D01*
G37*
G36*
X122461051Y-125252584D02*
G01*
X122461051Y-125868778D01*
X121852859Y-125868779D01*
X121244668Y-125868779D01*
X121244668Y-125252584D01*
X121244668Y-124636390D01*
X121852859Y-124636390D01*
X122461051Y-124636390D01*
X122461051Y-125252584D01*
G37*
G36*
X122877182Y-130574260D02*
G01*
X122877182Y-130782326D01*
X122669116Y-130782326D01*
X122461051Y-130782326D01*
X122461051Y-130574260D01*
X122461051Y-130366195D01*
X122669116Y-130366195D01*
X122877182Y-130366195D01*
X122877182Y-130574260D01*
G37*
G36*
X122877182Y-135479805D02*
G01*
X122877182Y-135679868D01*
X122669116Y-135679868D01*
X122461051Y-135679868D01*
X122461051Y-135479805D01*
X122461051Y-135279742D01*
X122669116Y-135279742D01*
X122877182Y-135279742D01*
X122877182Y-135479805D01*
G37*
G36*
X123277308Y-132614903D02*
G01*
X123277308Y-133231097D01*
X123077245Y-133231097D01*
X122877182Y-133231097D01*
X122877182Y-132614903D01*
X122877182Y-131998709D01*
X123077245Y-131998709D01*
X123277308Y-131998709D01*
X123277308Y-132614903D01*
G37*
G36*
X112649961Y-131798646D02*
G01*
X112649961Y-131998709D01*
X112241832Y-131998709D01*
X111833704Y-131998709D01*
X111833704Y-132206774D01*
X111833704Y-132414840D01*
X111633641Y-132414840D01*
X111433578Y-132414840D01*
X111433578Y-132006711D01*
X111433578Y-131598583D01*
X112041769Y-131598583D01*
X112649961Y-131598583D01*
X112649961Y-131798646D01*
G37*
G36*
X125522641Y-133998055D02*
G01*
X125549043Y-134011807D01*
X125562818Y-134035526D01*
X125566029Y-134079311D01*
X125564324Y-134113349D01*
X125553275Y-134143518D01*
X125527196Y-134161764D01*
X125478537Y-134172829D01*
X125430582Y-134161938D01*
X125394952Y-134132342D01*
X125378196Y-134089730D01*
X125386860Y-134039793D01*
X125415980Y-134004544D01*
X125464213Y-133988404D01*
X125522641Y-133998055D01*
G37*
G36*
X124701756Y-124900473D02*
G01*
X124701756Y-125052521D01*
X125125890Y-125052521D01*
X125550024Y-125052521D01*
X125550024Y-125124544D01*
X125550024Y-125196565D01*
X125125890Y-125196565D01*
X124701756Y-125196565D01*
X124701756Y-125340611D01*
X124701756Y-125484658D01*
X124637736Y-125484658D01*
X124573716Y-125484658D01*
X124573716Y-125116541D01*
X124573716Y-124748425D01*
X124637736Y-124748425D01*
X124701756Y-124748425D01*
X124701756Y-124900473D01*
G37*
G36*
X123277308Y-125252584D02*
G01*
X123277308Y-126685035D01*
X121852860Y-126685035D01*
X120428411Y-126685035D01*
X120428411Y-125252584D01*
X120428411Y-124236264D01*
X120828537Y-124236264D01*
X120828537Y-125260586D01*
X120828537Y-126284909D01*
X121852859Y-126284909D01*
X122877182Y-126284909D01*
X122877182Y-125260586D01*
X122877182Y-124236264D01*
X121852859Y-124236264D01*
X120828537Y-124236264D01*
X120428411Y-124236264D01*
X120428411Y-123820133D01*
X121852859Y-123820133D01*
X123277308Y-123820132D01*
X123277308Y-125252584D01*
G37*
G36*
X114298480Y-125252584D02*
G01*
X114298480Y-126685035D01*
X112866029Y-126685035D01*
X111433578Y-126685035D01*
X111433578Y-125252584D01*
X111433578Y-124236264D01*
X111833704Y-124236264D01*
X111833704Y-125260586D01*
X111833704Y-126284909D01*
X112858026Y-126284909D01*
X113882349Y-126284909D01*
X113882348Y-125260586D01*
X113882349Y-124236263D01*
X112858026Y-124236264D01*
X111833704Y-124236264D01*
X111433578Y-124236264D01*
X111433578Y-123820133D01*
X112858026Y-123820133D01*
X112866029Y-123820133D01*
X114298480Y-123820132D01*
X114298480Y-125252584D01*
G37*
G36*
X112858026Y-132814966D02*
G01*
X112866029Y-132814966D01*
X114298480Y-132814966D01*
X114298480Y-134247418D01*
X114298480Y-135679867D01*
X112866029Y-135679868D01*
X111433578Y-135679868D01*
X111433578Y-134247417D01*
X111433578Y-133231097D01*
X111833704Y-133231097D01*
X111833704Y-134255419D01*
X111833704Y-135279742D01*
X112858026Y-135279742D01*
X113882349Y-135279743D01*
X113882349Y-134255419D01*
X113882349Y-133231097D01*
X112858026Y-133231097D01*
X111833704Y-133231097D01*
X111433578Y-133231097D01*
X111433578Y-132814966D01*
X112858026Y-132814966D01*
G37*
G36*
X115114737Y-131390517D02*
G01*
X115114737Y-131598583D01*
X114906671Y-131598583D01*
X114698606Y-131598583D01*
X114698606Y-132006711D01*
X114698606Y-132414840D01*
X114290477Y-132414840D01*
X113882349Y-132414840D01*
X113882349Y-132206774D01*
X113882349Y-131998709D01*
X114090414Y-131998709D01*
X114298480Y-131998709D01*
X114298480Y-131798646D01*
X114298480Y-131598583D01*
X114090414Y-131598583D01*
X113882349Y-131598583D01*
X113882349Y-131390517D01*
X113882349Y-131182452D01*
X114498543Y-131182452D01*
X115114737Y-131182452D01*
X115114737Y-131390517D01*
G37*
G36*
X117963634Y-131590580D02*
G01*
X117963634Y-131998709D01*
X117555506Y-131998709D01*
X117147376Y-131998709D01*
X117147376Y-132206774D01*
X117147376Y-132414840D01*
X116947313Y-132414840D01*
X116747252Y-132414840D01*
X116747252Y-131798646D01*
X116747252Y-131182452D01*
X116947314Y-131182453D01*
X117147376Y-131182452D01*
X117147377Y-131390517D01*
X117147376Y-131598583D01*
X117355443Y-131598583D01*
X117563508Y-131598584D01*
X117563508Y-131390517D01*
X117563507Y-131182452D01*
X117763571Y-131182452D01*
X117963634Y-131182452D01*
X117963634Y-131590580D01*
G37*
G36*
X119196022Y-125668715D02*
G01*
X119196022Y-125868778D01*
X118995959Y-125868778D01*
X118795896Y-125868778D01*
X118795896Y-126076844D01*
X118795896Y-126284909D01*
X118587831Y-126284909D01*
X118379765Y-126284909D01*
X118379765Y-126484972D01*
X118379765Y-126685035D01*
X118171700Y-126685035D01*
X117963634Y-126685035D01*
X117963634Y-126484972D01*
X117963634Y-126284909D01*
X118171700Y-126284909D01*
X118379765Y-126284909D01*
X118379765Y-125876781D01*
X118379765Y-125468652D01*
X118787894Y-125468652D01*
X119196022Y-125468652D01*
X119196022Y-125668715D01*
G37*
G36*
X123277309Y-134247417D02*
G01*
X123277309Y-134863611D01*
X122869179Y-134863611D01*
X122461051Y-134863611D01*
X122461051Y-135071677D01*
X122461051Y-135279742D01*
X122260988Y-135279742D01*
X122060925Y-135279742D01*
X122060925Y-134863611D01*
X122060925Y-134447480D01*
X122260988Y-134447480D01*
X122461051Y-134447480D01*
X122461051Y-134247417D01*
X122461051Y-134047354D01*
X122669116Y-134047354D01*
X122877182Y-134047354D01*
X122877182Y-133839288D01*
X122877182Y-133631223D01*
X123077245Y-133631223D01*
X123277309Y-133631223D01*
X123277309Y-134247417D01*
G37*
G36*
X124830845Y-134402771D02*
G01*
X124844940Y-134413178D01*
X124861653Y-134428439D01*
X124865777Y-134444482D01*
X124855493Y-134467388D01*
X124828986Y-134503239D01*
X124784438Y-134558115D01*
X124731077Y-134623535D01*
X125140550Y-134623535D01*
X125550024Y-134623535D01*
X125550024Y-134687556D01*
X125550024Y-134751576D01*
X125061870Y-134751576D01*
X124573716Y-134751576D01*
X124573716Y-134694446D01*
X124573922Y-134686651D01*
X124580062Y-134654274D01*
X124597292Y-134617022D01*
X124629063Y-134568597D01*
X124678828Y-134502704D01*
X124783941Y-134368093D01*
X124830845Y-134402771D01*
G37*
G36*
X117963634Y-133023031D02*
G01*
X117963634Y-133231097D01*
X118379765Y-133231097D01*
X118795896Y-133231097D01*
X118795896Y-133431160D01*
X118795896Y-133631223D01*
X118587831Y-133631223D01*
X118379765Y-133631223D01*
X118379765Y-133839288D01*
X118379765Y-134047354D01*
X117971637Y-134047354D01*
X117563508Y-134047354D01*
X117563508Y-134455483D01*
X117563508Y-134863611D01*
X117763571Y-134863611D01*
X117963634Y-134863611D01*
X117963634Y-135271740D01*
X117963634Y-135679868D01*
X117555507Y-135679868D01*
X117147377Y-135679868D01*
X117147377Y-135479805D01*
X117147377Y-135279742D01*
X116947314Y-135279742D01*
X116747251Y-135279742D01*
X116747251Y-135071677D01*
X116747251Y-134863611D01*
X116947314Y-134863611D01*
X117147377Y-134863611D01*
X117147377Y-134655546D01*
X117147377Y-134447480D01*
X116947314Y-134447480D01*
X116747251Y-134447480D01*
X116747251Y-134247417D01*
X116747251Y-134047354D01*
X117155380Y-134047354D01*
X117563508Y-134047354D01*
X117563508Y-133431160D01*
X117563508Y-132814966D01*
X117763571Y-132814966D01*
X117963634Y-132814966D01*
X117963634Y-133023031D01*
G37*
G36*
X124836458Y-132436195D02*
G01*
X124877725Y-132451213D01*
X124939338Y-132474116D01*
X125016504Y-132503123D01*
X125104431Y-132536453D01*
X125183666Y-132566588D01*
X125275590Y-132601513D01*
X125357768Y-132632699D01*
X125423478Y-132657593D01*
X125465997Y-132673645D01*
X125550024Y-132705230D01*
X125550024Y-132781731D01*
X125550024Y-132858231D01*
X125201914Y-132990879D01*
X125144110Y-133012903D01*
X125049071Y-133049107D01*
X124966045Y-133080722D01*
X124899508Y-133106046D01*
X124853935Y-133123376D01*
X124833798Y-133131009D01*
X124826593Y-133131344D01*
X124816831Y-133113088D01*
X124813792Y-133066468D01*
X124813792Y-132994443D01*
X125009853Y-132922722D01*
X125091671Y-132893150D01*
X125174382Y-132863905D01*
X125246351Y-132839085D01*
X125297944Y-132822056D01*
X125339731Y-132807919D01*
X125376004Y-132793218D01*
X125389955Y-132784034D01*
X125384268Y-132779599D01*
X125354441Y-132765985D01*
X125304814Y-132746648D01*
X125241909Y-132724227D01*
X125224126Y-132718114D01*
X125133730Y-132686659D01*
X125037627Y-132652731D01*
X124953836Y-132622681D01*
X124813791Y-132571863D01*
X124813792Y-132501354D01*
X124814065Y-132481244D01*
X124816399Y-132445146D01*
X124820342Y-132430845D01*
X124836458Y-132436195D01*
G37*
G36*
X125550024Y-126427244D02*
G01*
X125550024Y-126489554D01*
X125305947Y-126495887D01*
X125238460Y-126498116D01*
X125137791Y-126504380D01*
X125062633Y-126514261D01*
X125008838Y-126528677D01*
X124972256Y-126548541D01*
X124948738Y-126574774D01*
X124945453Y-126580540D01*
X124927921Y-126634565D01*
X124921623Y-126699785D01*
X124928440Y-126759124D01*
X124937688Y-126785246D01*
X124956605Y-126813163D01*
X124986652Y-126833452D01*
X125031994Y-126847252D01*
X125096795Y-126855699D01*
X125185220Y-126859932D01*
X125301431Y-126861091D01*
X125550024Y-126861090D01*
X125550024Y-126925110D01*
X125550024Y-126989131D01*
X125269421Y-126989131D01*
X125267468Y-126989131D01*
X125147819Y-126988155D01*
X125055553Y-126984569D01*
X124986146Y-126977319D01*
X124935073Y-126965351D01*
X124897809Y-126947609D01*
X124869830Y-126923037D01*
X124846611Y-126890584D01*
X124838535Y-126876302D01*
X124809465Y-126791684D01*
X124803851Y-126700351D01*
X124821280Y-126612223D01*
X124861337Y-126537220D01*
X124881769Y-126503325D01*
X124876400Y-126483239D01*
X124843134Y-126476970D01*
X124832183Y-126475616D01*
X124817713Y-126460085D01*
X124813792Y-126420953D01*
X124813792Y-126364934D01*
X125181908Y-126364934D01*
X125550024Y-126364933D01*
X125550024Y-126427244D01*
G37*
G36*
X125550024Y-127965439D02*
G01*
X125550024Y-128029459D01*
X125550024Y-128093479D01*
X125329954Y-128094709D01*
X125315055Y-128094833D01*
X125228778Y-128097096D01*
X125149989Y-128101556D01*
X125086860Y-128107634D01*
X125047566Y-128114750D01*
X125033627Y-128119407D01*
X124972049Y-128156527D01*
X124934988Y-128213895D01*
X124921864Y-128292333D01*
X124923400Y-128334579D01*
X124935384Y-128375077D01*
X124963621Y-128410663D01*
X124965347Y-128412391D01*
X124981611Y-128427598D01*
X124998691Y-128438624D01*
X125021786Y-128446266D01*
X125056093Y-128451321D01*
X125106811Y-128454587D01*
X125179137Y-128456862D01*
X125278270Y-128458942D01*
X125550024Y-128464292D01*
X125550025Y-128526964D01*
X125550024Y-128589636D01*
X125273937Y-128589283D01*
X125179967Y-128588379D01*
X125068852Y-128583506D01*
X124983260Y-128572844D01*
X124919431Y-128554642D01*
X124873607Y-128527144D01*
X124842030Y-128488602D01*
X124820940Y-128437261D01*
X124806580Y-128371368D01*
X124805090Y-128289570D01*
X124824577Y-128206223D01*
X124861861Y-128137058D01*
X124874831Y-128120134D01*
X124891007Y-128092574D01*
X124884259Y-128080284D01*
X124853804Y-128077474D01*
X124830234Y-128074847D01*
X124816781Y-128059338D01*
X124813792Y-128021456D01*
X124813792Y-127965438D01*
X125181908Y-127965438D01*
X125550024Y-127965439D01*
G37*
G36*
X125326885Y-131411989D02*
G01*
X125410664Y-131447012D01*
X125483168Y-131506216D01*
X125535501Y-131588927D01*
X125538698Y-131596422D01*
X125556980Y-131667673D01*
X125564241Y-131754863D01*
X125560148Y-131845400D01*
X125544370Y-131926686D01*
X125541915Y-131934736D01*
X125526566Y-131972144D01*
X125504785Y-131989246D01*
X125465575Y-131995674D01*
X125443381Y-131997357D01*
X125418351Y-131995640D01*
X125409322Y-131982467D01*
X125414018Y-131951433D01*
X125430159Y-131896134D01*
X125437684Y-131869137D01*
X125452376Y-131767906D01*
X125442169Y-131682222D01*
X125408011Y-131614214D01*
X125350848Y-131566010D01*
X125271628Y-131539739D01*
X125213918Y-131530374D01*
X125213918Y-131780547D01*
X125213918Y-132030719D01*
X125152803Y-132030719D01*
X125112218Y-132028674D01*
X125020972Y-132009926D01*
X124940251Y-131974733D01*
X124880191Y-131926951D01*
X124871117Y-131916174D01*
X124822183Y-131832676D01*
X124801351Y-131743007D01*
X124804943Y-131690329D01*
X124918460Y-131690329D01*
X124918941Y-131749788D01*
X124942241Y-131805146D01*
X124988504Y-131850434D01*
X125057868Y-131879684D01*
X125101882Y-131890144D01*
X125101882Y-131711275D01*
X125101791Y-131649722D01*
X125100818Y-131593046D01*
X125097851Y-131559218D01*
X125091780Y-131543039D01*
X125081490Y-131539303D01*
X125065871Y-131542806D01*
X125052515Y-131547036D01*
X124985388Y-131582984D01*
X124940656Y-131632738D01*
X124918460Y-131690329D01*
X124804943Y-131690329D01*
X124807496Y-131652894D01*
X124839491Y-131568064D01*
X124896208Y-131494245D01*
X124976520Y-131437167D01*
X125032418Y-131415313D01*
X125081489Y-131405991D01*
X125128905Y-131396982D01*
X125231425Y-131395562D01*
X125326885Y-131411989D01*
G37*
G36*
X125072279Y-133191665D02*
G01*
X125107082Y-133193496D01*
X125218371Y-133199350D01*
X125337181Y-133221722D01*
X125430069Y-133259321D01*
X125498395Y-133312684D01*
X125543516Y-133382351D01*
X125554136Y-133414558D01*
X125564172Y-133489814D01*
X125560731Y-133569497D01*
X125543796Y-133637446D01*
X125540559Y-133644924D01*
X125499132Y-133710721D01*
X125439124Y-133761211D01*
X125357563Y-133797771D01*
X125251475Y-133821775D01*
X125117888Y-133834601D01*
X125053435Y-133836545D01*
X124905817Y-133827815D01*
X124782347Y-133799257D01*
X124682196Y-133750709D01*
X124644197Y-133719860D01*
X124594478Y-133651252D01*
X124567348Y-133570750D01*
X124562781Y-133485225D01*
X124564191Y-133478657D01*
X124681792Y-133478657D01*
X124682152Y-133541087D01*
X124707151Y-133599751D01*
X124757054Y-133646783D01*
X124763700Y-133650706D01*
X124832414Y-133677994D01*
X124918920Y-133695238D01*
X125016224Y-133702829D01*
X125117330Y-133701160D01*
X125215249Y-133690621D01*
X125302982Y-133671604D01*
X125373538Y-133644499D01*
X125419922Y-133609699D01*
X125427581Y-133598512D01*
X125444430Y-133548075D01*
X125447214Y-133489708D01*
X125434505Y-133440039D01*
X125433141Y-133437576D01*
X125403453Y-133402213D01*
X125362732Y-133371013D01*
X125351756Y-133365279D01*
X125288195Y-133344958D01*
X125203807Y-133331376D01*
X125107082Y-133324596D01*
X125006510Y-133324676D01*
X124910581Y-133331682D01*
X124827786Y-133345671D01*
X124766614Y-133366707D01*
X124753912Y-133373962D01*
X124705801Y-133420326D01*
X124681792Y-133478657D01*
X124564191Y-133478657D01*
X124580746Y-133401545D01*
X124621218Y-133326582D01*
X124684168Y-133267203D01*
X124725720Y-133242774D01*
X124785847Y-133218622D01*
X124857410Y-133202952D01*
X124947167Y-133194416D01*
X125061870Y-133191660D01*
X125072279Y-133191665D01*
G37*
G36*
X125465997Y-130737347D02*
G01*
X125502571Y-130743001D01*
X125527808Y-130760214D01*
X125545119Y-130798331D01*
X125547758Y-130806434D01*
X125564132Y-130891944D01*
X125565389Y-130985433D01*
X125552769Y-131077319D01*
X125527511Y-131158019D01*
X125490854Y-131217945D01*
X125471216Y-131234814D01*
X125414487Y-131260471D01*
X125347924Y-131270586D01*
X125285169Y-131262222D01*
X125256061Y-131249847D01*
X125221724Y-131223946D01*
X125189840Y-131182822D01*
X125156621Y-131121301D01*
X125118280Y-131034208D01*
X125103335Y-130999547D01*
X125066882Y-130929060D01*
X125033286Y-130887562D01*
X125000681Y-130873197D01*
X124967200Y-130884111D01*
X124949965Y-130899839D01*
X124925668Y-130950249D01*
X124917429Y-131019125D01*
X124925603Y-131100033D01*
X124950545Y-131186534D01*
X124953076Y-131196825D01*
X124943480Y-131217431D01*
X124907550Y-131237231D01*
X124853804Y-131259909D01*
X124831538Y-131201174D01*
X124827412Y-131189027D01*
X124814580Y-131125441D01*
X124808763Y-131049194D01*
X124809915Y-130971267D01*
X124817991Y-130902645D01*
X124832948Y-130854311D01*
X124833143Y-130853945D01*
X124876778Y-130791036D01*
X124928477Y-130755770D01*
X124994529Y-130743848D01*
X125001575Y-130743760D01*
X125063254Y-130751626D01*
X125112731Y-130778394D01*
X125155357Y-130828354D01*
X125196480Y-130905800D01*
X125219630Y-130956528D01*
X125252287Y-131026464D01*
X125276633Y-131074147D01*
X125295744Y-131104028D01*
X125312696Y-131120554D01*
X125330563Y-131128173D01*
X125352424Y-131131335D01*
X125354295Y-131131508D01*
X125398034Y-131126927D01*
X125428448Y-131099765D01*
X125431931Y-131094258D01*
X125448203Y-131043809D01*
X125453344Y-130975797D01*
X125447292Y-130901035D01*
X125429986Y-130830341D01*
X125424282Y-130814039D01*
X125410392Y-130768149D01*
X125411101Y-130744237D01*
X125428829Y-130736053D01*
X125465997Y-130737347D01*
G37*
G36*
X125445329Y-125572209D02*
G01*
X125507067Y-125614247D01*
X125548166Y-125677047D01*
X125561324Y-125723936D01*
X125566422Y-125801370D01*
X125555937Y-125879364D01*
X125531580Y-125947646D01*
X125495061Y-125995943D01*
X125473422Y-126020158D01*
X125476938Y-126038370D01*
X125510011Y-126044833D01*
X125533581Y-126047459D01*
X125547034Y-126062969D01*
X125550025Y-126100851D01*
X125550024Y-126156869D01*
X125269421Y-126156869D01*
X125176999Y-126156268D01*
X125069172Y-126152561D01*
X124986588Y-126144083D01*
X124925303Y-126129260D01*
X124881373Y-126106513D01*
X124850855Y-126074270D01*
X124829804Y-126030952D01*
X124814279Y-125974984D01*
X124812915Y-125968415D01*
X124807083Y-125895265D01*
X124812636Y-125811137D01*
X124827888Y-125730152D01*
X124851151Y-125666428D01*
X124865672Y-125644580D01*
X124884776Y-125640006D01*
X124919879Y-125652379D01*
X124969948Y-125673535D01*
X124938672Y-125766179D01*
X124925040Y-125813534D01*
X124916493Y-125895027D01*
X124933148Y-125957416D01*
X124974835Y-126000280D01*
X125041388Y-126023200D01*
X125096900Y-126032209D01*
X125102060Y-125971170D01*
X125198010Y-125971170D01*
X125198922Y-126006220D01*
X125209968Y-126023184D01*
X125232929Y-126027190D01*
X125269586Y-126023356D01*
X125273965Y-126022741D01*
X125343509Y-126006459D01*
X125391720Y-125977930D01*
X125428121Y-125931645D01*
X125434617Y-125919749D01*
X125454068Y-125856872D01*
X125452340Y-125795662D01*
X125431899Y-125743186D01*
X125395213Y-125706517D01*
X125344748Y-125692722D01*
X125320296Y-125695517D01*
X125272119Y-125722993D01*
X125236269Y-125778936D01*
X125213580Y-125862265D01*
X125205450Y-125912916D01*
X125198010Y-125971170D01*
X125102060Y-125971170D01*
X125107362Y-125908442D01*
X125122197Y-125794161D01*
X125148301Y-125697638D01*
X125186003Y-125627547D01*
X125236509Y-125581700D01*
X125301031Y-125557908D01*
X125344748Y-125555240D01*
X125368838Y-125553771D01*
X125445329Y-125572209D01*
G37*
G36*
X125210366Y-127173204D02*
G01*
X125279657Y-127174087D01*
X125327269Y-127177601D01*
X125361659Y-127185494D01*
X125391293Y-127199516D01*
X125424630Y-127221418D01*
X125431928Y-127226695D01*
X125487952Y-127279905D01*
X125530017Y-127340845D01*
X125538055Y-127358976D01*
X125557777Y-127434977D01*
X125565893Y-127524536D01*
X125561855Y-127614909D01*
X125545119Y-127693353D01*
X125530873Y-127726867D01*
X125507855Y-127746848D01*
X125465997Y-127754337D01*
X125455008Y-127755163D01*
X125420126Y-127756360D01*
X125406151Y-127754338D01*
X125407884Y-127747015D01*
X125416599Y-127716284D01*
X125430159Y-127670803D01*
X125439053Y-127637790D01*
X125450980Y-127538140D01*
X125438247Y-127451761D01*
X125402237Y-127381753D01*
X125344338Y-127331217D01*
X125265934Y-127303254D01*
X125213918Y-127294027D01*
X125213918Y-127541705D01*
X125213918Y-127789383D01*
X125122941Y-127789383D01*
X125114375Y-127789309D01*
X125010331Y-127774693D01*
X124925443Y-127736095D01*
X124861843Y-127675493D01*
X124821665Y-127594867D01*
X124807040Y-127496198D01*
X124807422Y-127487360D01*
X124917421Y-127487360D01*
X124929245Y-127546027D01*
X124959581Y-127596555D01*
X125006752Y-127631981D01*
X125069078Y-127645338D01*
X125073953Y-127645229D01*
X125086960Y-127641630D01*
X125095149Y-127628708D01*
X125099628Y-127600791D01*
X125101503Y-127552206D01*
X125101882Y-127477285D01*
X125101261Y-127410197D01*
X125097288Y-127350948D01*
X125087333Y-127317674D01*
X125068788Y-127307009D01*
X125039045Y-127315593D01*
X124995498Y-127340063D01*
X124956030Y-127373480D01*
X124925790Y-127427523D01*
X124917421Y-127487360D01*
X124807422Y-127487360D01*
X124809500Y-127439236D01*
X124831190Y-127350954D01*
X124877225Y-127279870D01*
X124950093Y-127221204D01*
X124955258Y-127218011D01*
X124991639Y-127197172D01*
X125024580Y-127184035D01*
X125062940Y-127176833D01*
X125068788Y-127176497D01*
X125115582Y-127173806D01*
X125191367Y-127173189D01*
X125210366Y-127173204D01*
G37*
G36*
X124845802Y-129165816D02*
G01*
X125061497Y-129165816D01*
X125271435Y-129165816D01*
X125552835Y-129165816D01*
X125547429Y-129419116D01*
X125546124Y-129477373D01*
X125543690Y-129557745D01*
X125540307Y-129615383D01*
X125535083Y-129656193D01*
X125527124Y-129686081D01*
X125515539Y-129710954D01*
X125499435Y-129736715D01*
X125463552Y-129779719D01*
X125398616Y-129825450D01*
X125324979Y-129850384D01*
X125249192Y-129854456D01*
X125177808Y-129837602D01*
X125117377Y-129799759D01*
X125074452Y-129740861D01*
X125057522Y-129705934D01*
X125041287Y-129683147D01*
X125028271Y-129686422D01*
X125013650Y-129713596D01*
X124989135Y-129751123D01*
X124934486Y-129792221D01*
X124864338Y-129815266D01*
X124786450Y-129818098D01*
X124708584Y-129798556D01*
X124670066Y-129776706D01*
X124636257Y-129740362D01*
X124611285Y-129687801D01*
X124593877Y-129615131D01*
X124582763Y-129518457D01*
X124576676Y-129393888D01*
X124573816Y-129293857D01*
X124701756Y-129293857D01*
X124701756Y-129430694D01*
X124701760Y-129433893D01*
X124706192Y-129530914D01*
X124720327Y-129600402D01*
X124746087Y-129645787D01*
X124785391Y-129670502D01*
X124840161Y-129677978D01*
X124877196Y-129673799D01*
X124930208Y-129645274D01*
X124967195Y-129589176D01*
X124978325Y-129547541D01*
X124986687Y-129484389D01*
X124989847Y-129414409D01*
X124989847Y-129293857D01*
X125101882Y-129293857D01*
X125101882Y-129422411D01*
X125104712Y-129494145D01*
X125112626Y-129559410D01*
X125124199Y-129604377D01*
X125144325Y-129641738D01*
X125192777Y-129688964D01*
X125251826Y-129709232D01*
X125315472Y-129701146D01*
X125377717Y-129663312D01*
X125388721Y-129653379D01*
X125408735Y-129632497D01*
X125421325Y-129609784D01*
X125428585Y-129577698D01*
X125432607Y-129528699D01*
X125435487Y-129455246D01*
X125440988Y-129293857D01*
X125271435Y-129293857D01*
X125101882Y-129293857D01*
X124989847Y-129293857D01*
X124845802Y-129293857D01*
X124701756Y-129293857D01*
X124573816Y-129293857D01*
X124570156Y-129165816D01*
X124845802Y-129165816D01*
G37*
G36*
X125352718Y-129982178D02*
G01*
X125369284Y-129984692D01*
X125438392Y-129995180D01*
X125502377Y-130029184D01*
X125542603Y-130083141D01*
X125545797Y-130091098D01*
X125560143Y-130152873D01*
X125564605Y-130225222D01*
X125559129Y-130294490D01*
X125543660Y-130347021D01*
X125520675Y-130382712D01*
X125485876Y-130422251D01*
X125450461Y-130454222D01*
X125496241Y-130462295D01*
X125516442Y-130467229D01*
X125538494Y-130485004D01*
X125547109Y-130523275D01*
X125552195Y-130576183D01*
X125239281Y-130571220D01*
X124926368Y-130566258D01*
X124876389Y-130516242D01*
X124850598Y-130484138D01*
X124817799Y-130407921D01*
X124805492Y-130315581D01*
X124814137Y-130213014D01*
X124844198Y-130106113D01*
X124847485Y-130097793D01*
X124864193Y-130069968D01*
X124888374Y-130064156D01*
X124930447Y-130076818D01*
X124969160Y-130091536D01*
X124937099Y-130189324D01*
X124928401Y-130216773D01*
X124915839Y-130268019D01*
X124914498Y-130307594D01*
X124923287Y-130348024D01*
X124946035Y-130394555D01*
X124993795Y-130433045D01*
X125060415Y-130446220D01*
X125070771Y-130445787D01*
X125085936Y-130439829D01*
X125095581Y-130421617D01*
X125097669Y-130410021D01*
X125198368Y-130410021D01*
X125204555Y-130433799D01*
X125220221Y-130444032D01*
X125246443Y-130446220D01*
X125257534Y-130445934D01*
X125328299Y-130431252D01*
X125388923Y-130398223D01*
X125428923Y-130352245D01*
X125451899Y-130286868D01*
X125454357Y-130224953D01*
X125439081Y-130172376D01*
X125409562Y-130133670D01*
X125369284Y-130113369D01*
X125321736Y-130116010D01*
X125270405Y-130146125D01*
X125250548Y-130167532D01*
X125228645Y-130211750D01*
X125213588Y-130278167D01*
X125210130Y-130299820D01*
X125200585Y-130367195D01*
X125198368Y-130410021D01*
X125097669Y-130410021D01*
X125102249Y-130384588D01*
X125108480Y-130322181D01*
X125113264Y-130274192D01*
X125126799Y-130185335D01*
X125145837Y-130119175D01*
X125172581Y-130069305D01*
X125209236Y-130029320D01*
X125244898Y-130002171D01*
X125286604Y-129986135D01*
X125343310Y-129982074D01*
X125352718Y-129982178D01*
G37*
G36*
X116747251Y-130774323D02*
G01*
X116747252Y-131182452D01*
X116539185Y-131182452D01*
X116331120Y-131182453D01*
X116331120Y-131798647D01*
X116331120Y-132414839D01*
X116539185Y-132414840D01*
X116747252Y-132414840D01*
X116747251Y-132614902D01*
X116747251Y-132814966D01*
X116539186Y-132814966D01*
X116331120Y-132814966D01*
X116331120Y-133023030D01*
X116331120Y-133231097D01*
X116539186Y-133231097D01*
X116747251Y-133231097D01*
X116747251Y-133639224D01*
X116747251Y-134047354D01*
X116539186Y-134047354D01*
X116331120Y-134047354D01*
X116331120Y-134247417D01*
X116331120Y-134447480D01*
X116131057Y-134447480D01*
X115930994Y-134447480D01*
X115930994Y-134655546D01*
X115930994Y-134863611D01*
X115722928Y-134863611D01*
X115514863Y-134863611D01*
X115514863Y-135071677D01*
X115514863Y-135279742D01*
X115314800Y-135279742D01*
X115114737Y-135279742D01*
X115114737Y-135071677D01*
X115114737Y-134863611D01*
X115314800Y-134863611D01*
X115514863Y-134863611D01*
X115514863Y-134655546D01*
X115514863Y-134447480D01*
X115314800Y-134447480D01*
X115114737Y-134447480D01*
X115114737Y-134655546D01*
X115114737Y-134863611D01*
X114906670Y-134863611D01*
X114698606Y-134863611D01*
X114698606Y-133839288D01*
X114698606Y-132814966D01*
X114906671Y-132814966D01*
X115114737Y-132814966D01*
X115114737Y-133223094D01*
X115114737Y-133631223D01*
X115314800Y-133631223D01*
X115514863Y-133631223D01*
X115514863Y-133839288D01*
X115514863Y-134047354D01*
X115722928Y-134047354D01*
X115930994Y-134047354D01*
X115930994Y-133839288D01*
X115930994Y-133631223D01*
X115722928Y-133631223D01*
X115514863Y-133631223D01*
X115514863Y-133431160D01*
X115514863Y-133231097D01*
X115722928Y-133231097D01*
X115930994Y-133231097D01*
X115930994Y-132206774D01*
X115930994Y-131182452D01*
X115722928Y-131182452D01*
X115514864Y-131182452D01*
X115514863Y-130982390D01*
X115514863Y-130782326D01*
X115722928Y-130782326D01*
X115930994Y-130782326D01*
X115930994Y-130574260D01*
X115930994Y-130366195D01*
X116339123Y-130366195D01*
X116747251Y-130366195D01*
X116747251Y-130774323D01*
G37*
G36*
X114698606Y-127301229D02*
G01*
X114698606Y-127501292D01*
X114082412Y-127501292D01*
X113466218Y-127501292D01*
X113466218Y-127909422D01*
X113466218Y-128317549D01*
X113674283Y-128317549D01*
X113882349Y-128317549D01*
X113882349Y-128525616D01*
X113882349Y-128733680D01*
X114090414Y-128733680D01*
X114298480Y-128733680D01*
X114298480Y-128525616D01*
X114298480Y-128317549D01*
X114498543Y-128317549D01*
X114698606Y-128317549D01*
X114698606Y-128933743D01*
X114698606Y-129549937D01*
X114498542Y-129549937D01*
X114298480Y-129549938D01*
X114298480Y-129341871D01*
X114298480Y-129133807D01*
X114090415Y-129133806D01*
X113882348Y-129133806D01*
X113882348Y-129341872D01*
X113882349Y-129549938D01*
X114090414Y-129549938D01*
X114298480Y-129549938D01*
X114298479Y-129758003D01*
X114298480Y-129966068D01*
X114090414Y-129966068D01*
X113882349Y-129966068D01*
X113882349Y-130166132D01*
X113882349Y-130366195D01*
X114090414Y-130366195D01*
X114298480Y-130366195D01*
X114298480Y-130166132D01*
X114298480Y-129966068D01*
X114498542Y-129966069D01*
X114698606Y-129966069D01*
X114698606Y-129758003D01*
X114698606Y-129549937D01*
X114906671Y-129549938D01*
X115114737Y-129549937D01*
X115114737Y-129758003D01*
X115114737Y-129966069D01*
X115314800Y-129966069D01*
X115514863Y-129966069D01*
X115514863Y-130374197D01*
X115514863Y-130782326D01*
X115314800Y-130782326D01*
X115114737Y-130782326D01*
X115114737Y-130574260D01*
X115114737Y-130366195D01*
X114706608Y-130366195D01*
X114298480Y-130366195D01*
X114298480Y-130574259D01*
X114298480Y-130782326D01*
X114090414Y-130782326D01*
X113882349Y-130782326D01*
X113882349Y-130982389D01*
X113882349Y-131182452D01*
X113674283Y-131182452D01*
X113466218Y-131182452D01*
X113466218Y-131390517D01*
X113466218Y-131598583D01*
X113266155Y-131598583D01*
X113066092Y-131598583D01*
X113066092Y-131390517D01*
X113066092Y-131182452D01*
X113266155Y-131182452D01*
X113466218Y-131182452D01*
X113466218Y-130774323D01*
X113466218Y-130366195D01*
X113266155Y-130366195D01*
X113066092Y-130366195D01*
X113066092Y-130574259D01*
X113066092Y-130782326D01*
X112657963Y-130782326D01*
X112249835Y-130782326D01*
X112249835Y-130982389D01*
X112249835Y-131182452D01*
X112041769Y-131182452D01*
X111833704Y-131182452D01*
X111833704Y-130982389D01*
X111833704Y-130782326D01*
X112041769Y-130782326D01*
X112249835Y-130782326D01*
X112249835Y-130574260D01*
X112249835Y-130366195D01*
X112657963Y-130366195D01*
X113066092Y-130366195D01*
X113066092Y-129549938D01*
X113066092Y-128733680D01*
X112858026Y-128733680D01*
X112649961Y-128733680D01*
X112649961Y-128933743D01*
X112649961Y-129133807D01*
X112041769Y-129133806D01*
X111433578Y-129133806D01*
X111433578Y-128525615D01*
X111433578Y-127917423D01*
X111633641Y-127917423D01*
X111833704Y-127917423D01*
X111833704Y-127709358D01*
X111833704Y-127501292D01*
X112041769Y-127501292D01*
X112249835Y-127501292D01*
X112249835Y-127709358D01*
X112249835Y-127917423D01*
X112041769Y-127917423D01*
X111833704Y-127917423D01*
X111833704Y-128117486D01*
X111833704Y-128317549D01*
X112449898Y-128317549D01*
X113066092Y-128317549D01*
X113066092Y-128117486D01*
X113066092Y-127917423D01*
X112858026Y-127917423D01*
X112649961Y-127917423D01*
X112649961Y-127709358D01*
X112649961Y-127501292D01*
X112449898Y-127501292D01*
X112249835Y-127501292D01*
X112249835Y-127301229D01*
X112249835Y-127101166D01*
X113474220Y-127101166D01*
X114698606Y-127101166D01*
X114698606Y-127301229D01*
G37*
G36*
X122461051Y-127301229D02*
G01*
X122461051Y-127501292D01*
X122669116Y-127501292D01*
X122877182Y-127501292D01*
X122877182Y-127301229D01*
X122877182Y-127101166D01*
X123077245Y-127101166D01*
X123277308Y-127101166D01*
X123277308Y-127301229D01*
X123277308Y-127501292D01*
X123077245Y-127501292D01*
X122877182Y-127501292D01*
X122877182Y-127909421D01*
X122877182Y-128317549D01*
X123077245Y-128317549D01*
X123277308Y-128317549D01*
X123277309Y-128525615D01*
X123277308Y-128733680D01*
X123077245Y-128733680D01*
X122877182Y-128733680D01*
X122877182Y-128933743D01*
X122877182Y-129133806D01*
X123077245Y-129133806D01*
X123277309Y-129133806D01*
X123277309Y-129549937D01*
X123277309Y-129966069D01*
X122869179Y-129966069D01*
X122461051Y-129966069D01*
X122461051Y-129549937D01*
X122461051Y-129133806D01*
X122260988Y-129133806D01*
X122060925Y-129133806D01*
X122060925Y-129341872D01*
X122060925Y-129549937D01*
X121852859Y-129549937D01*
X121644794Y-129549937D01*
X121644794Y-129758003D01*
X121644794Y-129966069D01*
X121852859Y-129966069D01*
X122060925Y-129966069D01*
X122060925Y-130374197D01*
X122060925Y-130782326D01*
X121852859Y-130782326D01*
X121644794Y-130782326D01*
X121644794Y-130982390D01*
X121644793Y-131182452D01*
X121444731Y-131182453D01*
X121244669Y-131182452D01*
X121244668Y-131390517D01*
X121244669Y-131598583D01*
X121444731Y-131598584D01*
X121644794Y-131598584D01*
X121644793Y-131798646D01*
X121644794Y-131998708D01*
X121852859Y-131998708D01*
X122060925Y-131998708D01*
X122060925Y-131590581D01*
X122060925Y-131182453D01*
X122669115Y-131182452D01*
X123277308Y-131182452D01*
X123277308Y-131390517D01*
X123277308Y-131598583D01*
X123077245Y-131598583D01*
X122877182Y-131598583D01*
X122877182Y-131798646D01*
X122877182Y-131998709D01*
X122469053Y-131998708D01*
X122060925Y-131998708D01*
X122060925Y-132206775D01*
X122060925Y-132414839D01*
X121852860Y-132414840D01*
X121644793Y-132414840D01*
X121644794Y-132614902D01*
X121644794Y-132814966D01*
X121852859Y-132814966D01*
X122060925Y-132814966D01*
X122060925Y-133023030D01*
X122060925Y-133231097D01*
X122260988Y-133231097D01*
X122461051Y-133231097D01*
X122461051Y-133431160D01*
X122461051Y-133631223D01*
X122052922Y-133631223D01*
X121644794Y-133631223D01*
X121644794Y-133839288D01*
X121644794Y-134047354D01*
X121236665Y-134047354D01*
X120828537Y-134047354D01*
X120828537Y-134247417D01*
X120828537Y-134447480D01*
X121236665Y-134447480D01*
X121644794Y-134447480D01*
X121644794Y-135063674D01*
X121644794Y-135679868D01*
X121236665Y-135679868D01*
X120828537Y-135679868D01*
X120828537Y-135271740D01*
X120828537Y-134863611D01*
X120628474Y-134863611D01*
X120428411Y-134863611D01*
X120428411Y-135071677D01*
X120428411Y-135279742D01*
X120020282Y-135279743D01*
X119612153Y-135279742D01*
X119612153Y-134663548D01*
X119612153Y-134047354D01*
X120012279Y-134047354D01*
X120012279Y-134455482D01*
X120012279Y-134863612D01*
X120220344Y-134863611D01*
X120428411Y-134863611D01*
X120428411Y-134455483D01*
X120428411Y-134047354D01*
X120220345Y-134047354D01*
X120012279Y-134047354D01*
X119612153Y-134047354D01*
X119404088Y-134047354D01*
X119196022Y-134047354D01*
X119196023Y-134863611D01*
X119196023Y-135679868D01*
X118787894Y-135679867D01*
X118379765Y-135679868D01*
X118379765Y-135479805D01*
X118379765Y-135279742D01*
X118587831Y-135279742D01*
X118795896Y-135279742D01*
X118795896Y-134863611D01*
X118795896Y-134447480D01*
X118587831Y-134447480D01*
X118379765Y-134447480D01*
X118379765Y-134247417D01*
X118379765Y-134047354D01*
X118787894Y-134047354D01*
X119196022Y-134047354D01*
X119196022Y-133431160D01*
X119196022Y-132814966D01*
X118787894Y-132814966D01*
X118379765Y-132814966D01*
X118379765Y-132414840D01*
X120012279Y-132414840D01*
X120012279Y-133023031D01*
X120012279Y-133631224D01*
X120220344Y-133631223D01*
X120628474Y-133631223D01*
X121244668Y-133631223D01*
X121244669Y-133023031D01*
X121244669Y-132414840D01*
X120628474Y-132414840D01*
X120012279Y-132414840D01*
X118379765Y-132414840D01*
X118379765Y-132406837D01*
X118379765Y-131998709D01*
X118787894Y-131998709D01*
X119196022Y-131998709D01*
X119196022Y-131590580D01*
X119196022Y-131182452D01*
X118995959Y-131182452D01*
X118795896Y-131182452D01*
X118795896Y-130982389D01*
X118795896Y-130782326D01*
X118995959Y-130782326D01*
X119196022Y-130782326D01*
X119196022Y-130574259D01*
X119196022Y-130366195D01*
X119604151Y-130366195D01*
X120012279Y-130366195D01*
X120012279Y-130774323D01*
X120012279Y-131182452D01*
X119812216Y-131182452D01*
X119612153Y-131182452D01*
X119612153Y-131590580D01*
X119612153Y-131998709D01*
X119812216Y-131998709D01*
X120012279Y-131998709D01*
X120012279Y-131590580D01*
X120012279Y-131182452D01*
X120220345Y-131182452D01*
X120428411Y-131182452D01*
X120428411Y-130774323D01*
X120428411Y-130366195D01*
X120828537Y-130366195D01*
X120828537Y-130574260D01*
X120828537Y-130782326D01*
X121236665Y-130782326D01*
X121644794Y-130782326D01*
X121644794Y-130574260D01*
X121644794Y-130366195D01*
X121236665Y-130366195D01*
X120828537Y-130366195D01*
X120428411Y-130366195D01*
X120220345Y-130366195D01*
X120012279Y-130366195D01*
X120012279Y-129750001D01*
X120012279Y-129549937D01*
X120828537Y-129549937D01*
X120828537Y-129758003D01*
X120828537Y-129966069D01*
X121036602Y-129966069D01*
X121236665Y-129966069D01*
X121244668Y-129966069D01*
X121244668Y-129758003D01*
X121244668Y-129549937D01*
X121036602Y-129549937D01*
X120828537Y-129549937D01*
X120012279Y-129549937D01*
X120012279Y-129133807D01*
X119812217Y-129133806D01*
X119612153Y-129133806D01*
X119612153Y-128725678D01*
X119612153Y-128317549D01*
X120020282Y-128317549D01*
X120428411Y-128317549D01*
X120428411Y-128725678D01*
X120428411Y-129133806D01*
X120628474Y-129133806D01*
X120836539Y-129133806D01*
X121036602Y-129133806D01*
X121244668Y-129133806D01*
X121244668Y-129341872D01*
X121244668Y-129549937D01*
X121444731Y-129549937D01*
X121644794Y-129549937D01*
X121644794Y-129141809D01*
X121644794Y-128733680D01*
X122052922Y-128733680D01*
X122461051Y-128733680D01*
X122461051Y-128325552D01*
X122461051Y-127917423D01*
X122260987Y-127917423D01*
X122060925Y-127917422D01*
X122060925Y-128117486D01*
X122060925Y-128317549D01*
X121652796Y-128317549D01*
X121244668Y-128317549D01*
X121244668Y-128525615D01*
X121244668Y-128733680D01*
X121036602Y-128733680D01*
X120828537Y-128733680D01*
X120828537Y-128325552D01*
X120828537Y-127917422D01*
X121036602Y-127917423D01*
X121244669Y-127917423D01*
X121244668Y-127709358D01*
X121244668Y-127501292D01*
X121036602Y-127501292D01*
X120828537Y-127501292D01*
X120828538Y-127301229D01*
X120828538Y-127101166D01*
X121644793Y-127101166D01*
X122461051Y-127101166D01*
X122461051Y-127301229D01*
G37*
G36*
X117763571Y-128733680D02*
G01*
X117963634Y-128733680D01*
X117963634Y-129141809D01*
X117963634Y-129549937D01*
X118171700Y-129549938D01*
X118379765Y-129549937D01*
X118379765Y-129758003D01*
X118379765Y-129966069D01*
X118587831Y-129966069D01*
X118795896Y-129966069D01*
X118795896Y-130374197D01*
X118795896Y-130782326D01*
X118587831Y-130782326D01*
X118379765Y-130782326D01*
X118379765Y-130574260D01*
X118379765Y-130366195D01*
X117971637Y-130366195D01*
X117563508Y-130366195D01*
X117563508Y-130774323D01*
X117563507Y-131182452D01*
X117355443Y-131182452D01*
X117147376Y-131182452D01*
X117147377Y-130774323D01*
X117147377Y-130366195D01*
X116947314Y-130366195D01*
X116747251Y-130366195D01*
X116747251Y-129750000D01*
X116747251Y-129549937D01*
X117563508Y-129549937D01*
X117563508Y-129758003D01*
X117563508Y-129966069D01*
X117763571Y-129966069D01*
X117963634Y-129966069D01*
X117963634Y-129758003D01*
X117963634Y-129549937D01*
X117763571Y-129549937D01*
X117563508Y-129549937D01*
X116747251Y-129549937D01*
X116747251Y-129133806D01*
X117155380Y-129133806D01*
X117563508Y-129133806D01*
X117563508Y-128933743D01*
X117563508Y-128733680D01*
X117763571Y-128733680D01*
G37*
G36*
X116539186Y-127501292D02*
G01*
X116747251Y-127501292D01*
X116747251Y-127709358D01*
X116747251Y-127917422D01*
X116539185Y-127917423D01*
X116331120Y-127917422D01*
X116331120Y-128117486D01*
X116331120Y-128317549D01*
X116539186Y-128317549D01*
X116747251Y-128317549D01*
X116747251Y-128725678D01*
X116747251Y-129133806D01*
X116539186Y-129133806D01*
X116331120Y-129133806D01*
X116331120Y-128933743D01*
X116331120Y-128733680D01*
X116131057Y-128733680D01*
X115930994Y-128733680D01*
X115930994Y-128525615D01*
X115930994Y-128317549D01*
X115722928Y-128317549D01*
X115514863Y-128317549D01*
X115514863Y-128725678D01*
X115514863Y-129133806D01*
X115314800Y-129133806D01*
X115114737Y-129133806D01*
X115114737Y-128725678D01*
X115114737Y-128317549D01*
X115314800Y-128317549D01*
X115514863Y-128317549D01*
X115514863Y-128117486D01*
X115514864Y-127917423D01*
X115922991Y-127917423D01*
X116331120Y-127917422D01*
X116331120Y-127709358D01*
X116331120Y-127501292D01*
X116539186Y-127501292D01*
G37*
G36*
X119812216Y-125052521D02*
G01*
X120012279Y-125052521D01*
X120012279Y-126076844D01*
X120012279Y-127101166D01*
X119604151Y-127101166D01*
X119196022Y-127101166D01*
X119196022Y-127301229D01*
X119196022Y-127501292D01*
X118787894Y-127501292D01*
X118379765Y-127501292D01*
X118379765Y-127709358D01*
X118379765Y-127917423D01*
X118587831Y-127917423D01*
X118795896Y-127917423D01*
X118795896Y-128117486D01*
X118795896Y-128317549D01*
X118179702Y-128317549D01*
X117563508Y-128317549D01*
X117563508Y-128525615D01*
X117563508Y-128733680D01*
X117355443Y-128733680D01*
X117147377Y-128733680D01*
X117147377Y-128525615D01*
X117147377Y-128317549D01*
X117355443Y-128317549D01*
X117563508Y-128317549D01*
X117563508Y-127501292D01*
X117563507Y-126685035D01*
X117763571Y-126685035D01*
X117963634Y-126685035D01*
X117963634Y-126893101D01*
X117963634Y-127101166D01*
X118379765Y-127101166D01*
X118795896Y-127101166D01*
X118795896Y-126693038D01*
X118795896Y-126284909D01*
X118995959Y-126284909D01*
X119196022Y-126284909D01*
X119196022Y-126484972D01*
X119196022Y-126685035D01*
X119404088Y-126685035D01*
X119612153Y-126685035D01*
X119612153Y-126484972D01*
X119612153Y-126284909D01*
X119404088Y-126284909D01*
X119196022Y-126284909D01*
X119196022Y-126076844D01*
X119196022Y-125868778D01*
X119404088Y-125868778D01*
X119612153Y-125868778D01*
X119612153Y-125460649D01*
X119612153Y-125052521D01*
X119812216Y-125052521D01*
G37*
G36*
X120220345Y-127101166D02*
G01*
X120428411Y-127101166D01*
X120428411Y-127301229D01*
X120428411Y-127501292D01*
X120220345Y-127501292D01*
X120012279Y-127501292D01*
X120012279Y-127709358D01*
X120012279Y-127917423D01*
X119812216Y-127917423D01*
X119612153Y-127917423D01*
X119612153Y-127709358D01*
X119612153Y-127501292D01*
X119812216Y-127501292D01*
X120012279Y-127501292D01*
X120012279Y-127301229D01*
X120012279Y-127101166D01*
X120220345Y-127101166D01*
G37*
G36*
X120012279Y-124028199D02*
G01*
X120012279Y-124236263D01*
X119404088Y-124236263D01*
X118795896Y-124236264D01*
X118795896Y-124436327D01*
X118795896Y-124636390D01*
X119204025Y-124636390D01*
X119612153Y-124636390D01*
X119612153Y-124844455D01*
X119612153Y-125052521D01*
X118787894Y-125052521D01*
X117963634Y-125052521D01*
X117963634Y-124844455D01*
X117963634Y-124636390D01*
X117555506Y-124636390D01*
X117147377Y-124636390D01*
X117147377Y-124844455D01*
X117147377Y-125052521D01*
X116947314Y-125052521D01*
X116747251Y-125052521D01*
X116747251Y-125260586D01*
X116747251Y-125468652D01*
X116947314Y-125468652D01*
X117147377Y-125468652D01*
X117147377Y-125260586D01*
X117147377Y-125052521D01*
X117555506Y-125052521D01*
X117963634Y-125052521D01*
X117963634Y-125260586D01*
X117963634Y-125468652D01*
X117763571Y-125468652D01*
X117563508Y-125468652D01*
X117563508Y-125668715D01*
X117563508Y-125868779D01*
X117763571Y-125868778D01*
X117963634Y-125868778D01*
X117963634Y-126076844D01*
X117963634Y-126284909D01*
X117763571Y-126284909D01*
X117563508Y-126284909D01*
X117563507Y-126484972D01*
X117563507Y-126685035D01*
X117355443Y-126685035D01*
X117147376Y-126685035D01*
X117147376Y-126484972D01*
X117147377Y-126284909D01*
X116947314Y-126284909D01*
X116747251Y-126284909D01*
X116747252Y-126693038D01*
X116747252Y-127101166D01*
X116539185Y-127101166D01*
X116331120Y-127101167D01*
X116331120Y-127301228D01*
X116331120Y-127501292D01*
X115922991Y-127501292D01*
X115514863Y-127501292D01*
X115514864Y-127301229D01*
X115514864Y-127101166D01*
X115722928Y-127101166D01*
X115930994Y-127101166D01*
X115930994Y-126893101D01*
X115930994Y-126685035D01*
X116131058Y-126685035D01*
X116331120Y-126685034D01*
X116331120Y-126276906D01*
X116331120Y-125868779D01*
X115922991Y-125868778D01*
X115514864Y-125868778D01*
X115514864Y-126076844D01*
X115514863Y-126284909D01*
X115314800Y-126284909D01*
X115114737Y-126284909D01*
X115114737Y-126484972D01*
X115114737Y-126685035D01*
X114906671Y-126685035D01*
X114698606Y-126685035D01*
X114698606Y-125660712D01*
X114698606Y-124636390D01*
X114906671Y-124636390D01*
X115114737Y-124636390D01*
X115114737Y-125052521D01*
X115114737Y-125468652D01*
X115522865Y-125468652D01*
X115930994Y-125468652D01*
X115930994Y-125052521D01*
X115930994Y-124636390D01*
X116131057Y-124636390D01*
X116331120Y-124636390D01*
X116331120Y-124844455D01*
X116331120Y-125052521D01*
X116539186Y-125052521D01*
X116747251Y-125052521D01*
X116747251Y-124644392D01*
X116747251Y-124236264D01*
X116539186Y-124236264D01*
X116331120Y-124236264D01*
X116331120Y-124028198D01*
X116331120Y-123820133D01*
X116539186Y-123820133D01*
X116747251Y-123820133D01*
X116747251Y-124028198D01*
X116747251Y-124236264D01*
X117355443Y-124236264D01*
X117963634Y-124236264D01*
X117963634Y-124028198D01*
X117963634Y-123820133D01*
X118987957Y-123820132D01*
X120012279Y-123820132D01*
X120012279Y-124028199D01*
G37*
G36*
X115930994Y-124436327D02*
G01*
X115930994Y-124636390D01*
X115722928Y-124636390D01*
X115514863Y-124636390D01*
X115514863Y-124436327D01*
X115514863Y-124236264D01*
X115722928Y-124236264D01*
X115930994Y-124236264D01*
X115930994Y-124436327D01*
G37*
%TD*%
M02*
