%TF.GenerationSoftware,KiCad,Pcbnew,10.0.3*%
%TF.CreationDate,2026-07-09T19:23:11+03:00*%
%TF.ProjectId,XIAO_nRF54L15 V1,5849414f-5f6e-4524-9635-344c31352056,rev?*%
%TF.SameCoordinates,Original*%
%TF.FileFunction,Legend,Top*%
%TF.FilePolarity,Positive*%
%FSLAX46Y46*%
G04 Gerber Fmt 4.6, Leading zero omitted, Abs format (unit mm)*
G04 Created by KiCad (PCBNEW 10.0.3) date 2026-07-09 19:23:11*
%MOMM*%
%LPD*%
G01*
G04 APERTURE LIST*
%ADD10C,0.100000*%
%ADD11C,0.000000*%
%ADD12C,0.200000*%
%ADD13C,0.142240*%
%ADD14C,0.150000*%
%ADD15C,0.120000*%
%ADD16C,0.127000*%
%ADD17C,0.503999*%
G04 APERTURE END LIST*
D10*
X90750000Y-161000000D02*
G75*
G02*
X89250000Y-159500000I0J1500000D01*
G01*
X89241543Y-157784496D02*
X89250000Y-159500000D01*
X90750000Y-161000000D02*
X86650000Y-161000000D01*
X85500000Y-155250000D02*
X86500000Y-155250000D01*
X85500000Y-155250000D02*
G75*
G02*
X84000000Y-153750000I0J1500000D01*
G01*
X84000000Y-153750000D02*
X84001608Y-156850852D01*
X84001608Y-156850852D02*
G75*
G02*
X84211861Y-159525425I2498392J-1149148D01*
G01*
D11*
G36*
X84041464Y-154100247D02*
G01*
X84357154Y-154751626D01*
X85010076Y-155186909D01*
X85824834Y-155265036D01*
X86000000Y-155250000D01*
X84954271Y-155717058D01*
X84357154Y-156286274D01*
X84008370Y-156805265D01*
X84000000Y-154000000D01*
X84041464Y-154100247D01*
G37*
G36*
X89254844Y-158783832D02*
G01*
X89266005Y-159771587D01*
X89530150Y-160400327D01*
X90151057Y-160908799D01*
X90750000Y-161000000D01*
X86250000Y-161000000D01*
X85409823Y-160704478D01*
X84608124Y-160092075D01*
X84851948Y-160201459D01*
X85434475Y-160535184D01*
X86065183Y-160715407D01*
X86857407Y-160726676D01*
X87651410Y-160516868D01*
X88399202Y-160023921D01*
X88910711Y-159354907D01*
X89208339Y-158547589D01*
X89254844Y-158783832D01*
G37*
D10*
X86650000Y-161000000D02*
G75*
G02*
X84213268Y-159524691I0J2750000D01*
G01*
X136000000Y-124250000D02*
X135998392Y-121149148D01*
X135998392Y-121149148D02*
G75*
G02*
X135788139Y-118474575I-2498392J1149148D01*
G01*
D11*
G36*
X136000000Y-124000000D02*
G01*
X135958536Y-123899753D01*
X135642846Y-123248374D01*
X134989924Y-122813091D01*
X134175166Y-122734964D01*
X134000000Y-122750000D01*
X135045729Y-122282942D01*
X135642846Y-121713726D01*
X135991630Y-121194735D01*
X136000000Y-124000000D01*
G37*
G36*
X134590177Y-117295522D02*
G01*
X135391876Y-117907925D01*
X135148052Y-117798541D01*
X134565525Y-117464816D01*
X133934817Y-117284593D01*
X133142593Y-117273324D01*
X132348590Y-117483132D01*
X131600798Y-117976079D01*
X131089289Y-118645093D01*
X130791661Y-119452411D01*
X130745156Y-119216168D01*
X130733995Y-118228413D01*
X130469850Y-117599673D01*
X129848943Y-117091201D01*
X129250000Y-117000000D01*
X133750000Y-117000000D01*
X134590177Y-117295522D01*
G37*
D10*
X133350000Y-117000000D02*
G75*
G02*
X135786732Y-118475309I0J-2750000D01*
G01*
X129250000Y-117000000D02*
G75*
G02*
X130750000Y-118500000I0J-1500000D01*
G01*
X130758457Y-120215504D02*
X130750000Y-118500000D01*
X134500000Y-122750000D02*
X133500000Y-122750000D01*
X134500000Y-122750000D02*
G75*
G02*
X136000000Y-124250000I0J-1500000D01*
G01*
X129250000Y-117000000D02*
X133350000Y-117000000D01*
X130750000Y-159500000D02*
G75*
G02*
X129250000Y-161000000I-1500000J0D01*
G01*
X135788140Y-159525426D02*
G75*
G02*
X135998393Y-156850852I-2288140J1525426D01*
G01*
X136000000Y-153750000D02*
G75*
G02*
X134500000Y-155250000I-1500000J0D01*
G01*
D11*
G36*
X135991630Y-156805265D02*
G01*
X135642846Y-156286274D01*
X135045729Y-155717058D01*
X134000000Y-155250000D01*
X134175166Y-155265036D01*
X134989924Y-155186909D01*
X135642846Y-154751626D01*
X135958536Y-154100247D01*
X136000000Y-154000000D01*
X135991630Y-156805265D01*
G37*
D10*
X134500000Y-155250000D02*
X133500000Y-155250000D01*
X136000000Y-153750000D02*
X135998392Y-156850852D01*
X135786733Y-159524691D02*
G75*
G02*
X133350000Y-161000001I-2436733J1274691D01*
G01*
D11*
G36*
X131089289Y-159354907D02*
G01*
X131600798Y-160023921D01*
X132348590Y-160516868D01*
X133142593Y-160726676D01*
X133934817Y-160715407D01*
X134565525Y-160535184D01*
X135148052Y-160201459D01*
X135391876Y-160092075D01*
X134590177Y-160704478D01*
X133750000Y-161000000D01*
X129250000Y-161000000D01*
X129848943Y-160908799D01*
X130469850Y-160400327D01*
X130733995Y-159771587D01*
X130745156Y-158783832D01*
X130791661Y-158547589D01*
X131089289Y-159354907D01*
G37*
D10*
X129250000Y-161000000D02*
X133350000Y-161000000D01*
X130758457Y-157784496D02*
X130750000Y-159500000D01*
D11*
G36*
X90151057Y-117091201D02*
G01*
X89530150Y-117599673D01*
X89266005Y-118228413D01*
X89254844Y-119216168D01*
X89208339Y-119452411D01*
X88910711Y-118645093D01*
X88399202Y-117976079D01*
X87651410Y-117483132D01*
X86857407Y-117273324D01*
X86065183Y-117284593D01*
X85434475Y-117464816D01*
X84851948Y-117798541D01*
X84608124Y-117907925D01*
X85409823Y-117295522D01*
X86250000Y-117000000D01*
X90750000Y-117000000D01*
X90151057Y-117091201D01*
G37*
G36*
X84357154Y-121713726D02*
G01*
X84954271Y-122282941D01*
X86000000Y-122750000D01*
X85824834Y-122734964D01*
X85010076Y-122813091D01*
X84357154Y-123248373D01*
X84041464Y-123899752D01*
X84000000Y-124000000D01*
X84008370Y-121194736D01*
X84357154Y-121713726D01*
G37*
D10*
X90750000Y-117000000D02*
X86650000Y-117000000D01*
X89241543Y-120215504D02*
X89250000Y-118500000D01*
X85500000Y-122750000D02*
X86500000Y-122750000D01*
X84000000Y-124250000D02*
X84001608Y-121149147D01*
X89250000Y-118500000D02*
G75*
G02*
X90750000Y-117000000I1500000J0D01*
G01*
X84211861Y-118474574D02*
G75*
G02*
X84001607Y-121149147I2288139J-1525426D01*
G01*
X84000000Y-124250000D02*
G75*
G02*
X85500000Y-122750000I1500000J0D01*
G01*
X84213267Y-118475309D02*
G75*
G02*
X86650000Y-116999999I2436733J-1274691D01*
G01*
X92099999Y-117000000D02*
X93599999Y-117000000D01*
X93599999Y-117210701D01*
X92099999Y-117210702D01*
X92099999Y-117000000D01*
G36*
X93599999Y-117210701D02*
G01*
X92099999Y-117210702D01*
X92099999Y-117000000D01*
X93599999Y-117000000D01*
X93599999Y-117210701D01*
G37*
X92099999Y-119289298D02*
X93599999Y-119289299D01*
X93599999Y-119500000D01*
X92099999Y-119500000D01*
X92099999Y-119289298D01*
G36*
X93599999Y-119289299D02*
G01*
X93599999Y-119500000D01*
X92099999Y-119500000D01*
X92099999Y-119289298D01*
X93599999Y-119289299D01*
G37*
X99414032Y-117000000D02*
X100914034Y-117000000D01*
X100914033Y-117390174D01*
X99414033Y-117390174D01*
X99414032Y-117000000D01*
G36*
X100914033Y-117390174D02*
G01*
X99414033Y-117390174D01*
X99414032Y-117000000D01*
X100914034Y-117000000D01*
X100914033Y-117390174D01*
G37*
X99414033Y-119289298D02*
X100914033Y-119289298D01*
X100914034Y-119500000D01*
X99414032Y-119500000D01*
X99414033Y-119289298D01*
G36*
X100914034Y-119500000D02*
G01*
X99414032Y-119500000D01*
X99414033Y-119289298D01*
X100914033Y-119289298D01*
X100914034Y-119500000D01*
G37*
X86966230Y-126940000D02*
G75*
G02*
X87966230Y-125940030I999970J0D01*
G01*
X86966230Y-132560000D02*
X86966230Y-126940000D01*
X87966230Y-125940000D02*
G75*
G02*
X88966200Y-126940000I-30J-1000000D01*
G01*
X87966230Y-133560000D02*
G75*
G02*
X86966200Y-132560000I-30J1000000D01*
G01*
X88966230Y-126940000D02*
X88966230Y-132560000D01*
X88966230Y-132560000D02*
G75*
G02*
X87966230Y-133560030I-1000030J0D01*
G01*
X92099999Y-117000000D02*
X93599999Y-117000000D01*
X93599999Y-119500000D01*
X92099999Y-119500000D01*
X92099999Y-117000000D01*
X93955000Y-120500000D02*
X93955000Y-120500000D01*
G75*
G02*
X94455000Y-120000000I500000J0D01*
G01*
X98535000Y-120000000D01*
G75*
G02*
X99035000Y-120500000I0J-500000D01*
G01*
X99035000Y-121250000D01*
G75*
G02*
X98535000Y-121750000I-500000J0D01*
G01*
X94455000Y-121750000D01*
G75*
G02*
X93955000Y-121250000I0J500000D01*
G01*
X93955000Y-120500000D01*
X99414032Y-117000000D02*
X100914034Y-117000000D01*
X100914034Y-119500000D01*
X99414032Y-119500000D01*
X99414032Y-117000000D01*
X99418945Y-117000000D02*
X100028406Y-117000000D01*
X100028406Y-118318624D01*
X99418945Y-118318624D01*
X99418945Y-117000000D01*
G36*
X99418945Y-117000000D02*
G01*
X100028406Y-117000000D01*
X100028406Y-118318624D01*
X99418945Y-118318624D01*
X99418945Y-117000000D01*
G37*
X100391767Y-117010871D02*
X100851238Y-117010871D01*
X100851238Y-118284237D01*
X100391767Y-118284237D01*
X100391767Y-117010871D01*
G36*
X100391767Y-117010871D02*
G01*
X100851238Y-117010871D01*
X100851238Y-118284237D01*
X100391767Y-118284237D01*
X100391767Y-117010871D01*
G37*
X119500000Y-158500000D02*
X121000000Y-158500000D01*
X121000000Y-158710701D01*
X119500000Y-158710701D01*
X119500000Y-158500000D01*
G36*
X119500000Y-158500000D02*
G01*
X121000000Y-158500000D01*
X121000000Y-158710701D01*
X119500000Y-158710701D01*
X119500000Y-158500000D01*
G37*
X119500000Y-158500000D02*
X121000000Y-158500000D01*
X121000000Y-161000000D01*
X119500000Y-161000000D01*
X119500000Y-158500000D01*
X119500000Y-160789299D02*
X121000000Y-160789299D01*
X121000000Y-161000000D01*
X119500000Y-161000000D01*
X119500000Y-160789299D01*
G36*
X119500000Y-160789299D02*
G01*
X121000000Y-160789299D01*
X121000000Y-161000000D01*
X119500000Y-161000000D01*
X119500000Y-160789299D01*
G37*
X127000000Y-158500000D02*
X128500000Y-158500000D01*
X128500000Y-158890174D01*
X127000000Y-158890174D01*
X127000000Y-158500000D01*
G36*
X127000000Y-158500000D02*
G01*
X128500000Y-158500000D01*
X128500000Y-158890174D01*
X127000000Y-158890174D01*
X127000000Y-158500000D01*
G37*
X127000000Y-158500000D02*
X128500000Y-158500000D01*
X128500000Y-161000000D01*
X127000000Y-161000000D01*
X127000000Y-158500000D01*
X127000000Y-160789299D02*
X128500000Y-160789299D01*
X128500000Y-161000000D01*
X127000000Y-161000000D01*
X127000000Y-160789299D01*
G36*
X127000000Y-160789299D02*
G01*
X128500000Y-160789299D01*
X128500000Y-161000000D01*
X127000000Y-161000000D01*
X127000000Y-160789299D01*
G37*
X127004913Y-158500000D02*
X127614373Y-158500000D01*
X127614373Y-159818624D01*
X127004913Y-159818624D01*
X127004913Y-158500000D01*
G36*
X127004913Y-158500000D02*
G01*
X127614373Y-158500000D01*
X127614373Y-159818624D01*
X127004913Y-159818624D01*
X127004913Y-158500000D01*
G37*
X127977734Y-158510871D02*
X128437205Y-158510871D01*
X128437205Y-159784237D01*
X127977734Y-159784237D01*
X127977734Y-158510871D01*
G36*
X127977734Y-158510871D02*
G01*
X128437205Y-158510871D01*
X128437205Y-159784237D01*
X127977734Y-159784237D01*
X127977734Y-158510871D01*
G37*
G36*
X94636449Y-120427206D02*
G01*
X94690663Y-120438403D01*
X94736239Y-120455918D01*
X94774535Y-120479317D01*
X94807796Y-120510146D01*
X94830729Y-120544218D01*
X94844489Y-120582236D01*
X94849218Y-120625386D01*
X94844350Y-120674060D01*
X94830204Y-120717226D01*
X94806793Y-120756068D01*
X94775467Y-120788987D01*
X94736736Y-120815230D01*
X94689355Y-120834928D01*
X94689355Y-120837401D01*
X94747544Y-120850049D01*
X94795371Y-120872551D01*
X94834765Y-120904721D01*
X94864517Y-120945547D01*
X94882752Y-120994116D01*
X94889170Y-121052604D01*
X94883457Y-121107164D01*
X94866897Y-121155017D01*
X94839478Y-121197636D01*
X94800034Y-121235932D01*
X94753927Y-121265861D01*
X94701801Y-121287663D01*
X94642597Y-121301249D01*
X94574994Y-121306000D01*
X94292198Y-121306000D01*
X94292198Y-121189166D01*
X94437937Y-121189166D01*
X94562739Y-121189166D01*
X94616032Y-121184416D01*
X94657262Y-121171447D01*
X94689080Y-121151357D01*
X94713541Y-121123421D01*
X94728402Y-121089305D01*
X94733648Y-121047108D01*
X94728554Y-121005863D01*
X94714310Y-120973545D01*
X94691086Y-120947989D01*
X94657225Y-120928291D01*
X94609537Y-120914984D01*
X94543670Y-120909941D01*
X94437937Y-120909941D01*
X94437937Y-121189166D01*
X94292198Y-121189166D01*
X94292198Y-120792503D01*
X94437937Y-120792503D01*
X94532624Y-120792503D01*
X94582244Y-120788022D01*
X94621337Y-120775684D01*
X94652151Y-120756398D01*
X94675844Y-120729625D01*
X94690349Y-120696251D01*
X94695510Y-120654237D01*
X94689625Y-120613844D01*
X94673264Y-120583815D01*
X94646082Y-120561484D01*
X94604883Y-120546443D01*
X94544275Y-120540646D01*
X94437937Y-120540646D01*
X94437937Y-120792503D01*
X94292198Y-120792503D01*
X94292198Y-120423208D01*
X94571972Y-120423208D01*
X94636449Y-120427206D01*
G37*
G36*
X95777017Y-121306000D02*
G01*
X95616550Y-121306000D01*
X95537250Y-121080576D01*
X95190486Y-121080576D01*
X95114264Y-121306000D01*
X94954401Y-121306000D01*
X95083311Y-120961324D01*
X95228625Y-120961324D01*
X95498507Y-120961324D01*
X95376178Y-120608845D01*
X95364473Y-120553341D01*
X95362055Y-120553341D01*
X95349745Y-120608845D01*
X95228625Y-120961324D01*
X95083311Y-120961324D01*
X95284569Y-120423208D01*
X95449323Y-120423208D01*
X95777017Y-121306000D01*
G37*
G36*
X96413282Y-120547406D02*
G01*
X96159941Y-120547406D01*
X96159941Y-121306000D01*
X96013652Y-121306000D01*
X96013652Y-120547406D01*
X95760970Y-120547406D01*
X95760970Y-120423208D01*
X96413282Y-120423208D01*
X96413282Y-120547406D01*
G37*
G36*
X97107909Y-120547406D02*
G01*
X96854568Y-120547406D01*
X96854568Y-121306000D01*
X96708278Y-121306000D01*
X96708278Y-120547406D01*
X96455597Y-120547406D01*
X96455597Y-120423208D01*
X97107909Y-120423208D01*
X97107909Y-120547406D01*
G37*
G36*
X97732468Y-121306000D02*
G01*
X97581837Y-121306000D01*
X97581837Y-120423208D01*
X97732468Y-120423208D01*
X97732468Y-121306000D01*
G37*
G36*
X98696702Y-121306000D02*
G01*
X98536839Y-121306000D01*
X98115722Y-120657150D01*
X98089289Y-120606042D01*
X98085607Y-120606042D01*
X98088907Y-120642308D01*
X98090498Y-120727327D01*
X98090498Y-121306000D01*
X97949099Y-121306000D01*
X97949099Y-120423208D01*
X98119404Y-120423208D01*
X98526398Y-121056670D01*
X98559590Y-121110856D01*
X98562063Y-121110856D01*
X98557785Y-121069659D01*
X98555908Y-120992044D01*
X98555908Y-120423208D01*
X98696702Y-120423208D01*
X98696702Y-121306000D01*
G37*
G36*
X88009361Y-127822963D02*
G01*
X88094223Y-127839476D01*
X88168590Y-127865748D01*
X88233921Y-127901332D01*
X88291352Y-127946309D01*
X88340924Y-128000668D01*
X88379375Y-128061287D01*
X88407287Y-128129046D01*
X88424603Y-128205184D01*
X88430631Y-128291241D01*
X88424703Y-128375611D01*
X88407663Y-128450374D01*
X88380173Y-128517022D01*
X88342270Y-128576758D01*
X88293367Y-128630433D01*
X88236481Y-128675405D01*
X88173324Y-128710594D01*
X88103019Y-128736281D01*
X88024421Y-128752250D01*
X87936161Y-128757806D01*
X87840729Y-128752033D01*
X87756796Y-128735541D01*
X87682750Y-128709212D01*
X87617229Y-128673429D01*
X87559173Y-128628052D01*
X87509314Y-128573446D01*
X87470511Y-128512037D01*
X87442239Y-128442866D01*
X87424636Y-128364589D01*
X87419054Y-128283730D01*
X87561249Y-128283730D01*
X87567739Y-128348927D01*
X87586516Y-128406133D01*
X87617451Y-128457024D01*
X87661632Y-128502694D01*
X87713756Y-128538469D01*
X87774103Y-128564707D01*
X87844186Y-128581201D01*
X87925903Y-128587019D01*
X88007415Y-128581343D01*
X88077207Y-128565274D01*
X88137172Y-128539764D01*
X88188831Y-128505075D01*
X88232727Y-128460572D01*
X88263444Y-128410814D01*
X88282091Y-128354711D01*
X88288543Y-128290569D01*
X88282188Y-128221704D01*
X88264071Y-128162955D01*
X88234759Y-128112355D01*
X88193654Y-128068552D01*
X88144426Y-128034613D01*
X88085141Y-128009288D01*
X88013813Y-127993084D01*
X87927979Y-127987281D01*
X87839365Y-127992987D01*
X87766324Y-128008841D01*
X87706215Y-128033453D01*
X87656870Y-128066171D01*
X87615381Y-128108901D01*
X87585867Y-128158398D01*
X87567643Y-128216008D01*
X87561249Y-128283730D01*
X87419054Y-128283730D01*
X87418489Y-128275548D01*
X87424346Y-128193543D01*
X87441218Y-128120581D01*
X87468510Y-128055239D01*
X87506249Y-127996376D01*
X87555081Y-127943195D01*
X87611618Y-127898789D01*
X87674578Y-127863982D01*
X87744861Y-127838531D01*
X87823633Y-127822685D01*
X87912287Y-127817165D01*
X88009361Y-127822963D01*
G37*
G36*
X88415000Y-126806244D02*
G01*
X88415000Y-126983870D01*
X87694056Y-127451778D01*
X87637269Y-127481148D01*
X87637269Y-127485239D01*
X87677565Y-127481573D01*
X87772030Y-127479805D01*
X88415000Y-127479805D01*
X88415000Y-127636914D01*
X87434120Y-127636914D01*
X87434120Y-127447687D01*
X88137967Y-126995471D01*
X88198173Y-126958591D01*
X88198173Y-126955843D01*
X88152399Y-126960597D01*
X88066160Y-126962682D01*
X87434120Y-126962682D01*
X87434120Y-126806244D01*
X88415000Y-126806244D01*
G37*
G36*
X88009361Y-131989537D02*
G01*
X88094223Y-132006050D01*
X88168590Y-132032322D01*
X88233921Y-132067906D01*
X88291352Y-132112883D01*
X88340924Y-132167242D01*
X88379375Y-132227861D01*
X88407287Y-132295620D01*
X88424603Y-132371758D01*
X88430631Y-132457815D01*
X88424703Y-132542185D01*
X88407663Y-132616948D01*
X88380173Y-132683596D01*
X88342270Y-132743332D01*
X88293367Y-132797007D01*
X88236481Y-132841979D01*
X88173324Y-132877168D01*
X88103019Y-132902855D01*
X88024421Y-132918824D01*
X87936161Y-132924380D01*
X87840729Y-132918607D01*
X87756796Y-132902115D01*
X87682750Y-132875786D01*
X87617229Y-132840003D01*
X87559173Y-132794626D01*
X87509314Y-132740020D01*
X87470511Y-132678611D01*
X87442239Y-132609440D01*
X87424636Y-132531163D01*
X87419054Y-132450304D01*
X87561249Y-132450304D01*
X87567739Y-132515501D01*
X87586516Y-132572707D01*
X87617451Y-132623598D01*
X87661632Y-132669268D01*
X87713756Y-132705043D01*
X87774103Y-132731281D01*
X87844186Y-132747775D01*
X87925903Y-132753593D01*
X88007415Y-132747917D01*
X88077207Y-132731848D01*
X88137172Y-132706338D01*
X88188831Y-132671649D01*
X88232727Y-132627146D01*
X88263444Y-132577388D01*
X88282091Y-132521285D01*
X88288543Y-132457143D01*
X88282188Y-132388278D01*
X88264071Y-132329529D01*
X88234759Y-132278929D01*
X88193654Y-132235126D01*
X88144426Y-132201187D01*
X88085141Y-132175862D01*
X88013813Y-132159658D01*
X87927979Y-132153855D01*
X87839365Y-132159561D01*
X87766324Y-132175415D01*
X87706215Y-132200027D01*
X87656870Y-132232745D01*
X87615381Y-132275475D01*
X87585867Y-132324972D01*
X87567643Y-132382582D01*
X87561249Y-132450304D01*
X87419054Y-132450304D01*
X87418489Y-132442122D01*
X87424346Y-132360117D01*
X87441218Y-132287155D01*
X87468510Y-132221813D01*
X87506249Y-132162950D01*
X87555081Y-132109769D01*
X87611618Y-132065363D01*
X87674578Y-132030556D01*
X87744861Y-132005105D01*
X87823633Y-131989259D01*
X87912287Y-131983739D01*
X88009361Y-131989537D01*
G37*
G36*
X87572117Y-131274764D02*
G01*
X87572117Y-131640884D01*
X87867896Y-131640884D01*
X87867896Y-131303462D01*
X88005221Y-131303462D01*
X88005221Y-131640884D01*
X88415000Y-131640884D01*
X88415000Y-131803488D01*
X87434120Y-131803488D01*
X87434120Y-131274764D01*
X87572117Y-131274764D01*
G37*
G36*
X87572117Y-130571344D02*
G01*
X87572117Y-130937464D01*
X87867896Y-130937464D01*
X87867896Y-130600043D01*
X88005221Y-130600043D01*
X88005221Y-130937464D01*
X88415000Y-130937464D01*
X88415000Y-131100069D01*
X87434120Y-131100069D01*
X87434120Y-130571344D01*
X87572117Y-130571344D01*
G37*
G36*
X125185999Y-151746814D02*
G01*
X125092555Y-151790160D01*
X124993820Y-151821305D01*
X124888936Y-151840288D01*
X124776916Y-151846758D01*
X124672861Y-151839751D01*
X124580160Y-151819578D01*
X124497114Y-151787024D01*
X124422330Y-151742199D01*
X124354791Y-151684532D01*
X124297654Y-151616832D01*
X124253065Y-151541320D01*
X124220557Y-151456899D01*
X124200340Y-151362084D01*
X124193298Y-151255080D01*
X124200819Y-151146616D01*
X124222569Y-151049112D01*
X124257858Y-150960883D01*
X124306731Y-150880563D01*
X124369959Y-150807163D01*
X124443955Y-150744521D01*
X124524692Y-150696097D01*
X124613136Y-150661146D01*
X124710615Y-150639623D01*
X124818755Y-150632188D01*
X124948645Y-150639250D01*
X125057405Y-150658941D01*
X125148263Y-150689487D01*
X125148263Y-150890108D01*
X125078958Y-150851483D01*
X125002936Y-150823477D01*
X124919106Y-150806183D01*
X124826156Y-150800202D01*
X124734261Y-150808352D01*
X124653647Y-150831826D01*
X124582180Y-150870108D01*
X124518336Y-150923960D01*
X124466515Y-150989265D01*
X124429294Y-151063230D01*
X124406277Y-151147520D01*
X124398242Y-151244382D01*
X124405492Y-151345608D01*
X124425865Y-151430689D01*
X124457990Y-151502371D01*
X124501484Y-151562826D01*
X124556879Y-151612914D01*
X124620832Y-151648756D01*
X124695034Y-151670953D01*
X124781899Y-151678744D01*
X124861629Y-151673187D01*
X124931037Y-151657343D01*
X124991752Y-151631996D01*
X124991752Y-151354218D01*
X124744163Y-151354218D01*
X124744163Y-151190234D01*
X125185999Y-151190234D01*
X125185999Y-151746814D01*
G37*
G36*
X126436693Y-151828001D02*
G01*
X126223542Y-151828001D01*
X125662052Y-150962868D01*
X125626808Y-150894724D01*
X125621899Y-150894724D01*
X125626299Y-150943079D01*
X125628420Y-151056437D01*
X125628420Y-151828001D01*
X125439889Y-151828001D01*
X125439889Y-150650945D01*
X125666962Y-150650945D01*
X126209620Y-151495562D01*
X126253877Y-151567809D01*
X126257174Y-151567809D01*
X126251470Y-151512879D01*
X126248968Y-151409393D01*
X126248968Y-150650945D01*
X126436693Y-150650945D01*
X126436693Y-151828001D01*
G37*
G36*
X127205131Y-150658137D02*
G01*
X127320151Y-150678185D01*
X127416109Y-150709243D01*
X127495895Y-150750114D01*
X127561871Y-150800318D01*
X127615760Y-150860125D01*
X127658539Y-150930536D01*
X127690375Y-151013210D01*
X127710609Y-151110366D01*
X127717796Y-151224672D01*
X127710048Y-151333042D01*
X127687745Y-151429314D01*
X127651690Y-151515394D01*
X127601858Y-151592809D01*
X127537398Y-151662624D01*
X127463040Y-151720412D01*
X127379054Y-151766016D01*
X127284074Y-151799591D01*
X127176345Y-151820633D01*
X127053797Y-151828001D01*
X126728319Y-151828001D01*
X126728319Y-151663210D01*
X126922639Y-151663210D01*
X127078343Y-151663210D01*
X127180758Y-151655291D01*
X127266366Y-151633042D01*
X127338173Y-151597864D01*
X127398472Y-151549930D01*
X127446830Y-151490058D01*
X127482343Y-151418414D01*
X127504833Y-151332628D01*
X127512851Y-151229581D01*
X127505218Y-151126529D01*
X127484094Y-151043040D01*
X127451266Y-150975455D01*
X127407245Y-150920940D01*
X127351222Y-150877712D01*
X127281155Y-150845213D01*
X127193961Y-150824173D01*
X127085744Y-150816542D01*
X126922639Y-150816542D01*
X126922639Y-151663210D01*
X126728319Y-151663210D01*
X126728319Y-150650945D01*
X127067719Y-150650945D01*
X127205131Y-150658137D01*
G37*
G36*
X131130091Y-137703816D02*
G01*
X131130091Y-137525690D01*
X131189860Y-137565456D01*
X131252407Y-137593405D01*
X131318499Y-137610198D01*
X131389110Y-137615889D01*
X131465649Y-137609352D01*
X131527056Y-137591255D01*
X131576396Y-137562912D01*
X131615445Y-137523297D01*
X131638518Y-137476294D01*
X131646518Y-137419444D01*
X131638764Y-137361129D01*
X131616838Y-137314795D01*
X131580440Y-137277476D01*
X131526340Y-137248197D01*
X131448916Y-137228159D01*
X131340750Y-137220508D01*
X131249746Y-137220508D01*
X131249746Y-137068027D01*
X131336647Y-137068027D01*
X131431334Y-137060959D01*
X131499636Y-137042353D01*
X131547882Y-137014925D01*
X131580771Y-136979544D01*
X131600828Y-136935063D01*
X131607977Y-136878544D01*
X131601895Y-136824321D01*
X131585122Y-136782570D01*
X131558372Y-136750312D01*
X131520325Y-136726023D01*
X131467869Y-136709906D01*
X131396511Y-136703861D01*
X131320712Y-136713003D01*
X131247238Y-136740766D01*
X131174348Y-136789151D01*
X131174348Y-136619671D01*
X131256651Y-136582969D01*
X131350190Y-136560158D01*
X131457181Y-136552187D01*
X131535399Y-136557675D01*
X131602079Y-136573187D01*
X131659107Y-136597774D01*
X131707994Y-136631175D01*
X131749656Y-136673928D01*
X131778699Y-136721163D01*
X131796250Y-136773846D01*
X131802296Y-136833481D01*
X131795339Y-136908486D01*
X131775697Y-136970993D01*
X131744195Y-137023495D01*
X131700251Y-137067678D01*
X131641946Y-137104237D01*
X131566211Y-137132801D01*
X131566211Y-137136098D01*
X131647615Y-137152205D01*
X131713566Y-137181924D01*
X131767052Y-137224758D01*
X131807806Y-137279454D01*
X131832338Y-137342225D01*
X131840838Y-137415487D01*
X131833135Y-137491807D01*
X131810887Y-137558418D01*
X131774258Y-137617366D01*
X131721916Y-137669964D01*
X131660394Y-137710920D01*
X131588980Y-137741059D01*
X131505869Y-137760049D01*
X131408821Y-137766757D01*
X131293662Y-137758815D01*
X131202275Y-137737085D01*
X131130091Y-137703816D01*
G37*
G36*
X133027785Y-136570944D02*
G01*
X132605586Y-137748000D01*
X132387600Y-137748000D01*
X131972802Y-136570944D01*
X132185880Y-136570944D01*
X132476113Y-137463994D01*
X132488062Y-137508554D01*
X132497436Y-137563279D01*
X132500660Y-137563279D01*
X132509213Y-137515880D01*
X132524473Y-137462309D01*
X132821228Y-136570944D01*
X133027785Y-136570944D01*
G37*
G36*
X133139526Y-137703816D02*
G01*
X133139526Y-137525690D01*
X133199295Y-137565456D01*
X133261842Y-137593405D01*
X133327934Y-137610198D01*
X133398545Y-137615889D01*
X133475084Y-137609352D01*
X133536491Y-137591255D01*
X133585831Y-137562912D01*
X133624880Y-137523297D01*
X133647953Y-137476294D01*
X133655953Y-137419444D01*
X133648199Y-137361129D01*
X133626273Y-137314795D01*
X133589875Y-137277476D01*
X133535775Y-137248197D01*
X133458350Y-137228159D01*
X133350185Y-137220508D01*
X133259180Y-137220508D01*
X133259180Y-137068027D01*
X133346082Y-137068027D01*
X133440769Y-137060959D01*
X133509071Y-137042353D01*
X133557317Y-137014925D01*
X133590206Y-136979544D01*
X133610263Y-136935063D01*
X133617411Y-136878544D01*
X133611330Y-136824321D01*
X133594557Y-136782570D01*
X133567807Y-136750312D01*
X133529760Y-136726023D01*
X133477303Y-136709906D01*
X133405946Y-136703861D01*
X133330147Y-136713003D01*
X133256673Y-136740766D01*
X133183783Y-136789151D01*
X133183783Y-136619671D01*
X133266086Y-136582969D01*
X133359625Y-136560158D01*
X133466616Y-136552187D01*
X133544834Y-136557675D01*
X133611513Y-136573187D01*
X133668541Y-136597774D01*
X133717429Y-136631175D01*
X133759090Y-136673928D01*
X133788134Y-136721163D01*
X133805685Y-136773846D01*
X133811731Y-136833481D01*
X133804773Y-136908486D01*
X133785131Y-136970993D01*
X133753629Y-137023495D01*
X133709685Y-137067678D01*
X133651381Y-137104237D01*
X133575646Y-137132801D01*
X133575646Y-137136098D01*
X133657050Y-137152205D01*
X133723001Y-137181924D01*
X133776487Y-137224758D01*
X133817241Y-137279454D01*
X133841772Y-137342225D01*
X133850272Y-137415487D01*
X133842569Y-137491807D01*
X133820322Y-137558418D01*
X133783693Y-137617366D01*
X133731351Y-137669964D01*
X133669828Y-137710920D01*
X133598415Y-137741059D01*
X133515304Y-137760049D01*
X133418256Y-137766757D01*
X133303097Y-137758815D01*
X133211710Y-137737085D01*
X133139526Y-137703816D01*
G37*
G36*
X125303747Y-146700372D02*
G01*
X125303747Y-146499458D01*
X125332772Y-146522451D01*
X125368081Y-146543788D01*
X125447142Y-146576981D01*
X125530747Y-146597937D01*
X125607830Y-146605264D01*
X125689373Y-146599792D01*
X125748733Y-146585397D01*
X125791085Y-146564304D01*
X125824474Y-146532999D01*
X125844340Y-146494225D01*
X125851315Y-146445529D01*
X125846132Y-146405941D01*
X125831239Y-146373062D01*
X125807799Y-146344277D01*
X125775038Y-146316862D01*
X125690188Y-146268136D01*
X125585701Y-146219336D01*
X125474253Y-146154636D01*
X125425395Y-146119610D01*
X125384494Y-146082096D01*
X125350439Y-146039705D01*
X125324630Y-145992337D01*
X125308653Y-145939548D01*
X125302941Y-145875100D01*
X125307314Y-145820952D01*
X125319877Y-145773392D01*
X125340237Y-145731265D01*
X125383361Y-145675669D01*
X125438569Y-145630515D01*
X125503051Y-145596200D01*
X125577495Y-145571457D01*
X125656096Y-145557018D01*
X125736570Y-145552187D01*
X125860419Y-145558027D01*
X125947033Y-145573015D01*
X126005408Y-145594025D01*
X126005408Y-145786660D01*
X125954118Y-145756185D01*
X125895057Y-145733675D01*
X125826887Y-145719487D01*
X125748001Y-145714486D01*
X125661539Y-145722692D01*
X125620204Y-145733752D01*
X125584456Y-145749730D01*
X125553407Y-145771428D01*
X125529135Y-145798090D01*
X125513385Y-145830058D01*
X125507886Y-145869385D01*
X125512152Y-145906821D01*
X125524225Y-145937455D01*
X125543879Y-145964292D01*
X125572146Y-145989845D01*
X125649229Y-146036154D01*
X125754595Y-146084880D01*
X125870586Y-146152145D01*
X125922342Y-146189661D01*
X125966500Y-146230034D01*
X126003731Y-146275165D01*
X126032080Y-146324629D01*
X126049993Y-146379170D01*
X126056260Y-146443038D01*
X126051912Y-146501661D01*
X126039631Y-146551422D01*
X126020136Y-146593833D01*
X125977915Y-146649497D01*
X125923050Y-146693851D01*
X125858426Y-146726591D01*
X125782439Y-146749538D01*
X125701556Y-146762363D01*
X125614424Y-146766757D01*
X125541811Y-146762214D01*
X125453737Y-146749099D01*
X125368447Y-146728216D01*
X125330624Y-146714418D01*
X125303747Y-146700372D01*
G37*
G36*
X126472303Y-146748000D02*
G01*
X126271462Y-146748000D01*
X126271462Y-145570944D01*
X126472303Y-145570944D01*
X126472303Y-146748000D01*
G37*
G36*
X127678447Y-146666813D02*
G01*
X127585004Y-146710159D01*
X127486269Y-146741304D01*
X127381385Y-146760287D01*
X127269365Y-146766757D01*
X127165310Y-146759750D01*
X127072608Y-146739577D01*
X126989562Y-146707023D01*
X126914779Y-146662198D01*
X126847240Y-146604531D01*
X126790102Y-146536831D01*
X126745514Y-146461319D01*
X126713006Y-146376898D01*
X126692789Y-146282083D01*
X126685747Y-146175079D01*
X126693268Y-146066615D01*
X126715017Y-145969111D01*
X126750307Y-145880882D01*
X126799180Y-145800562D01*
X126862408Y-145727162D01*
X126936404Y-145664520D01*
X127017141Y-145616096D01*
X127105585Y-145581145D01*
X127203063Y-145559622D01*
X127311204Y-145552187D01*
X127441094Y-145559249D01*
X127549854Y-145578940D01*
X127640712Y-145609486D01*
X127640712Y-145810107D01*
X127571406Y-145771482D01*
X127495385Y-145743476D01*
X127411554Y-145726182D01*
X127318604Y-145720201D01*
X127226710Y-145728351D01*
X127146095Y-145751825D01*
X127074628Y-145790107D01*
X127010785Y-145843959D01*
X126958963Y-145909264D01*
X126921743Y-145983229D01*
X126898726Y-146067519D01*
X126890691Y-146164381D01*
X126897941Y-146265607D01*
X126918314Y-146350688D01*
X126950438Y-146422370D01*
X126993932Y-146482825D01*
X127049328Y-146532913D01*
X127113281Y-146568755D01*
X127187483Y-146590952D01*
X127274348Y-146598743D01*
X127354078Y-146593186D01*
X127423486Y-146577342D01*
X127484201Y-146551995D01*
X127484201Y-146274217D01*
X127236612Y-146274217D01*
X127236612Y-146110233D01*
X127678447Y-146110233D01*
X127678447Y-146666813D01*
G37*
D12*
G36*
X92620968Y-118673908D02*
G01*
X92665466Y-118693247D01*
X92701164Y-118724839D01*
X92726878Y-118765924D01*
X92743329Y-118818048D01*
X92747974Y-118869480D01*
X92749304Y-118884208D01*
X92749304Y-119010457D01*
X92413494Y-119010457D01*
X92413494Y-118868674D01*
X92421223Y-118787862D01*
X92441279Y-118732931D01*
X92471052Y-118696688D01*
X92511092Y-118674873D01*
X92564949Y-118667027D01*
X92620968Y-118673908D01*
G37*
G36*
X93145039Y-118623171D02*
G01*
X93190527Y-118642986D01*
X93227776Y-118675600D01*
X93254563Y-118718024D01*
X93271854Y-118772997D01*
X93278187Y-118844054D01*
X93278187Y-119010457D01*
X92905888Y-119010457D01*
X92905888Y-118869480D01*
X92912612Y-118781657D01*
X92930354Y-118718073D01*
X92956618Y-118672926D01*
X92990693Y-118641959D01*
X93033784Y-118622968D01*
X93088777Y-118616175D01*
X93145039Y-118623171D01*
G37*
G36*
X93567299Y-119338109D02*
G01*
X92123577Y-119338109D01*
X92123577Y-118831744D01*
X92256910Y-118831744D01*
X92256910Y-118868674D01*
X92256910Y-119204776D01*
X93433966Y-119204776D01*
X93433966Y-118827714D01*
X93427632Y-118737578D01*
X93409517Y-118658638D01*
X93380447Y-118589137D01*
X93340543Y-118527662D01*
X93289480Y-118475069D01*
X93232656Y-118438511D01*
X93168851Y-118416431D01*
X93096104Y-118408813D01*
X93018120Y-118417371D01*
X92953362Y-118441684D01*
X92898927Y-118481353D01*
X92856035Y-118533878D01*
X92826032Y-118597648D01*
X92809168Y-118675233D01*
X92805871Y-118675233D01*
X92779607Y-118612058D01*
X92744616Y-118560417D01*
X92700724Y-118518649D01*
X92648935Y-118487435D01*
X92591379Y-118468573D01*
X92526481Y-118462083D01*
X92468947Y-118468388D01*
X92418257Y-118486734D01*
X92372828Y-118517312D01*
X92331722Y-118561660D01*
X92300524Y-118612721D01*
X92277171Y-118673490D01*
X92262240Y-118745774D01*
X92256910Y-118831744D01*
X92123577Y-118831744D01*
X92123577Y-117684291D01*
X92557036Y-117684291D01*
X92557036Y-117819553D01*
X92880609Y-117819553D01*
X92880609Y-118143346D01*
X93015871Y-118143346D01*
X93015871Y-117819553D01*
X93339444Y-117819553D01*
X93339444Y-117684291D01*
X93015871Y-117684291D01*
X93015871Y-117360499D01*
X92880609Y-117360499D01*
X92880609Y-117684291D01*
X92557036Y-117684291D01*
X92123577Y-117684291D01*
X92123577Y-117227166D01*
X93567299Y-117227166D01*
X93567299Y-119338109D01*
G37*
G36*
X99935002Y-118673908D02*
G01*
X99979500Y-118693247D01*
X100015198Y-118724839D01*
X100040912Y-118765924D01*
X100057363Y-118818048D01*
X100062008Y-118869480D01*
X100063338Y-118884208D01*
X100063338Y-119010457D01*
X99727528Y-119010457D01*
X99727528Y-118868674D01*
X99735257Y-118787862D01*
X99755313Y-118732931D01*
X99785086Y-118696688D01*
X99825126Y-118674873D01*
X99878983Y-118667027D01*
X99935002Y-118673908D01*
G37*
G36*
X100459073Y-118623171D02*
G01*
X100504561Y-118642986D01*
X100541810Y-118675600D01*
X100568597Y-118718024D01*
X100585888Y-118772997D01*
X100592221Y-118844054D01*
X100592221Y-119010457D01*
X100219922Y-119010457D01*
X100219922Y-118869480D01*
X100226646Y-118781657D01*
X100244388Y-118718073D01*
X100270652Y-118672926D01*
X100304727Y-118641959D01*
X100347818Y-118622968D01*
X100402811Y-118616175D01*
X100459073Y-118623171D01*
G37*
G36*
X100881333Y-119338109D02*
G01*
X99437611Y-119338109D01*
X99437611Y-118831744D01*
X99570944Y-118831744D01*
X99570944Y-118868674D01*
X99570944Y-119204776D01*
X100748000Y-119204776D01*
X100748000Y-118827714D01*
X100741666Y-118737578D01*
X100723551Y-118658638D01*
X100694481Y-118589137D01*
X100654577Y-118527662D01*
X100603514Y-118475069D01*
X100546690Y-118438511D01*
X100482885Y-118416431D01*
X100410138Y-118408813D01*
X100332154Y-118417371D01*
X100267396Y-118441684D01*
X100212961Y-118481353D01*
X100170069Y-118533878D01*
X100140066Y-118597648D01*
X100123202Y-118675233D01*
X100119905Y-118675233D01*
X100093641Y-118612058D01*
X100058650Y-118560417D01*
X100014758Y-118518649D01*
X99962969Y-118487435D01*
X99905413Y-118468573D01*
X99840515Y-118462083D01*
X99782981Y-118468388D01*
X99732291Y-118486734D01*
X99686862Y-118517312D01*
X99645756Y-118561660D01*
X99614558Y-118612721D01*
X99591205Y-118673490D01*
X99576274Y-118745774D01*
X99570944Y-118831744D01*
X99437611Y-118831744D01*
X99437611Y-118275480D01*
X100881333Y-118275480D01*
X100881333Y-119338109D01*
G37*
G36*
X120020969Y-160173908D02*
G01*
X120065467Y-160193247D01*
X120101165Y-160224839D01*
X120126879Y-160265924D01*
X120143330Y-160318048D01*
X120147975Y-160369480D01*
X120149305Y-160384208D01*
X120149305Y-160510457D01*
X119813495Y-160510457D01*
X119813495Y-160368674D01*
X119821224Y-160287862D01*
X119841280Y-160232931D01*
X119871053Y-160196688D01*
X119911093Y-160174873D01*
X119964950Y-160167027D01*
X120020969Y-160173908D01*
G37*
G36*
X120545040Y-160123171D02*
G01*
X120590528Y-160142986D01*
X120627777Y-160175600D01*
X120654564Y-160218024D01*
X120671855Y-160272997D01*
X120678188Y-160344054D01*
X120678188Y-160510457D01*
X120305889Y-160510457D01*
X120305889Y-160369480D01*
X120312613Y-160281657D01*
X120330355Y-160218073D01*
X120356619Y-160172926D01*
X120390694Y-160141959D01*
X120433785Y-160122968D01*
X120488778Y-160116175D01*
X120545040Y-160123171D01*
G37*
G36*
X120967300Y-160838109D02*
G01*
X119523578Y-160838109D01*
X119523578Y-160331744D01*
X119656911Y-160331744D01*
X119656911Y-160368674D01*
X119656911Y-160704776D01*
X120833967Y-160704776D01*
X120833967Y-160327714D01*
X120827633Y-160237578D01*
X120809518Y-160158638D01*
X120780448Y-160089137D01*
X120740544Y-160027662D01*
X120689481Y-159975069D01*
X120632657Y-159938511D01*
X120568852Y-159916431D01*
X120496105Y-159908813D01*
X120418121Y-159917371D01*
X120353363Y-159941684D01*
X120298928Y-159981353D01*
X120256036Y-160033878D01*
X120226033Y-160097648D01*
X120209169Y-160175233D01*
X120205872Y-160175233D01*
X120179608Y-160112058D01*
X120144617Y-160060417D01*
X120100725Y-160018649D01*
X120048936Y-159987435D01*
X119991380Y-159968573D01*
X119926482Y-159962083D01*
X119868948Y-159968388D01*
X119818258Y-159986734D01*
X119772829Y-160017312D01*
X119731723Y-160061660D01*
X119700525Y-160112721D01*
X119677172Y-160173490D01*
X119662241Y-160245774D01*
X119656911Y-160331744D01*
X119523578Y-160331744D01*
X119523578Y-159184291D01*
X119957037Y-159184291D01*
X119957037Y-159319553D01*
X120280610Y-159319553D01*
X120280610Y-159643346D01*
X120415872Y-159643346D01*
X120415872Y-159319553D01*
X120739445Y-159319553D01*
X120739445Y-159184291D01*
X120415872Y-159184291D01*
X120415872Y-158860499D01*
X120280610Y-158860499D01*
X120280610Y-159184291D01*
X119957037Y-159184291D01*
X119523578Y-159184291D01*
X119523578Y-158727166D01*
X120967300Y-158727166D01*
X120967300Y-160838109D01*
G37*
G36*
X127520969Y-160173908D02*
G01*
X127565467Y-160193247D01*
X127601165Y-160224839D01*
X127626879Y-160265924D01*
X127643330Y-160318048D01*
X127647975Y-160369480D01*
X127649305Y-160384208D01*
X127649305Y-160510457D01*
X127313495Y-160510457D01*
X127313495Y-160368674D01*
X127321224Y-160287862D01*
X127341280Y-160232931D01*
X127371053Y-160196688D01*
X127411093Y-160174873D01*
X127464950Y-160167027D01*
X127520969Y-160173908D01*
G37*
G36*
X128045040Y-160123171D02*
G01*
X128090528Y-160142986D01*
X128127777Y-160175600D01*
X128154564Y-160218024D01*
X128171855Y-160272997D01*
X128178188Y-160344054D01*
X128178188Y-160510457D01*
X127805889Y-160510457D01*
X127805889Y-160369480D01*
X127812613Y-160281657D01*
X127830355Y-160218073D01*
X127856619Y-160172926D01*
X127890694Y-160141959D01*
X127933785Y-160122968D01*
X127988778Y-160116175D01*
X128045040Y-160123171D01*
G37*
G36*
X128467300Y-160838109D02*
G01*
X127023578Y-160838109D01*
X127023578Y-160331744D01*
X127156911Y-160331744D01*
X127156911Y-160368674D01*
X127156911Y-160704776D01*
X128333967Y-160704776D01*
X128333967Y-160327714D01*
X128327633Y-160237578D01*
X128309518Y-160158638D01*
X128280448Y-160089137D01*
X128240544Y-160027662D01*
X128189481Y-159975069D01*
X128132657Y-159938511D01*
X128068852Y-159916431D01*
X127996105Y-159908813D01*
X127918121Y-159917371D01*
X127853363Y-159941684D01*
X127798928Y-159981353D01*
X127756036Y-160033878D01*
X127726033Y-160097648D01*
X127709169Y-160175233D01*
X127705872Y-160175233D01*
X127679608Y-160112058D01*
X127644617Y-160060417D01*
X127600725Y-160018649D01*
X127548936Y-159987435D01*
X127491380Y-159968573D01*
X127426482Y-159962083D01*
X127368948Y-159968388D01*
X127318258Y-159986734D01*
X127272829Y-160017312D01*
X127231723Y-160061660D01*
X127200525Y-160112721D01*
X127177172Y-160173490D01*
X127162241Y-160245774D01*
X127156911Y-160331744D01*
X127023578Y-160331744D01*
X127023578Y-159775480D01*
X128467300Y-159775480D01*
X128467300Y-160838109D01*
G37*
G36*
X100445802Y-118279033D02*
G01*
X100038965Y-118279033D01*
X100038965Y-118145700D01*
X100172298Y-118145700D01*
X100312469Y-118145700D01*
X100312469Y-117511670D01*
X100172298Y-117511670D01*
X100172298Y-118145700D01*
X100038965Y-118145700D01*
X100038965Y-117378337D01*
X100445802Y-117378337D01*
X100445802Y-118279033D01*
G37*
G36*
X128031769Y-159779033D02*
G01*
X127624932Y-159779033D01*
X127624932Y-159645700D01*
X127758265Y-159645700D01*
X127898436Y-159645700D01*
X127898436Y-159011670D01*
X127758265Y-159011670D01*
X127758265Y-159645700D01*
X127624932Y-159645700D01*
X127624932Y-158878337D01*
X128031769Y-158878337D01*
X128031769Y-159779033D01*
G37*
D13*
X108731322Y-126087175D02*
X109147398Y-126087175D01*
X108648107Y-126336821D02*
X108939360Y-125463061D01*
X108939360Y-125463061D02*
X109230613Y-126336821D01*
X109397044Y-125463061D02*
X109688297Y-126336821D01*
X109688297Y-126336821D02*
X109979550Y-125463061D01*
X108648107Y-122923061D02*
X108939360Y-123796821D01*
X108939360Y-123796821D02*
X109230613Y-122923061D01*
X109521867Y-123796821D02*
X109521867Y-122923061D01*
X109937943Y-123796821D02*
X109937943Y-122923061D01*
X109937943Y-122923061D02*
X110437234Y-123796821D01*
X110437234Y-123796821D02*
X110437234Y-122923061D01*
X108731322Y-131375214D02*
X108856145Y-131416821D01*
X108856145Y-131416821D02*
X109064183Y-131416821D01*
X109064183Y-131416821D02*
X109147398Y-131375214D01*
X109147398Y-131375214D02*
X109189006Y-131333606D01*
X109189006Y-131333606D02*
X109230613Y-131250391D01*
X109230613Y-131250391D02*
X109230613Y-131167175D01*
X109230613Y-131167175D02*
X109189006Y-131083960D01*
X109189006Y-131083960D02*
X109147398Y-131042353D01*
X109147398Y-131042353D02*
X109064183Y-131000745D01*
X109064183Y-131000745D02*
X108897752Y-130959137D01*
X108897752Y-130959137D02*
X108814537Y-130917530D01*
X108814537Y-130917530D02*
X108772930Y-130875922D01*
X108772930Y-130875922D02*
X108731322Y-130792707D01*
X108731322Y-130792707D02*
X108731322Y-130709492D01*
X108731322Y-130709492D02*
X108772930Y-130626276D01*
X108772930Y-130626276D02*
X108814537Y-130584669D01*
X108814537Y-130584669D02*
X108897752Y-130543061D01*
X108897752Y-130543061D02*
X109105791Y-130543061D01*
X109105791Y-130543061D02*
X109230613Y-130584669D01*
X110104373Y-131333606D02*
X110062765Y-131375214D01*
X110062765Y-131375214D02*
X109937943Y-131416821D01*
X109937943Y-131416821D02*
X109854727Y-131416821D01*
X109854727Y-131416821D02*
X109729904Y-131375214D01*
X109729904Y-131375214D02*
X109646689Y-131291998D01*
X109646689Y-131291998D02*
X109605082Y-131208783D01*
X109605082Y-131208783D02*
X109563474Y-131042353D01*
X109563474Y-131042353D02*
X109563474Y-130917530D01*
X109563474Y-130917530D02*
X109605082Y-130751099D01*
X109605082Y-130751099D02*
X109646689Y-130667884D01*
X109646689Y-130667884D02*
X109729904Y-130584669D01*
X109729904Y-130584669D02*
X109854727Y-130543061D01*
X109854727Y-130543061D02*
X109937943Y-130543061D01*
X109937943Y-130543061D02*
X110062765Y-130584669D01*
X110062765Y-130584669D02*
X110104373Y-130626276D01*
X110894918Y-131416821D02*
X110478842Y-131416821D01*
X110478842Y-131416821D02*
X110478842Y-130543061D01*
X108731322Y-133915214D02*
X108856145Y-133956821D01*
X108856145Y-133956821D02*
X109064183Y-133956821D01*
X109064183Y-133956821D02*
X109147398Y-133915214D01*
X109147398Y-133915214D02*
X109189006Y-133873606D01*
X109189006Y-133873606D02*
X109230613Y-133790391D01*
X109230613Y-133790391D02*
X109230613Y-133707175D01*
X109230613Y-133707175D02*
X109189006Y-133623960D01*
X109189006Y-133623960D02*
X109147398Y-133582353D01*
X109147398Y-133582353D02*
X109064183Y-133540745D01*
X109064183Y-133540745D02*
X108897752Y-133499137D01*
X108897752Y-133499137D02*
X108814537Y-133457530D01*
X108814537Y-133457530D02*
X108772930Y-133415922D01*
X108772930Y-133415922D02*
X108731322Y-133332707D01*
X108731322Y-133332707D02*
X108731322Y-133249492D01*
X108731322Y-133249492D02*
X108772930Y-133166276D01*
X108772930Y-133166276D02*
X108814537Y-133124669D01*
X108814537Y-133124669D02*
X108897752Y-133083061D01*
X108897752Y-133083061D02*
X109105791Y-133083061D01*
X109105791Y-133083061D02*
X109230613Y-133124669D01*
X109605082Y-133956821D02*
X109605082Y-133083061D01*
X109605082Y-133083061D02*
X109813120Y-133083061D01*
X109813120Y-133083061D02*
X109937943Y-133124669D01*
X109937943Y-133124669D02*
X110021158Y-133207884D01*
X110021158Y-133207884D02*
X110062765Y-133291099D01*
X110062765Y-133291099D02*
X110104373Y-133457530D01*
X110104373Y-133457530D02*
X110104373Y-133582353D01*
X110104373Y-133582353D02*
X110062765Y-133748783D01*
X110062765Y-133748783D02*
X110021158Y-133831998D01*
X110021158Y-133831998D02*
X109937943Y-133915214D01*
X109937943Y-133915214D02*
X109813120Y-133956821D01*
X109813120Y-133956821D02*
X109605082Y-133956821D01*
X110437234Y-133707175D02*
X110853310Y-133707175D01*
X110354019Y-133956821D02*
X110645272Y-133083061D01*
X110645272Y-133083061D02*
X110936525Y-133956821D01*
X109230613Y-128044669D02*
X109147398Y-128003061D01*
X109147398Y-128003061D02*
X109022575Y-128003061D01*
X109022575Y-128003061D02*
X108897752Y-128044669D01*
X108897752Y-128044669D02*
X108814537Y-128127884D01*
X108814537Y-128127884D02*
X108772930Y-128211099D01*
X108772930Y-128211099D02*
X108731322Y-128377530D01*
X108731322Y-128377530D02*
X108731322Y-128502353D01*
X108731322Y-128502353D02*
X108772930Y-128668783D01*
X108772930Y-128668783D02*
X108814537Y-128751998D01*
X108814537Y-128751998D02*
X108897752Y-128835214D01*
X108897752Y-128835214D02*
X109022575Y-128876821D01*
X109022575Y-128876821D02*
X109105791Y-128876821D01*
X109105791Y-128876821D02*
X109230613Y-128835214D01*
X109230613Y-128835214D02*
X109272221Y-128793606D01*
X109272221Y-128793606D02*
X109272221Y-128502353D01*
X109272221Y-128502353D02*
X109105791Y-128502353D01*
X109646690Y-128876821D02*
X109646690Y-128003061D01*
X109646690Y-128003061D02*
X110145981Y-128876821D01*
X110145981Y-128876821D02*
X110145981Y-128003061D01*
X110562058Y-128876821D02*
X110562058Y-128003061D01*
X110562058Y-128003061D02*
X110770096Y-128003061D01*
X110770096Y-128003061D02*
X110894919Y-128044669D01*
X110894919Y-128044669D02*
X110978134Y-128127884D01*
X110978134Y-128127884D02*
X111019741Y-128211099D01*
X111019741Y-128211099D02*
X111061349Y-128377530D01*
X111061349Y-128377530D02*
X111061349Y-128502353D01*
X111061349Y-128502353D02*
X111019741Y-128668783D01*
X111019741Y-128668783D02*
X110978134Y-128751998D01*
X110978134Y-128751998D02*
X110894919Y-128835214D01*
X110894919Y-128835214D02*
X110770096Y-128876821D01*
X110770096Y-128876821D02*
X110562058Y-128876821D01*
X108772930Y-136496821D02*
X108772930Y-135623061D01*
X108772930Y-135623061D02*
X108980968Y-135623061D01*
X108980968Y-135623061D02*
X109105791Y-135664669D01*
X109105791Y-135664669D02*
X109189006Y-135747884D01*
X109189006Y-135747884D02*
X109230613Y-135831099D01*
X109230613Y-135831099D02*
X109272221Y-135997530D01*
X109272221Y-135997530D02*
X109272221Y-136122353D01*
X109272221Y-136122353D02*
X109230613Y-136288783D01*
X109230613Y-136288783D02*
X109189006Y-136371998D01*
X109189006Y-136371998D02*
X109105791Y-136455214D01*
X109105791Y-136455214D02*
X108980968Y-136496821D01*
X108980968Y-136496821D02*
X108772930Y-136496821D01*
X110145981Y-136496821D02*
X109854728Y-136080745D01*
X109646690Y-136496821D02*
X109646690Y-135623061D01*
X109646690Y-135623061D02*
X109979551Y-135623061D01*
X109979551Y-135623061D02*
X110062766Y-135664669D01*
X110062766Y-135664669D02*
X110104373Y-135706276D01*
X110104373Y-135706276D02*
X110145981Y-135789492D01*
X110145981Y-135789492D02*
X110145981Y-135914314D01*
X110145981Y-135914314D02*
X110104373Y-135997530D01*
X110104373Y-135997530D02*
X110062766Y-136039137D01*
X110062766Y-136039137D02*
X109979551Y-136080745D01*
X109979551Y-136080745D02*
X109646690Y-136080745D01*
X110520450Y-136496821D02*
X110520450Y-135623061D01*
X110520450Y-135623061D02*
X110728488Y-135623061D01*
X110728488Y-135623061D02*
X110853311Y-135664669D01*
X110853311Y-135664669D02*
X110936526Y-135747884D01*
X110936526Y-135747884D02*
X110978133Y-135831099D01*
X110978133Y-135831099D02*
X111019741Y-135997530D01*
X111019741Y-135997530D02*
X111019741Y-136122353D01*
X111019741Y-136122353D02*
X110978133Y-136288783D01*
X110978133Y-136288783D02*
X110936526Y-136371998D01*
X110936526Y-136371998D02*
X110853311Y-136455214D01*
X110853311Y-136455214D02*
X110728488Y-136496821D01*
X110728488Y-136496821D02*
X110520450Y-136496821D01*
X111560640Y-136080745D02*
X111560640Y-136496821D01*
X111269387Y-135623061D02*
X111560640Y-136080745D01*
X111560640Y-136080745D02*
X111851893Y-135623061D01*
D14*
X117583334Y-144834819D02*
X117250001Y-144358628D01*
X117011906Y-144834819D02*
X117011906Y-143834819D01*
X117011906Y-143834819D02*
X117392858Y-143834819D01*
X117392858Y-143834819D02*
X117488096Y-143882438D01*
X117488096Y-143882438D02*
X117535715Y-143930057D01*
X117535715Y-143930057D02*
X117583334Y-144025295D01*
X117583334Y-144025295D02*
X117583334Y-144168152D01*
X117583334Y-144168152D02*
X117535715Y-144263390D01*
X117535715Y-144263390D02*
X117488096Y-144311009D01*
X117488096Y-144311009D02*
X117392858Y-144358628D01*
X117392858Y-144358628D02*
X117011906Y-144358628D01*
X118535715Y-144834819D02*
X117964287Y-144834819D01*
X118250001Y-144834819D02*
X118250001Y-143834819D01*
X118250001Y-143834819D02*
X118154763Y-143977676D01*
X118154763Y-143977676D02*
X118059525Y-144072914D01*
X118059525Y-144072914D02*
X117964287Y-144120533D01*
D10*
X92015104Y-145656265D02*
X92815104Y-145656265D01*
X92815104Y-145656265D02*
X92815104Y-145846741D01*
X92815104Y-145846741D02*
X92777009Y-145961027D01*
X92777009Y-145961027D02*
X92700819Y-146037217D01*
X92700819Y-146037217D02*
X92624628Y-146075312D01*
X92624628Y-146075312D02*
X92472247Y-146113408D01*
X92472247Y-146113408D02*
X92357961Y-146113408D01*
X92357961Y-146113408D02*
X92205580Y-146075312D01*
X92205580Y-146075312D02*
X92129390Y-146037217D01*
X92129390Y-146037217D02*
X92053200Y-145961027D01*
X92053200Y-145961027D02*
X92015104Y-145846741D01*
X92015104Y-145846741D02*
X92015104Y-145656265D01*
X92815104Y-146799122D02*
X92815104Y-146646741D01*
X92815104Y-146646741D02*
X92777009Y-146570550D01*
X92777009Y-146570550D02*
X92738914Y-146532455D01*
X92738914Y-146532455D02*
X92624628Y-146456265D01*
X92624628Y-146456265D02*
X92472247Y-146418169D01*
X92472247Y-146418169D02*
X92167485Y-146418169D01*
X92167485Y-146418169D02*
X92091295Y-146456265D01*
X92091295Y-146456265D02*
X92053200Y-146494360D01*
X92053200Y-146494360D02*
X92015104Y-146570550D01*
X92015104Y-146570550D02*
X92015104Y-146722931D01*
X92015104Y-146722931D02*
X92053200Y-146799122D01*
X92053200Y-146799122D02*
X92091295Y-146837217D01*
X92091295Y-146837217D02*
X92167485Y-146875312D01*
X92167485Y-146875312D02*
X92357961Y-146875312D01*
X92357961Y-146875312D02*
X92434152Y-146837217D01*
X92434152Y-146837217D02*
X92472247Y-146799122D01*
X92472247Y-146799122D02*
X92510342Y-146722931D01*
X92510342Y-146722931D02*
X92510342Y-146570550D01*
X92510342Y-146570550D02*
X92472247Y-146494360D01*
X92472247Y-146494360D02*
X92434152Y-146456265D01*
X92434152Y-146456265D02*
X92357961Y-146418169D01*
X92015104Y-157162782D02*
X92815104Y-157162782D01*
X92815104Y-157162782D02*
X92815104Y-157353258D01*
X92815104Y-157353258D02*
X92777009Y-157467544D01*
X92777009Y-157467544D02*
X92700819Y-157543734D01*
X92700819Y-157543734D02*
X92624628Y-157581829D01*
X92624628Y-157581829D02*
X92472247Y-157619925D01*
X92472247Y-157619925D02*
X92357961Y-157619925D01*
X92357961Y-157619925D02*
X92205580Y-157581829D01*
X92205580Y-157581829D02*
X92129390Y-157543734D01*
X92129390Y-157543734D02*
X92053200Y-157467544D01*
X92053200Y-157467544D02*
X92015104Y-157353258D01*
X92015104Y-157353258D02*
X92015104Y-157162782D01*
X92815104Y-157886591D02*
X92815104Y-158419925D01*
X92815104Y-158419925D02*
X92015104Y-158077067D01*
X94555104Y-145656265D02*
X95355104Y-145656265D01*
X95355104Y-145656265D02*
X95355104Y-145846741D01*
X95355104Y-145846741D02*
X95317009Y-145961027D01*
X95317009Y-145961027D02*
X95240819Y-146037217D01*
X95240819Y-146037217D02*
X95164628Y-146075312D01*
X95164628Y-146075312D02*
X95012247Y-146113408D01*
X95012247Y-146113408D02*
X94897961Y-146113408D01*
X94897961Y-146113408D02*
X94745580Y-146075312D01*
X94745580Y-146075312D02*
X94669390Y-146037217D01*
X94669390Y-146037217D02*
X94593200Y-145961027D01*
X94593200Y-145961027D02*
X94555104Y-145846741D01*
X94555104Y-145846741D02*
X94555104Y-145656265D01*
X95355104Y-146837217D02*
X95355104Y-146456265D01*
X95355104Y-146456265D02*
X94974152Y-146418169D01*
X94974152Y-146418169D02*
X95012247Y-146456265D01*
X95012247Y-146456265D02*
X95050342Y-146532455D01*
X95050342Y-146532455D02*
X95050342Y-146722931D01*
X95050342Y-146722931D02*
X95012247Y-146799122D01*
X95012247Y-146799122D02*
X94974152Y-146837217D01*
X94974152Y-146837217D02*
X94897961Y-146875312D01*
X94897961Y-146875312D02*
X94707485Y-146875312D01*
X94707485Y-146875312D02*
X94631295Y-146837217D01*
X94631295Y-146837217D02*
X94593200Y-146799122D01*
X94593200Y-146799122D02*
X94555104Y-146722931D01*
X94555104Y-146722931D02*
X94555104Y-146532455D01*
X94555104Y-146532455D02*
X94593200Y-146456265D01*
X94593200Y-146456265D02*
X94631295Y-146418169D01*
X94555104Y-157162782D02*
X95355104Y-157162782D01*
X95355104Y-157162782D02*
X95355104Y-157353258D01*
X95355104Y-157353258D02*
X95317009Y-157467544D01*
X95317009Y-157467544D02*
X95240819Y-157543734D01*
X95240819Y-157543734D02*
X95164628Y-157581829D01*
X95164628Y-157581829D02*
X95012247Y-157619925D01*
X95012247Y-157619925D02*
X94897961Y-157619925D01*
X94897961Y-157619925D02*
X94745580Y-157581829D01*
X94745580Y-157581829D02*
X94669390Y-157543734D01*
X94669390Y-157543734D02*
X94593200Y-157467544D01*
X94593200Y-157467544D02*
X94555104Y-157353258D01*
X94555104Y-157353258D02*
X94555104Y-157162782D01*
X95012247Y-158077067D02*
X95050342Y-158000877D01*
X95050342Y-158000877D02*
X95088438Y-157962782D01*
X95088438Y-157962782D02*
X95164628Y-157924686D01*
X95164628Y-157924686D02*
X95202723Y-157924686D01*
X95202723Y-157924686D02*
X95278914Y-157962782D01*
X95278914Y-157962782D02*
X95317009Y-158000877D01*
X95317009Y-158000877D02*
X95355104Y-158077067D01*
X95355104Y-158077067D02*
X95355104Y-158229448D01*
X95355104Y-158229448D02*
X95317009Y-158305639D01*
X95317009Y-158305639D02*
X95278914Y-158343734D01*
X95278914Y-158343734D02*
X95202723Y-158381829D01*
X95202723Y-158381829D02*
X95164628Y-158381829D01*
X95164628Y-158381829D02*
X95088438Y-158343734D01*
X95088438Y-158343734D02*
X95050342Y-158305639D01*
X95050342Y-158305639D02*
X95012247Y-158229448D01*
X95012247Y-158229448D02*
X95012247Y-158077067D01*
X95012247Y-158077067D02*
X94974152Y-158000877D01*
X94974152Y-158000877D02*
X94936057Y-157962782D01*
X94936057Y-157962782D02*
X94859866Y-157924686D01*
X94859866Y-157924686D02*
X94707485Y-157924686D01*
X94707485Y-157924686D02*
X94631295Y-157962782D01*
X94631295Y-157962782D02*
X94593200Y-158000877D01*
X94593200Y-158000877D02*
X94555104Y-158077067D01*
X94555104Y-158077067D02*
X94555104Y-158229448D01*
X94555104Y-158229448D02*
X94593200Y-158305639D01*
X94593200Y-158305639D02*
X94631295Y-158343734D01*
X94631295Y-158343734D02*
X94707485Y-158381829D01*
X94707485Y-158381829D02*
X94859866Y-158381829D01*
X94859866Y-158381829D02*
X94936057Y-158343734D01*
X94936057Y-158343734D02*
X94974152Y-158305639D01*
X94974152Y-158305639D02*
X95012247Y-158229448D01*
X97095104Y-145656265D02*
X97895104Y-145656265D01*
X97895104Y-145656265D02*
X97895104Y-145846741D01*
X97895104Y-145846741D02*
X97857009Y-145961027D01*
X97857009Y-145961027D02*
X97780819Y-146037217D01*
X97780819Y-146037217D02*
X97704628Y-146075312D01*
X97704628Y-146075312D02*
X97552247Y-146113408D01*
X97552247Y-146113408D02*
X97437961Y-146113408D01*
X97437961Y-146113408D02*
X97285580Y-146075312D01*
X97285580Y-146075312D02*
X97209390Y-146037217D01*
X97209390Y-146037217D02*
X97133200Y-145961027D01*
X97133200Y-145961027D02*
X97095104Y-145846741D01*
X97095104Y-145846741D02*
X97095104Y-145656265D01*
X97628438Y-146799122D02*
X97095104Y-146799122D01*
X97933200Y-146608646D02*
X97361771Y-146418169D01*
X97361771Y-146418169D02*
X97361771Y-146913408D01*
X97095104Y-157162782D02*
X97895104Y-157162782D01*
X97895104Y-157162782D02*
X97895104Y-157353258D01*
X97895104Y-157353258D02*
X97857009Y-157467544D01*
X97857009Y-157467544D02*
X97780819Y-157543734D01*
X97780819Y-157543734D02*
X97704628Y-157581829D01*
X97704628Y-157581829D02*
X97552247Y-157619925D01*
X97552247Y-157619925D02*
X97437961Y-157619925D01*
X97437961Y-157619925D02*
X97285580Y-157581829D01*
X97285580Y-157581829D02*
X97209390Y-157543734D01*
X97209390Y-157543734D02*
X97133200Y-157467544D01*
X97133200Y-157467544D02*
X97095104Y-157353258D01*
X97095104Y-157353258D02*
X97095104Y-157162782D01*
X97095104Y-158000877D02*
X97095104Y-158153258D01*
X97095104Y-158153258D02*
X97133200Y-158229448D01*
X97133200Y-158229448D02*
X97171295Y-158267544D01*
X97171295Y-158267544D02*
X97285580Y-158343734D01*
X97285580Y-158343734D02*
X97437961Y-158381829D01*
X97437961Y-158381829D02*
X97742723Y-158381829D01*
X97742723Y-158381829D02*
X97818914Y-158343734D01*
X97818914Y-158343734D02*
X97857009Y-158305639D01*
X97857009Y-158305639D02*
X97895104Y-158229448D01*
X97895104Y-158229448D02*
X97895104Y-158077067D01*
X97895104Y-158077067D02*
X97857009Y-158000877D01*
X97857009Y-158000877D02*
X97818914Y-157962782D01*
X97818914Y-157962782D02*
X97742723Y-157924686D01*
X97742723Y-157924686D02*
X97552247Y-157924686D01*
X97552247Y-157924686D02*
X97476057Y-157962782D01*
X97476057Y-157962782D02*
X97437961Y-158000877D01*
X97437961Y-158000877D02*
X97399866Y-158077067D01*
X97399866Y-158077067D02*
X97399866Y-158229448D01*
X97399866Y-158229448D02*
X97437961Y-158305639D01*
X97437961Y-158305639D02*
X97476057Y-158343734D01*
X97476057Y-158343734D02*
X97552247Y-158381829D01*
X99635104Y-145656265D02*
X100435104Y-145656265D01*
X100435104Y-145656265D02*
X100435104Y-145846741D01*
X100435104Y-145846741D02*
X100397009Y-145961027D01*
X100397009Y-145961027D02*
X100320819Y-146037217D01*
X100320819Y-146037217D02*
X100244628Y-146075312D01*
X100244628Y-146075312D02*
X100092247Y-146113408D01*
X100092247Y-146113408D02*
X99977961Y-146113408D01*
X99977961Y-146113408D02*
X99825580Y-146075312D01*
X99825580Y-146075312D02*
X99749390Y-146037217D01*
X99749390Y-146037217D02*
X99673200Y-145961027D01*
X99673200Y-145961027D02*
X99635104Y-145846741D01*
X99635104Y-145846741D02*
X99635104Y-145656265D01*
X100435104Y-146380074D02*
X100435104Y-146875312D01*
X100435104Y-146875312D02*
X100130342Y-146608646D01*
X100130342Y-146608646D02*
X100130342Y-146722931D01*
X100130342Y-146722931D02*
X100092247Y-146799122D01*
X100092247Y-146799122D02*
X100054152Y-146837217D01*
X100054152Y-146837217D02*
X99977961Y-146875312D01*
X99977961Y-146875312D02*
X99787485Y-146875312D01*
X99787485Y-146875312D02*
X99711295Y-146837217D01*
X99711295Y-146837217D02*
X99673200Y-146799122D01*
X99673200Y-146799122D02*
X99635104Y-146722931D01*
X99635104Y-146722931D02*
X99635104Y-146494360D01*
X99635104Y-146494360D02*
X99673200Y-146418169D01*
X99673200Y-146418169D02*
X99711295Y-146380074D01*
X99635104Y-156400877D02*
X100435104Y-156400877D01*
X100435104Y-156400877D02*
X100435104Y-156591353D01*
X100435104Y-156591353D02*
X100397009Y-156705639D01*
X100397009Y-156705639D02*
X100320819Y-156781829D01*
X100320819Y-156781829D02*
X100244628Y-156819924D01*
X100244628Y-156819924D02*
X100092247Y-156858020D01*
X100092247Y-156858020D02*
X99977961Y-156858020D01*
X99977961Y-156858020D02*
X99825580Y-156819924D01*
X99825580Y-156819924D02*
X99749390Y-156781829D01*
X99749390Y-156781829D02*
X99673200Y-156705639D01*
X99673200Y-156705639D02*
X99635104Y-156591353D01*
X99635104Y-156591353D02*
X99635104Y-156400877D01*
X99635104Y-157619924D02*
X99635104Y-157162781D01*
X99635104Y-157391353D02*
X100435104Y-157391353D01*
X100435104Y-157391353D02*
X100320819Y-157315162D01*
X100320819Y-157315162D02*
X100244628Y-157238972D01*
X100244628Y-157238972D02*
X100206533Y-157162781D01*
X100435104Y-158115163D02*
X100435104Y-158191353D01*
X100435104Y-158191353D02*
X100397009Y-158267544D01*
X100397009Y-158267544D02*
X100358914Y-158305639D01*
X100358914Y-158305639D02*
X100282723Y-158343734D01*
X100282723Y-158343734D02*
X100130342Y-158381829D01*
X100130342Y-158381829D02*
X99939866Y-158381829D01*
X99939866Y-158381829D02*
X99787485Y-158343734D01*
X99787485Y-158343734D02*
X99711295Y-158305639D01*
X99711295Y-158305639D02*
X99673200Y-158267544D01*
X99673200Y-158267544D02*
X99635104Y-158191353D01*
X99635104Y-158191353D02*
X99635104Y-158115163D01*
X99635104Y-158115163D02*
X99673200Y-158038972D01*
X99673200Y-158038972D02*
X99711295Y-158000877D01*
X99711295Y-158000877D02*
X99787485Y-157962782D01*
X99787485Y-157962782D02*
X99939866Y-157924686D01*
X99939866Y-157924686D02*
X100130342Y-157924686D01*
X100130342Y-157924686D02*
X100282723Y-157962782D01*
X100282723Y-157962782D02*
X100358914Y-158000877D01*
X100358914Y-158000877D02*
X100397009Y-158038972D01*
X100397009Y-158038972D02*
X100435104Y-158115163D01*
X102175104Y-145656265D02*
X102975104Y-145656265D01*
X102975104Y-145656265D02*
X102975104Y-145846741D01*
X102975104Y-145846741D02*
X102937009Y-145961027D01*
X102937009Y-145961027D02*
X102860819Y-146037217D01*
X102860819Y-146037217D02*
X102784628Y-146075312D01*
X102784628Y-146075312D02*
X102632247Y-146113408D01*
X102632247Y-146113408D02*
X102517961Y-146113408D01*
X102517961Y-146113408D02*
X102365580Y-146075312D01*
X102365580Y-146075312D02*
X102289390Y-146037217D01*
X102289390Y-146037217D02*
X102213200Y-145961027D01*
X102213200Y-145961027D02*
X102175104Y-145846741D01*
X102175104Y-145846741D02*
X102175104Y-145656265D01*
X102898914Y-146418169D02*
X102937009Y-146456265D01*
X102937009Y-146456265D02*
X102975104Y-146532455D01*
X102975104Y-146532455D02*
X102975104Y-146722931D01*
X102975104Y-146722931D02*
X102937009Y-146799122D01*
X102937009Y-146799122D02*
X102898914Y-146837217D01*
X102898914Y-146837217D02*
X102822723Y-146875312D01*
X102822723Y-146875312D02*
X102746533Y-146875312D01*
X102746533Y-146875312D02*
X102632247Y-146837217D01*
X102632247Y-146837217D02*
X102175104Y-146380074D01*
X102175104Y-146380074D02*
X102175104Y-146875312D01*
X102975105Y-156438972D02*
X102975105Y-156934210D01*
X102975105Y-156934210D02*
X102670343Y-156667544D01*
X102670343Y-156667544D02*
X102670343Y-156781829D01*
X102670343Y-156781829D02*
X102632248Y-156858020D01*
X102632248Y-156858020D02*
X102594153Y-156896115D01*
X102594153Y-156896115D02*
X102517962Y-156934210D01*
X102517962Y-156934210D02*
X102327486Y-156934210D01*
X102327486Y-156934210D02*
X102251296Y-156896115D01*
X102251296Y-156896115D02*
X102213201Y-156858020D01*
X102213201Y-156858020D02*
X102175105Y-156781829D01*
X102175105Y-156781829D02*
X102175105Y-156553258D01*
X102175105Y-156553258D02*
X102213201Y-156477067D01*
X102213201Y-156477067D02*
X102251296Y-156438972D01*
X102975105Y-157162782D02*
X102175105Y-157429449D01*
X102175105Y-157429449D02*
X102975105Y-157696115D01*
X102975105Y-157886591D02*
X102975105Y-158381829D01*
X102975105Y-158381829D02*
X102670343Y-158115163D01*
X102670343Y-158115163D02*
X102670343Y-158229448D01*
X102670343Y-158229448D02*
X102632248Y-158305639D01*
X102632248Y-158305639D02*
X102594153Y-158343734D01*
X102594153Y-158343734D02*
X102517962Y-158381829D01*
X102517962Y-158381829D02*
X102327486Y-158381829D01*
X102327486Y-158381829D02*
X102251296Y-158343734D01*
X102251296Y-158343734D02*
X102213201Y-158305639D01*
X102213201Y-158305639D02*
X102175105Y-158229448D01*
X102175105Y-158229448D02*
X102175105Y-158000877D01*
X102175105Y-158000877D02*
X102213201Y-157924686D01*
X102213201Y-157924686D02*
X102251296Y-157886591D01*
X104715104Y-145656265D02*
X105515104Y-145656265D01*
X105515104Y-145656265D02*
X105515104Y-145846741D01*
X105515104Y-145846741D02*
X105477009Y-145961027D01*
X105477009Y-145961027D02*
X105400819Y-146037217D01*
X105400819Y-146037217D02*
X105324628Y-146075312D01*
X105324628Y-146075312D02*
X105172247Y-146113408D01*
X105172247Y-146113408D02*
X105057961Y-146113408D01*
X105057961Y-146113408D02*
X104905580Y-146075312D01*
X104905580Y-146075312D02*
X104829390Y-146037217D01*
X104829390Y-146037217D02*
X104753200Y-145961027D01*
X104753200Y-145961027D02*
X104715104Y-145846741D01*
X104715104Y-145846741D02*
X104715104Y-145656265D01*
X104715104Y-146875312D02*
X104715104Y-146418169D01*
X104715104Y-146646741D02*
X105515104Y-146646741D01*
X105515104Y-146646741D02*
X105400819Y-146570550D01*
X105400819Y-146570550D02*
X105324628Y-146494360D01*
X105324628Y-146494360D02*
X105286533Y-146418169D01*
X105477009Y-156705639D02*
X105515104Y-156629449D01*
X105515104Y-156629449D02*
X105515104Y-156515163D01*
X105515104Y-156515163D02*
X105477009Y-156400877D01*
X105477009Y-156400877D02*
X105400819Y-156324687D01*
X105400819Y-156324687D02*
X105324628Y-156286592D01*
X105324628Y-156286592D02*
X105172247Y-156248496D01*
X105172247Y-156248496D02*
X105057961Y-156248496D01*
X105057961Y-156248496D02*
X104905580Y-156286592D01*
X104905580Y-156286592D02*
X104829390Y-156324687D01*
X104829390Y-156324687D02*
X104753200Y-156400877D01*
X104753200Y-156400877D02*
X104715104Y-156515163D01*
X104715104Y-156515163D02*
X104715104Y-156591354D01*
X104715104Y-156591354D02*
X104753200Y-156705639D01*
X104753200Y-156705639D02*
X104791295Y-156743735D01*
X104791295Y-156743735D02*
X105057961Y-156743735D01*
X105057961Y-156743735D02*
X105057961Y-156591354D01*
X104715104Y-157086592D02*
X105515104Y-157086592D01*
X105515104Y-157086592D02*
X104715104Y-157543735D01*
X104715104Y-157543735D02*
X105515104Y-157543735D01*
X104715104Y-157924687D02*
X105515104Y-157924687D01*
X105515104Y-157924687D02*
X105515104Y-158115163D01*
X105515104Y-158115163D02*
X105477009Y-158229449D01*
X105477009Y-158229449D02*
X105400819Y-158305639D01*
X105400819Y-158305639D02*
X105324628Y-158343734D01*
X105324628Y-158343734D02*
X105172247Y-158381830D01*
X105172247Y-158381830D02*
X105057961Y-158381830D01*
X105057961Y-158381830D02*
X104905580Y-158343734D01*
X104905580Y-158343734D02*
X104829390Y-158305639D01*
X104829390Y-158305639D02*
X104753200Y-158229449D01*
X104753200Y-158229449D02*
X104715104Y-158115163D01*
X104715104Y-158115163D02*
X104715104Y-157924687D01*
X107255104Y-145656265D02*
X108055104Y-145656265D01*
X108055104Y-145656265D02*
X108055104Y-145846741D01*
X108055104Y-145846741D02*
X108017009Y-145961027D01*
X108017009Y-145961027D02*
X107940819Y-146037217D01*
X107940819Y-146037217D02*
X107864628Y-146075312D01*
X107864628Y-146075312D02*
X107712247Y-146113408D01*
X107712247Y-146113408D02*
X107597961Y-146113408D01*
X107597961Y-146113408D02*
X107445580Y-146075312D01*
X107445580Y-146075312D02*
X107369390Y-146037217D01*
X107369390Y-146037217D02*
X107293200Y-145961027D01*
X107293200Y-145961027D02*
X107255104Y-145846741D01*
X107255104Y-145846741D02*
X107255104Y-145656265D01*
X108055104Y-146608646D02*
X108055104Y-146684836D01*
X108055104Y-146684836D02*
X108017009Y-146761027D01*
X108017009Y-146761027D02*
X107978914Y-146799122D01*
X107978914Y-146799122D02*
X107902723Y-146837217D01*
X107902723Y-146837217D02*
X107750342Y-146875312D01*
X107750342Y-146875312D02*
X107559866Y-146875312D01*
X107559866Y-146875312D02*
X107407485Y-146837217D01*
X107407485Y-146837217D02*
X107331295Y-146799122D01*
X107331295Y-146799122D02*
X107293200Y-146761027D01*
X107293200Y-146761027D02*
X107255104Y-146684836D01*
X107255104Y-146684836D02*
X107255104Y-146608646D01*
X107255104Y-146608646D02*
X107293200Y-146532455D01*
X107293200Y-146532455D02*
X107331295Y-146494360D01*
X107331295Y-146494360D02*
X107407485Y-146456265D01*
X107407485Y-146456265D02*
X107559866Y-146418169D01*
X107559866Y-146418169D02*
X107750342Y-146418169D01*
X107750342Y-146418169D02*
X107902723Y-146456265D01*
X107902723Y-146456265D02*
X107978914Y-146494360D01*
X107978914Y-146494360D02*
X108017009Y-146532455D01*
X108017009Y-146532455D02*
X108055104Y-146608646D01*
X108055104Y-155524687D02*
X107255104Y-155791354D01*
X107255104Y-155791354D02*
X108055104Y-156058020D01*
X108055104Y-156324687D02*
X107407485Y-156324687D01*
X107407485Y-156324687D02*
X107331295Y-156362782D01*
X107331295Y-156362782D02*
X107293200Y-156400877D01*
X107293200Y-156400877D02*
X107255104Y-156477068D01*
X107255104Y-156477068D02*
X107255104Y-156629449D01*
X107255104Y-156629449D02*
X107293200Y-156705639D01*
X107293200Y-156705639D02*
X107331295Y-156743734D01*
X107331295Y-156743734D02*
X107407485Y-156781830D01*
X107407485Y-156781830D02*
X108055104Y-156781830D01*
X107293200Y-157124686D02*
X107255104Y-157238972D01*
X107255104Y-157238972D02*
X107255104Y-157429448D01*
X107255104Y-157429448D02*
X107293200Y-157505639D01*
X107293200Y-157505639D02*
X107331295Y-157543734D01*
X107331295Y-157543734D02*
X107407485Y-157581829D01*
X107407485Y-157581829D02*
X107483676Y-157581829D01*
X107483676Y-157581829D02*
X107559866Y-157543734D01*
X107559866Y-157543734D02*
X107597961Y-157505639D01*
X107597961Y-157505639D02*
X107636057Y-157429448D01*
X107636057Y-157429448D02*
X107674152Y-157277067D01*
X107674152Y-157277067D02*
X107712247Y-157200877D01*
X107712247Y-157200877D02*
X107750342Y-157162782D01*
X107750342Y-157162782D02*
X107826533Y-157124686D01*
X107826533Y-157124686D02*
X107902723Y-157124686D01*
X107902723Y-157124686D02*
X107978914Y-157162782D01*
X107978914Y-157162782D02*
X108017009Y-157200877D01*
X108017009Y-157200877D02*
X108055104Y-157277067D01*
X108055104Y-157277067D02*
X108055104Y-157467544D01*
X108055104Y-157467544D02*
X108017009Y-157581829D01*
X107674152Y-158191353D02*
X107636057Y-158305639D01*
X107636057Y-158305639D02*
X107597961Y-158343734D01*
X107597961Y-158343734D02*
X107521771Y-158381830D01*
X107521771Y-158381830D02*
X107407485Y-158381830D01*
X107407485Y-158381830D02*
X107331295Y-158343734D01*
X107331295Y-158343734D02*
X107293200Y-158305639D01*
X107293200Y-158305639D02*
X107255104Y-158229449D01*
X107255104Y-158229449D02*
X107255104Y-157924687D01*
X107255104Y-157924687D02*
X108055104Y-157924687D01*
X108055104Y-157924687D02*
X108055104Y-158191353D01*
X108055104Y-158191353D02*
X108017009Y-158267544D01*
X108017009Y-158267544D02*
X107978914Y-158305639D01*
X107978914Y-158305639D02*
X107902723Y-158343734D01*
X107902723Y-158343734D02*
X107826533Y-158343734D01*
X107826533Y-158343734D02*
X107750342Y-158305639D01*
X107750342Y-158305639D02*
X107712247Y-158267544D01*
X107712247Y-158267544D02*
X107674152Y-158191353D01*
X107674152Y-158191353D02*
X107674152Y-157924687D01*
D11*
%TO.C,G\u002A\u002A\u002A*%
G36*
X115843237Y-151083068D02*
G01*
X115835133Y-151098934D01*
X115818429Y-151133661D01*
X115794569Y-151184117D01*
X115765005Y-151247172D01*
X115731181Y-151319695D01*
X115694545Y-151398552D01*
X115656544Y-151480614D01*
X115618625Y-151562750D01*
X115582238Y-151641829D01*
X115548827Y-151714720D01*
X115519841Y-151778290D01*
X115496726Y-151829408D01*
X115480930Y-151864945D01*
X115473900Y-151881769D01*
X115473674Y-151882629D01*
X115485126Y-151888138D01*
X115516687Y-151897648D01*
X115564170Y-151910038D01*
X115623383Y-151924185D01*
X115656829Y-151931733D01*
X116025514Y-152025741D01*
X116385877Y-152142544D01*
X116736596Y-152281592D01*
X117076352Y-152442337D01*
X117403820Y-152624229D01*
X117565490Y-152724841D01*
X117825803Y-152905435D01*
X118082755Y-153108143D01*
X118333481Y-153330252D01*
X118575120Y-153569044D01*
X118804808Y-153821808D01*
X119019681Y-154085827D01*
X119067732Y-154149232D01*
X119296253Y-154475091D01*
X119508665Y-154819352D01*
X119704529Y-155181143D01*
X119883403Y-155559596D01*
X120044845Y-155953840D01*
X120185233Y-156353164D01*
X120224702Y-156479635D01*
X120264170Y-156614920D01*
X120302234Y-156753592D01*
X120337490Y-156890230D01*
X120368538Y-157019405D01*
X120393974Y-157135693D01*
X120411468Y-157228142D01*
X120421070Y-157286044D01*
X120426370Y-157324958D01*
X120427249Y-157350379D01*
X120423588Y-157367798D01*
X120415264Y-157382710D01*
X120407861Y-157392901D01*
X120380328Y-157418877D01*
X120342738Y-157430098D01*
X120332090Y-157431134D01*
X120299488Y-157430230D01*
X120274019Y-157419948D01*
X120253782Y-157397198D01*
X120236870Y-157358885D01*
X120221379Y-157301921D01*
X120206005Y-157226438D01*
X120134467Y-156897289D01*
X120042244Y-156561457D01*
X119930952Y-156222622D01*
X119802214Y-155884463D01*
X119657648Y-155550655D01*
X119498875Y-155224882D01*
X119327513Y-154910821D01*
X119145182Y-154612150D01*
X118953502Y-154332549D01*
X118900493Y-154260985D01*
X118700419Y-154010041D01*
X118485419Y-153767664D01*
X118259270Y-153537643D01*
X118025748Y-153323765D01*
X117788634Y-153129814D01*
X117720380Y-153078313D01*
X117423860Y-152874218D01*
X117112701Y-152689874D01*
X116787866Y-152525714D01*
X116450323Y-152382174D01*
X116101042Y-152259688D01*
X115740988Y-152158692D01*
X115598794Y-152125428D01*
X115543205Y-152113424D01*
X115497478Y-152104101D01*
X115466455Y-152098408D01*
X115454990Y-152097246D01*
X115457567Y-152109536D01*
X115465883Y-152143032D01*
X115479216Y-152194958D01*
X115496844Y-152262544D01*
X115518045Y-152343012D01*
X115542094Y-152433590D01*
X115562548Y-152510154D01*
X115588335Y-152606983D01*
X115611789Y-152696113D01*
X115632191Y-152774730D01*
X115648823Y-152840016D01*
X115660963Y-152889157D01*
X115667894Y-152919335D01*
X115669221Y-152927897D01*
X115659491Y-152922938D01*
X115634843Y-152903885D01*
X115598614Y-152873486D01*
X115554137Y-152834486D01*
X115535760Y-152817975D01*
X115353393Y-152662880D01*
X115148951Y-152507027D01*
X114925063Y-152352179D01*
X114684361Y-152200099D01*
X114429475Y-152052550D01*
X114247746Y-151954845D01*
X114071077Y-151862721D01*
X114173243Y-151833607D01*
X114431562Y-151753118D01*
X114693235Y-151658468D01*
X114953303Y-151551891D01*
X115206807Y-151435623D01*
X115448788Y-151311895D01*
X115674285Y-151182945D01*
X115814668Y-151094081D01*
X115836274Y-151081622D01*
X115844125Y-151080986D01*
X115843237Y-151083068D01*
G37*
%TO.C,J1*%
D10*
X136000000Y-138630001D02*
X136000000Y-153870001D01*
D15*
X129750000Y-138630001D02*
X129750000Y-153870001D01*
X128480000Y-153870001D02*
X135990000Y-153870001D01*
X128480000Y-138630001D02*
X135990000Y-138630001D01*
X128480000Y-138630001D02*
X128480000Y-153870001D01*
D11*
%TO.C,G\u002A\u002A\u002A*%
G36*
X90986264Y-126406671D02*
G01*
X90986264Y-126614737D01*
X90778198Y-126614737D01*
X90570133Y-126614737D01*
X90570133Y-126406671D01*
X90570133Y-126198606D01*
X90778198Y-126198606D01*
X90986264Y-126198606D01*
X90986264Y-126406671D01*
G37*
G36*
X92618778Y-124358026D02*
G01*
X92618778Y-124966218D01*
X92002584Y-124966218D01*
X91386390Y-124966218D01*
X91386390Y-124358026D01*
X91386390Y-123749835D01*
X92002584Y-123749835D01*
X92618778Y-123749835D01*
X92618778Y-124358026D01*
G37*
G36*
X92618778Y-133352859D02*
G01*
X92618778Y-133961051D01*
X92002584Y-133961051D01*
X91386390Y-133961051D01*
X91386390Y-133352859D01*
X91386390Y-132744668D01*
X92002584Y-132744668D01*
X92618778Y-132744668D01*
X92618778Y-133352859D01*
G37*
G36*
X93435035Y-127222928D02*
G01*
X93435035Y-127430994D01*
X93234972Y-127430994D01*
X93034909Y-127430994D01*
X93034909Y-127222928D01*
X93034909Y-127014863D01*
X93234972Y-127014863D01*
X93435035Y-127014863D01*
X93435035Y-127222928D01*
G37*
G36*
X93851166Y-126814800D02*
G01*
X93851166Y-127014863D01*
X93643101Y-127014863D01*
X93435035Y-127014863D01*
X93435035Y-126814800D01*
X93435035Y-126614737D01*
X93643101Y-126614737D01*
X93851166Y-126614737D01*
X93851166Y-126814800D01*
G37*
G36*
X95067549Y-125590414D02*
G01*
X95067549Y-125798480D01*
X94867486Y-125798480D01*
X94667423Y-125798480D01*
X94667423Y-125590414D01*
X94667423Y-125382349D01*
X94867486Y-125382349D01*
X95067549Y-125382349D01*
X95067549Y-125590414D01*
G37*
G36*
X95067549Y-126406671D02*
G01*
X95067549Y-126614737D01*
X94659421Y-126614737D01*
X94251292Y-126614737D01*
X94251292Y-126406671D01*
X94251292Y-126198606D01*
X94659421Y-126198606D01*
X95067549Y-126198606D01*
X95067549Y-126406671D01*
G37*
G36*
X95067549Y-128447314D02*
G01*
X95067549Y-128647377D01*
X94867486Y-128647377D01*
X94667423Y-128647377D01*
X94667423Y-128447314D01*
X94667423Y-128247251D01*
X94867486Y-128247251D01*
X95067549Y-128247251D01*
X95067549Y-128447314D01*
G37*
G36*
X95883806Y-130287894D02*
G01*
X95883806Y-130696022D01*
X95683743Y-130696022D01*
X95483680Y-130696022D01*
X95483680Y-130287894D01*
X95483680Y-129879765D01*
X95683743Y-129879765D01*
X95883806Y-129879765D01*
X95883806Y-130287894D01*
G37*
G36*
X96716069Y-123949898D02*
G01*
X96716069Y-124149961D01*
X96508003Y-124149961D01*
X96299937Y-124149961D01*
X96299937Y-123949898D01*
X96299937Y-123749835D01*
X96508003Y-123749835D01*
X96716069Y-123749835D01*
X96716069Y-123949898D01*
G37*
G36*
X96716069Y-127631057D02*
G01*
X96716069Y-127831120D01*
X96508003Y-127831120D01*
X96299937Y-127831120D01*
X96299937Y-127631057D01*
X96299937Y-127430994D01*
X96508003Y-127430994D01*
X96716069Y-127430994D01*
X96716069Y-127631057D01*
G37*
G36*
X96716069Y-130904088D02*
G01*
X96716069Y-131112153D01*
X96508003Y-131112153D01*
X96299937Y-131112153D01*
X96299937Y-130904088D01*
X96299937Y-130696022D01*
X96508003Y-130696022D01*
X96716069Y-130696022D01*
X96716069Y-130904088D01*
G37*
G36*
X97532326Y-123133641D02*
G01*
X97532326Y-123333704D01*
X97124197Y-123333704D01*
X96716069Y-123333704D01*
X96716069Y-123133641D01*
X96716069Y-122933578D01*
X97124197Y-122933578D01*
X97532326Y-122933578D01*
X97532326Y-123133641D01*
G37*
G36*
X97532326Y-134169116D02*
G01*
X97532326Y-134377182D01*
X97324260Y-134377182D01*
X97116195Y-134377182D01*
X97116195Y-134169116D01*
X97116195Y-133961051D01*
X97324260Y-133961051D01*
X97532326Y-133961051D01*
X97532326Y-134169116D01*
G37*
G36*
X99164840Y-124558089D02*
G01*
X99164840Y-124966218D01*
X98956774Y-124966218D01*
X98748709Y-124966218D01*
X98748709Y-124558089D01*
X98748709Y-124149961D01*
X98956774Y-124149961D01*
X99164840Y-124149961D01*
X99164840Y-124558089D01*
G37*
G36*
X99164840Y-126814800D02*
G01*
X99164840Y-127014863D01*
X98956774Y-127014863D01*
X98748709Y-127014863D01*
X98748709Y-126814800D01*
X98748709Y-126614737D01*
X98956774Y-126614737D01*
X99164840Y-126614737D01*
X99164840Y-126814800D01*
G37*
G36*
X99981097Y-132128474D02*
G01*
X99981097Y-132328537D01*
X99773031Y-132328537D01*
X99564966Y-132328537D01*
X99564966Y-132128474D01*
X99564966Y-131928411D01*
X99773031Y-131928411D01*
X99981097Y-131928411D01*
X99981097Y-132128474D01*
G37*
G36*
X99981097Y-134577245D02*
G01*
X99981097Y-134777308D01*
X99364903Y-134777308D01*
X98748709Y-134777308D01*
X98748709Y-134577245D01*
X98748709Y-134377182D01*
X99364903Y-134377182D01*
X99981097Y-134377182D01*
X99981097Y-134577245D01*
G37*
G36*
X101613611Y-124358026D02*
G01*
X101613611Y-124966218D01*
X100997417Y-124966218D01*
X100381223Y-124966218D01*
X100381223Y-124358026D01*
X100381223Y-123749835D01*
X100997417Y-123749835D01*
X101613611Y-123749835D01*
X101613611Y-124358026D01*
G37*
G36*
X102429868Y-127631057D02*
G01*
X102429868Y-127831120D01*
X102229805Y-127831120D01*
X102029742Y-127831120D01*
X102029742Y-127631057D01*
X102029742Y-127430994D01*
X102229805Y-127430994D01*
X102429868Y-127430994D01*
X102429868Y-127631057D01*
G37*
G36*
X102429868Y-134169116D02*
G01*
X102429868Y-134377182D01*
X102229805Y-134377182D01*
X102029742Y-134377182D01*
X102029742Y-134169116D01*
X102029742Y-133961051D01*
X102229805Y-133961051D01*
X102429868Y-133961051D01*
X102429868Y-134169116D01*
G37*
G36*
X99164840Y-123133641D02*
G01*
X99164840Y-123333704D01*
X98956774Y-123333704D01*
X98748709Y-123333704D01*
X98748709Y-123741832D01*
X98748709Y-124149961D01*
X98548646Y-124149961D01*
X98348583Y-124149961D01*
X98348583Y-123541769D01*
X98348583Y-122933578D01*
X98756711Y-122933578D01*
X99164840Y-122933578D01*
X99164840Y-123133641D01*
G37*
G36*
X100882342Y-136894952D02*
G01*
X100911938Y-136930582D01*
X100922829Y-136978537D01*
X100911764Y-137027196D01*
X100893518Y-137053275D01*
X100863349Y-137064324D01*
X100829311Y-137066029D01*
X100785526Y-137062819D01*
X100761807Y-137049043D01*
X100748055Y-137022640D01*
X100738403Y-136964213D01*
X100754544Y-136915980D01*
X100789793Y-136886860D01*
X100839730Y-136878196D01*
X100882342Y-136894952D01*
G37*
G36*
X92234657Y-136137736D02*
G01*
X92234657Y-136201756D01*
X92090612Y-136201756D01*
X91946566Y-136201756D01*
X91946566Y-136625890D01*
X91946566Y-137050024D01*
X91874544Y-137050024D01*
X91802521Y-137050024D01*
X91802521Y-136625890D01*
X91802521Y-136201756D01*
X91650473Y-136201756D01*
X91498425Y-136201756D01*
X91498425Y-136137736D01*
X91498425Y-136073716D01*
X91866541Y-136073716D01*
X92234657Y-136073716D01*
X92234657Y-136137736D01*
G37*
G36*
X93435035Y-133352859D02*
G01*
X93435035Y-134777308D01*
X92002584Y-134777308D01*
X90570133Y-134777308D01*
X90570133Y-134377182D01*
X90986264Y-134377182D01*
X92010586Y-134377182D01*
X93034909Y-134377182D01*
X93034909Y-133352859D01*
X93034909Y-132328537D01*
X92010586Y-132328537D01*
X90986264Y-132328537D01*
X90986264Y-133352859D01*
X90986264Y-134377182D01*
X90570133Y-134377182D01*
X90570133Y-133352859D01*
X90570133Y-131928411D01*
X92002584Y-131928411D01*
X93435035Y-131928411D01*
X93435035Y-133352859D01*
G37*
G36*
X93435035Y-124366029D02*
G01*
X93435035Y-125798480D01*
X92002584Y-125798480D01*
X90570133Y-125798480D01*
X90570133Y-125382349D01*
X90986264Y-125382349D01*
X92010586Y-125382349D01*
X93034909Y-125382349D01*
X93034909Y-124358026D01*
X93034909Y-123333704D01*
X92010586Y-123333704D01*
X90986264Y-123333704D01*
X90986264Y-124358026D01*
X90986264Y-125382349D01*
X90570133Y-125382349D01*
X90570133Y-124366029D01*
X90570133Y-124358026D01*
X90570133Y-122933578D01*
X92002584Y-122933578D01*
X93435035Y-122933578D01*
X93435035Y-124366029D01*
G37*
G36*
X102429868Y-124366029D02*
G01*
X102429868Y-125798480D01*
X100997417Y-125798480D01*
X99564966Y-125798480D01*
X99564966Y-125382349D01*
X99981097Y-125382349D01*
X101005419Y-125382349D01*
X102029742Y-125382349D01*
X102029742Y-124358026D01*
X102029742Y-123333704D01*
X101005419Y-123333704D01*
X99981097Y-123333704D01*
X99981097Y-124358026D01*
X99981097Y-125382349D01*
X99564966Y-125382349D01*
X99564966Y-124366029D01*
X99564966Y-124358026D01*
X99564966Y-122933578D01*
X100997417Y-122933578D01*
X102429868Y-122933578D01*
X102429868Y-124366029D01*
G37*
G36*
X93435035Y-129671700D02*
G01*
X93435035Y-129879765D01*
X93234972Y-129879765D01*
X93034909Y-129879765D01*
X93034909Y-130087831D01*
X93034909Y-130295896D01*
X92826844Y-130295896D01*
X92618778Y-130295896D01*
X92618778Y-130495959D01*
X92618778Y-130696022D01*
X92418715Y-130696022D01*
X92218652Y-130696022D01*
X92218652Y-130287894D01*
X92218652Y-129879765D01*
X92626781Y-129879765D01*
X93034909Y-129879765D01*
X93034909Y-129671700D01*
X93034909Y-129463634D01*
X93234972Y-129463634D01*
X93435035Y-129463634D01*
X93435035Y-129671700D01*
G37*
G36*
X98348583Y-125590414D02*
G01*
X98348583Y-125798480D01*
X98548646Y-125798480D01*
X98748709Y-125798480D01*
X98748709Y-125590414D01*
X98748709Y-125382349D01*
X98956774Y-125382349D01*
X99164840Y-125382349D01*
X99164840Y-125790477D01*
X99164840Y-126198606D01*
X98756711Y-126198606D01*
X98348583Y-126198606D01*
X98348583Y-126406671D01*
X98348583Y-126614737D01*
X98140517Y-126614737D01*
X97932452Y-126614737D01*
X97932452Y-125998543D01*
X97932452Y-125382349D01*
X98140517Y-125382349D01*
X98348583Y-125382349D01*
X98348583Y-125590414D01*
G37*
G36*
X99164840Y-128447314D02*
G01*
X99164840Y-128647377D01*
X98956774Y-128647377D01*
X98748709Y-128647377D01*
X98748709Y-129055506D01*
X98748709Y-129463634D01*
X98340580Y-129463634D01*
X97932452Y-129463634D01*
X97932452Y-129263571D01*
X97932452Y-129063508D01*
X98140517Y-129063508D01*
X98348583Y-129063508D01*
X98348583Y-128855443D01*
X98348583Y-128647377D01*
X98140517Y-128647377D01*
X97932452Y-128647377D01*
X97932452Y-128447314D01*
X97932452Y-128247251D01*
X98548646Y-128247251D01*
X99164840Y-128247251D01*
X99164840Y-128447314D01*
G37*
G36*
X102029742Y-133760988D02*
G01*
X102029742Y-133961051D01*
X101821677Y-133961051D01*
X101613611Y-133961051D01*
X101613611Y-134369179D01*
X101613611Y-134777308D01*
X100997417Y-134777308D01*
X100381223Y-134777308D01*
X100381223Y-134577245D01*
X100381223Y-134377182D01*
X100589288Y-134377182D01*
X100797354Y-134377182D01*
X100797354Y-134169116D01*
X100797354Y-133961051D01*
X100997417Y-133961051D01*
X101197480Y-133961051D01*
X101197480Y-133760988D01*
X101197480Y-133560925D01*
X101613611Y-133560925D01*
X102029742Y-133560925D01*
X102029742Y-133760988D01*
G37*
G36*
X101501576Y-136561870D02*
G01*
X101501576Y-137050024D01*
X101437556Y-137050024D01*
X101373535Y-137050024D01*
X101373535Y-136640550D01*
X101373535Y-136231077D01*
X101308115Y-136284438D01*
X101253239Y-136328986D01*
X101217388Y-136355493D01*
X101194482Y-136365777D01*
X101178439Y-136361654D01*
X101163178Y-136344940D01*
X101152771Y-136330845D01*
X101118093Y-136283941D01*
X101252704Y-136178828D01*
X101318597Y-136129063D01*
X101367022Y-136097292D01*
X101404274Y-136080062D01*
X101436651Y-136073923D01*
X101444446Y-136073716D01*
X101501576Y-136073716D01*
X101501576Y-136561870D01*
G37*
G36*
X101197480Y-128447314D02*
G01*
X101197480Y-128647377D01*
X101405546Y-128647377D01*
X101613611Y-128647377D01*
X101613611Y-128447314D01*
X101613611Y-128247251D01*
X101821677Y-128247251D01*
X102029742Y-128247251D01*
X102029742Y-128447314D01*
X102029742Y-128647377D01*
X102229805Y-128647377D01*
X102429868Y-128647377D01*
X102429868Y-129055506D01*
X102429868Y-129463634D01*
X102021740Y-129463634D01*
X101613611Y-129463634D01*
X101613611Y-129263571D01*
X101613611Y-129063508D01*
X101205483Y-129063508D01*
X100797354Y-129063508D01*
X100797354Y-129471637D01*
X100797354Y-129879765D01*
X100589288Y-129879765D01*
X100381223Y-129879765D01*
X100381223Y-130087831D01*
X100381223Y-130295896D01*
X100181160Y-130295896D01*
X99981097Y-130295896D01*
X99981097Y-129879765D01*
X99981097Y-129463634D01*
X99773031Y-129463634D01*
X99564966Y-129463634D01*
X99564966Y-129263571D01*
X99564966Y-129063508D01*
X100181160Y-129063508D01*
X100797354Y-129063508D01*
X100797354Y-128655380D01*
X100797354Y-128247251D01*
X100997417Y-128247251D01*
X101197480Y-128247251D01*
X101197480Y-128447314D01*
G37*
G36*
X99372681Y-136453836D02*
G01*
X99402731Y-136537627D01*
X99436659Y-136633730D01*
X99468114Y-136724125D01*
X99474227Y-136741908D01*
X99496648Y-136804814D01*
X99515985Y-136854441D01*
X99529599Y-136884268D01*
X99534034Y-136889955D01*
X99543218Y-136876004D01*
X99557918Y-136839731D01*
X99572056Y-136797944D01*
X99589085Y-136746350D01*
X99613905Y-136674382D01*
X99643150Y-136591671D01*
X99672721Y-136509853D01*
X99744444Y-136313792D01*
X99816468Y-136313792D01*
X99863088Y-136316831D01*
X99881344Y-136326593D01*
X99881009Y-136333798D01*
X99873376Y-136353935D01*
X99856046Y-136399508D01*
X99830722Y-136466045D01*
X99799107Y-136549070D01*
X99762903Y-136644110D01*
X99740879Y-136701914D01*
X99608231Y-137050024D01*
X99531731Y-137050024D01*
X99455230Y-137050024D01*
X99423646Y-136965997D01*
X99407593Y-136923478D01*
X99382699Y-136857768D01*
X99351513Y-136775590D01*
X99316588Y-136683666D01*
X99286453Y-136604431D01*
X99253123Y-136516504D01*
X99224116Y-136439337D01*
X99201213Y-136377725D01*
X99186195Y-136336458D01*
X99180845Y-136320342D01*
X99195146Y-136316399D01*
X99231244Y-136314065D01*
X99251354Y-136313792D01*
X99321863Y-136313792D01*
X99372681Y-136453836D01*
G37*
G36*
X93541684Y-136309465D02*
G01*
X93626302Y-136338535D01*
X93640584Y-136346611D01*
X93673037Y-136369830D01*
X93697608Y-136397809D01*
X93715350Y-136435073D01*
X93727319Y-136486146D01*
X93734569Y-136555554D01*
X93738155Y-136647819D01*
X93739131Y-136767468D01*
X93739131Y-136769421D01*
X93739131Y-137050024D01*
X93675111Y-137050024D01*
X93611091Y-137050024D01*
X93611091Y-136801431D01*
X93609932Y-136685220D01*
X93605699Y-136596795D01*
X93597252Y-136531994D01*
X93583453Y-136486652D01*
X93563164Y-136456605D01*
X93535246Y-136437688D01*
X93509124Y-136428440D01*
X93449785Y-136421623D01*
X93384565Y-136427921D01*
X93330540Y-136445453D01*
X93324774Y-136448738D01*
X93298542Y-136472256D01*
X93278677Y-136508838D01*
X93264261Y-136562633D01*
X93254380Y-136637791D01*
X93248116Y-136738460D01*
X93245888Y-136805947D01*
X93239554Y-137050024D01*
X93177244Y-137050024D01*
X93114934Y-137050024D01*
X93114934Y-136681908D01*
X93114934Y-136313792D01*
X93170952Y-136313792D01*
X93210084Y-136317713D01*
X93225616Y-136332183D01*
X93226970Y-136343134D01*
X93233240Y-136376400D01*
X93253325Y-136381769D01*
X93287220Y-136361337D01*
X93362223Y-136321280D01*
X93450351Y-136303851D01*
X93541684Y-136309465D01*
G37*
G36*
X95121368Y-136306580D02*
G01*
X95187261Y-136320940D01*
X95238602Y-136342030D01*
X95277145Y-136373607D01*
X95304642Y-136419431D01*
X95322844Y-136483260D01*
X95333506Y-136568852D01*
X95338379Y-136679967D01*
X95339283Y-136773937D01*
X95339635Y-137050024D01*
X95276964Y-137050024D01*
X95214293Y-137050024D01*
X95208942Y-136778270D01*
X95206862Y-136679137D01*
X95204587Y-136606811D01*
X95201321Y-136556093D01*
X95196266Y-136521786D01*
X95188624Y-136498691D01*
X95177598Y-136481611D01*
X95162391Y-136465347D01*
X95160664Y-136463621D01*
X95125077Y-136435384D01*
X95084580Y-136423400D01*
X95042333Y-136421864D01*
X94963895Y-136434988D01*
X94906527Y-136472049D01*
X94869407Y-136533627D01*
X94864751Y-136547566D01*
X94857634Y-136586860D01*
X94851556Y-136649989D01*
X94847096Y-136728778D01*
X94844833Y-136815055D01*
X94844709Y-136829954D01*
X94843479Y-137050024D01*
X94779459Y-137050024D01*
X94715438Y-137050024D01*
X94715438Y-136681908D01*
X94715438Y-136313792D01*
X94771456Y-136313792D01*
X94809338Y-136316781D01*
X94824847Y-136330234D01*
X94827474Y-136353804D01*
X94830284Y-136384259D01*
X94842574Y-136391007D01*
X94870134Y-136374831D01*
X94887058Y-136361861D01*
X94956223Y-136324577D01*
X95039570Y-136305091D01*
X95121368Y-136306580D01*
G37*
G36*
X98582676Y-136322183D02*
G01*
X98666174Y-136371117D01*
X98676951Y-136380191D01*
X98724733Y-136440251D01*
X98759926Y-136520971D01*
X98778674Y-136612218D01*
X98780719Y-136652803D01*
X98780719Y-136713918D01*
X98530547Y-136713918D01*
X98280374Y-136713918D01*
X98289739Y-136771628D01*
X98316010Y-136850848D01*
X98364214Y-136908011D01*
X98432222Y-136942169D01*
X98517906Y-136952376D01*
X98619137Y-136937684D01*
X98646134Y-136930159D01*
X98701433Y-136914018D01*
X98732467Y-136909323D01*
X98745640Y-136918351D01*
X98747357Y-136943381D01*
X98745674Y-136965575D01*
X98739246Y-137004786D01*
X98722144Y-137026566D01*
X98684736Y-137041915D01*
X98676686Y-137044370D01*
X98595400Y-137060148D01*
X98504864Y-137064241D01*
X98417673Y-137056981D01*
X98346422Y-137038697D01*
X98338927Y-137035501D01*
X98256216Y-136983168D01*
X98197012Y-136910664D01*
X98161989Y-136826885D01*
X98145562Y-136731425D01*
X98146983Y-136628905D01*
X98155991Y-136581490D01*
X98289303Y-136581490D01*
X98293039Y-136591780D01*
X98309218Y-136597851D01*
X98343045Y-136600818D01*
X98399722Y-136601791D01*
X98461275Y-136601882D01*
X98640144Y-136601882D01*
X98629684Y-136557869D01*
X98600434Y-136488504D01*
X98555146Y-136442241D01*
X98499788Y-136418941D01*
X98440329Y-136418460D01*
X98382738Y-136440656D01*
X98332984Y-136485388D01*
X98297036Y-136552515D01*
X98292806Y-136565871D01*
X98289303Y-136581490D01*
X98155991Y-136581490D01*
X98165313Y-136532418D01*
X98187166Y-136476520D01*
X98244245Y-136396207D01*
X98318064Y-136339490D01*
X98402893Y-136307496D01*
X98493007Y-136301351D01*
X98582676Y-136322183D01*
G37*
G36*
X100320750Y-136067348D02*
G01*
X100401251Y-136094478D01*
X100469860Y-136144197D01*
X100500709Y-136182196D01*
X100549257Y-136282347D01*
X100577815Y-136405817D01*
X100586545Y-136553435D01*
X100584601Y-136617888D01*
X100571775Y-136751475D01*
X100547770Y-136857563D01*
X100511211Y-136939124D01*
X100460721Y-136999132D01*
X100394924Y-137040559D01*
X100387446Y-137043796D01*
X100319497Y-137060731D01*
X100239814Y-137064172D01*
X100164558Y-137054136D01*
X100132351Y-137043516D01*
X100062684Y-136998394D01*
X100009321Y-136930069D01*
X99971722Y-136837181D01*
X99949349Y-136718371D01*
X99943496Y-136607082D01*
X100074596Y-136607082D01*
X100081376Y-136703807D01*
X100094958Y-136788195D01*
X100115278Y-136851756D01*
X100121013Y-136862732D01*
X100152213Y-136903453D01*
X100187576Y-136933142D01*
X100190039Y-136934505D01*
X100239708Y-136947214D01*
X100298075Y-136944430D01*
X100348512Y-136927580D01*
X100359699Y-136919922D01*
X100394499Y-136873538D01*
X100421604Y-136802982D01*
X100440621Y-136715249D01*
X100451160Y-136617331D01*
X100452829Y-136516224D01*
X100445238Y-136418920D01*
X100427994Y-136332414D01*
X100400706Y-136263700D01*
X100396783Y-136257054D01*
X100349751Y-136207150D01*
X100291087Y-136182152D01*
X100228657Y-136181792D01*
X100170326Y-136205801D01*
X100123962Y-136253911D01*
X100116707Y-136266614D01*
X100095671Y-136327786D01*
X100081682Y-136410581D01*
X100074677Y-136506510D01*
X100074596Y-136607082D01*
X99943496Y-136607082D01*
X99941665Y-136572279D01*
X99941661Y-136561870D01*
X99944416Y-136447167D01*
X99952952Y-136357410D01*
X99968622Y-136285847D01*
X99992775Y-136225720D01*
X100017203Y-136184168D01*
X100076582Y-136121218D01*
X100151546Y-136080746D01*
X100235225Y-136062780D01*
X100320750Y-136067348D01*
G37*
G36*
X97875442Y-136314580D02*
G01*
X97939027Y-136327412D01*
X97951174Y-136331537D01*
X98009909Y-136353804D01*
X97987231Y-136407550D01*
X97967431Y-136443480D01*
X97946825Y-136453076D01*
X97936534Y-136450545D01*
X97850033Y-136425603D01*
X97769125Y-136417429D01*
X97700249Y-136425668D01*
X97649839Y-136449966D01*
X97634111Y-136467200D01*
X97623197Y-136500681D01*
X97637562Y-136533286D01*
X97679060Y-136566882D01*
X97749547Y-136603335D01*
X97784209Y-136618280D01*
X97871301Y-136656621D01*
X97932822Y-136689840D01*
X97973946Y-136721724D01*
X97999847Y-136756060D01*
X98012222Y-136785168D01*
X98020586Y-136847924D01*
X98010471Y-136914487D01*
X97984814Y-136971216D01*
X97967945Y-136990854D01*
X97908018Y-137027511D01*
X97827319Y-137052769D01*
X97735433Y-137065389D01*
X97641944Y-137064132D01*
X97556434Y-137047758D01*
X97548331Y-137045119D01*
X97510215Y-137027808D01*
X97493001Y-137002571D01*
X97487346Y-136965997D01*
X97486053Y-136928829D01*
X97494237Y-136911101D01*
X97518149Y-136910392D01*
X97564039Y-136924282D01*
X97580341Y-136929986D01*
X97651036Y-136947292D01*
X97725797Y-136953344D01*
X97793809Y-136948203D01*
X97844258Y-136931931D01*
X97849765Y-136928448D01*
X97876927Y-136898034D01*
X97881508Y-136854295D01*
X97881335Y-136852424D01*
X97878173Y-136830564D01*
X97870554Y-136812695D01*
X97854028Y-136795744D01*
X97824147Y-136776633D01*
X97776464Y-136752287D01*
X97706528Y-136719630D01*
X97655800Y-136696480D01*
X97578354Y-136655356D01*
X97528394Y-136612731D01*
X97501626Y-136563255D01*
X97493760Y-136501575D01*
X97493848Y-136494529D01*
X97505770Y-136428477D01*
X97541036Y-136376778D01*
X97603945Y-136333143D01*
X97604311Y-136332948D01*
X97652645Y-136317991D01*
X97721267Y-136309915D01*
X97799194Y-136308763D01*
X97875442Y-136314580D01*
G37*
G36*
X92718415Y-136312915D02*
G01*
X92724984Y-136314279D01*
X92780952Y-136329804D01*
X92824270Y-136350855D01*
X92856514Y-136381373D01*
X92879260Y-136425303D01*
X92894084Y-136486588D01*
X92902561Y-136569172D01*
X92906268Y-136676999D01*
X92906869Y-136769421D01*
X92906869Y-137050024D01*
X92850851Y-137050024D01*
X92812969Y-137047034D01*
X92797460Y-137033581D01*
X92794833Y-137010011D01*
X92788370Y-136976938D01*
X92770158Y-136973422D01*
X92745943Y-136995061D01*
X92697646Y-137031580D01*
X92629364Y-137055937D01*
X92551370Y-137066422D01*
X92473936Y-137061324D01*
X92427047Y-137048166D01*
X92364247Y-137007066D01*
X92322210Y-136945329D01*
X92303771Y-136868838D01*
X92305240Y-136844748D01*
X92442723Y-136844748D01*
X92456517Y-136895213D01*
X92493186Y-136931899D01*
X92545661Y-136952340D01*
X92606872Y-136954068D01*
X92669749Y-136934617D01*
X92681644Y-136928121D01*
X92727930Y-136891720D01*
X92756459Y-136843509D01*
X92772741Y-136773965D01*
X92773356Y-136769586D01*
X92777189Y-136732929D01*
X92773185Y-136709968D01*
X92756220Y-136698922D01*
X92721171Y-136698010D01*
X92662916Y-136705450D01*
X92612265Y-136713580D01*
X92528936Y-136736269D01*
X92472993Y-136772119D01*
X92445517Y-136820296D01*
X92442723Y-136844748D01*
X92305240Y-136844748D01*
X92307907Y-136801031D01*
X92331700Y-136736509D01*
X92377547Y-136686002D01*
X92447638Y-136648301D01*
X92544161Y-136622197D01*
X92658442Y-136607362D01*
X92782208Y-136596900D01*
X92773200Y-136541388D01*
X92750280Y-136474835D01*
X92707416Y-136433148D01*
X92645027Y-136416493D01*
X92563534Y-136425040D01*
X92516180Y-136438672D01*
X92423535Y-136469948D01*
X92402379Y-136419879D01*
X92390006Y-136384776D01*
X92394580Y-136365672D01*
X92416428Y-136351151D01*
X92480152Y-136327888D01*
X92561137Y-136312636D01*
X92645265Y-136307083D01*
X92718415Y-136312915D01*
G37*
G36*
X94344867Y-136321665D02*
G01*
X94425493Y-136361843D01*
X94486095Y-136425443D01*
X94524693Y-136510331D01*
X94539309Y-136614375D01*
X94539383Y-136622941D01*
X94539383Y-136713918D01*
X94291705Y-136713918D01*
X94044027Y-136713918D01*
X94053254Y-136765934D01*
X94081217Y-136844338D01*
X94131753Y-136902237D01*
X94201761Y-136938247D01*
X94288140Y-136950980D01*
X94387790Y-136939053D01*
X94420803Y-136930159D01*
X94466284Y-136916599D01*
X94497015Y-136907884D01*
X94504338Y-136906151D01*
X94506360Y-136920126D01*
X94505163Y-136955008D01*
X94504338Y-136965997D01*
X94496848Y-137007855D01*
X94476867Y-137030874D01*
X94443353Y-137045119D01*
X94364909Y-137061855D01*
X94274536Y-137065893D01*
X94184977Y-137057777D01*
X94108976Y-137038055D01*
X94090846Y-137030017D01*
X94029905Y-136987952D01*
X93976695Y-136931928D01*
X93971418Y-136924630D01*
X93949516Y-136891292D01*
X93935494Y-136861659D01*
X93927601Y-136827269D01*
X93924087Y-136779658D01*
X93923204Y-136710366D01*
X93923189Y-136691366D01*
X93923806Y-136615582D01*
X93926497Y-136568788D01*
X94057009Y-136568788D01*
X94067673Y-136587333D01*
X94100948Y-136597288D01*
X94160197Y-136601261D01*
X94227285Y-136601882D01*
X94302206Y-136601503D01*
X94350790Y-136599628D01*
X94378708Y-136595149D01*
X94391630Y-136586960D01*
X94395229Y-136573953D01*
X94395338Y-136569078D01*
X94381981Y-136506752D01*
X94346555Y-136459581D01*
X94296026Y-136429245D01*
X94237360Y-136417422D01*
X94177523Y-136425790D01*
X94123480Y-136456030D01*
X94090063Y-136495498D01*
X94065593Y-136539045D01*
X94057009Y-136568788D01*
X93926497Y-136568788D01*
X93926833Y-136562940D01*
X93934034Y-136524580D01*
X93947172Y-136491639D01*
X93968011Y-136455258D01*
X93971204Y-136450093D01*
X94029870Y-136377225D01*
X94100954Y-136331190D01*
X94189236Y-136309500D01*
X94246198Y-136307040D01*
X94344867Y-136321665D01*
G37*
G36*
X96143888Y-136076676D02*
G01*
X96268457Y-136082763D01*
X96365131Y-136093877D01*
X96437801Y-136111285D01*
X96490362Y-136136258D01*
X96526706Y-136170065D01*
X96548556Y-136208584D01*
X96568098Y-136286450D01*
X96565266Y-136364337D01*
X96542220Y-136434486D01*
X96501123Y-136489135D01*
X96463596Y-136513649D01*
X96436422Y-136528271D01*
X96433147Y-136541287D01*
X96455934Y-136557522D01*
X96490861Y-136574452D01*
X96549759Y-136617377D01*
X96587602Y-136677808D01*
X96604456Y-136749192D01*
X96600384Y-136824979D01*
X96575450Y-136898616D01*
X96529719Y-136963552D01*
X96486715Y-136999435D01*
X96460953Y-137015539D01*
X96436081Y-137027124D01*
X96406193Y-137035083D01*
X96365383Y-137040307D01*
X96307745Y-137043690D01*
X96227373Y-137046124D01*
X96169116Y-137047429D01*
X95915816Y-137052836D01*
X95915816Y-136940988D01*
X96043857Y-136940988D01*
X96205246Y-136935487D01*
X96278699Y-136932607D01*
X96327698Y-136928585D01*
X96359784Y-136921325D01*
X96382497Y-136908735D01*
X96403380Y-136888721D01*
X96413311Y-136877717D01*
X96451146Y-136815472D01*
X96459232Y-136751826D01*
X96438964Y-136692777D01*
X96391737Y-136644325D01*
X96354377Y-136624199D01*
X96309410Y-136612626D01*
X96244145Y-136604712D01*
X96172411Y-136601882D01*
X96043857Y-136601882D01*
X96043857Y-136771435D01*
X96043857Y-136940988D01*
X95915816Y-136940988D01*
X95915816Y-136771435D01*
X95915816Y-136561496D01*
X95915816Y-136489847D01*
X96043857Y-136489847D01*
X96164409Y-136489847D01*
X96234389Y-136486687D01*
X96297541Y-136478325D01*
X96339176Y-136467195D01*
X96395274Y-136430208D01*
X96423799Y-136377196D01*
X96427978Y-136340161D01*
X96420502Y-136285391D01*
X96395787Y-136246087D01*
X96350402Y-136220327D01*
X96280914Y-136206192D01*
X96183893Y-136201760D01*
X96180694Y-136201756D01*
X96043857Y-136201756D01*
X96043857Y-136345802D01*
X96043857Y-136489847D01*
X95915816Y-136489847D01*
X95915816Y-136345802D01*
X95915816Y-136070157D01*
X96143888Y-136076676D01*
G37*
G36*
X97157921Y-136317799D02*
G01*
X97234138Y-136350598D01*
X97266242Y-136376390D01*
X97316258Y-136426368D01*
X97321220Y-136739281D01*
X97326183Y-137052195D01*
X97273275Y-137047108D01*
X97235004Y-137038494D01*
X97217229Y-137016442D01*
X97212295Y-136996241D01*
X97204222Y-136950461D01*
X97172250Y-136985876D01*
X97132712Y-137020676D01*
X97097021Y-137043660D01*
X97044490Y-137059129D01*
X96975222Y-137064605D01*
X96902873Y-137060143D01*
X96841098Y-137045797D01*
X96833141Y-137042603D01*
X96779184Y-137002377D01*
X96745180Y-136938391D01*
X96734692Y-136869284D01*
X96863370Y-136869284D01*
X96883670Y-136909562D01*
X96922376Y-136939081D01*
X96974953Y-136954357D01*
X97036868Y-136951900D01*
X97102245Y-136928923D01*
X97148223Y-136888923D01*
X97181252Y-136828299D01*
X97195934Y-136757534D01*
X97196220Y-136746442D01*
X97194032Y-136720221D01*
X97183799Y-136704555D01*
X97160021Y-136698368D01*
X97117195Y-136700585D01*
X97049820Y-136710130D01*
X97028167Y-136713588D01*
X96961750Y-136728645D01*
X96917533Y-136750548D01*
X96896125Y-136770405D01*
X96866011Y-136821736D01*
X96863370Y-136869284D01*
X96734692Y-136869284D01*
X96732178Y-136852718D01*
X96732074Y-136843310D01*
X96736135Y-136786604D01*
X96752171Y-136744898D01*
X96779320Y-136709236D01*
X96819306Y-136672581D01*
X96869175Y-136645837D01*
X96935335Y-136626799D01*
X97024192Y-136613264D01*
X97072181Y-136608480D01*
X97134588Y-136602248D01*
X97171617Y-136595581D01*
X97189829Y-136585936D01*
X97195786Y-136570771D01*
X97196220Y-136560415D01*
X97183045Y-136493795D01*
X97144555Y-136446035D01*
X97098024Y-136423287D01*
X97057594Y-136414498D01*
X97018019Y-136415839D01*
X96966773Y-136428401D01*
X96939324Y-136437099D01*
X96841536Y-136469160D01*
X96826818Y-136430447D01*
X96814156Y-136388374D01*
X96819968Y-136364193D01*
X96847792Y-136347485D01*
X96856113Y-136344198D01*
X96963014Y-136314137D01*
X97065581Y-136305492D01*
X97157921Y-136317799D01*
G37*
G36*
X101613611Y-126406671D02*
G01*
X101613611Y-126614737D01*
X101405546Y-126614737D01*
X101197480Y-126614737D01*
X101197480Y-126814800D01*
X101197480Y-127014863D01*
X101405546Y-127014863D01*
X101613611Y-127014863D01*
X101613611Y-126814800D01*
X101613611Y-126614737D01*
X101821677Y-126614737D01*
X102029742Y-126614737D01*
X102029742Y-126814800D01*
X102029742Y-127014863D01*
X101821677Y-127014863D01*
X101613611Y-127014863D01*
X101613611Y-127222928D01*
X101613611Y-127430994D01*
X101405546Y-127430994D01*
X101197480Y-127430994D01*
X101197480Y-127631057D01*
X101197480Y-127831120D01*
X100997417Y-127831120D01*
X100797354Y-127831120D01*
X100797354Y-128039186D01*
X100797354Y-128247251D01*
X100389225Y-128247251D01*
X99981097Y-128247251D01*
X99981097Y-128039186D01*
X99981097Y-127831120D01*
X99773031Y-127831120D01*
X99564966Y-127831120D01*
X99564966Y-128039186D01*
X99564966Y-128247251D01*
X99364903Y-128247251D01*
X99164840Y-128247251D01*
X99164840Y-128039186D01*
X99164840Y-127831120D01*
X98548646Y-127831120D01*
X97932452Y-127831120D01*
X97932452Y-128039186D01*
X97932452Y-128247251D01*
X97524323Y-128247251D01*
X97116195Y-128247251D01*
X97116195Y-127839123D01*
X97116195Y-127430994D01*
X97324260Y-127430994D01*
X97532326Y-127430994D01*
X97532326Y-127222928D01*
X97532326Y-127014863D01*
X97732389Y-127014863D01*
X97932452Y-127014863D01*
X97932452Y-127222928D01*
X97932452Y-127430994D01*
X98956774Y-127430994D01*
X99981097Y-127430994D01*
X100381223Y-127430994D01*
X100589288Y-127430994D01*
X100797354Y-127430994D01*
X100797354Y-127222928D01*
X100797354Y-127014863D01*
X100589288Y-127014863D01*
X100381223Y-127014863D01*
X100381223Y-127222928D01*
X100381223Y-127430994D01*
X99981097Y-127430994D01*
X99981097Y-127222928D01*
X99981097Y-127014863D01*
X100181160Y-127014863D01*
X100381223Y-127014863D01*
X100381223Y-126814800D01*
X100381223Y-126614737D01*
X99973094Y-126614737D01*
X99564966Y-126614737D01*
X99564966Y-126406671D01*
X99564966Y-126198606D01*
X100589288Y-126198606D01*
X101613611Y-126198606D01*
X101613611Y-126406671D01*
G37*
G36*
X95883806Y-123541769D02*
G01*
X95883806Y-124149961D01*
X95683743Y-124149961D01*
X95483680Y-124149961D01*
X95483680Y-124358026D01*
X95483680Y-124566092D01*
X96299937Y-124566092D01*
X97116195Y-124566092D01*
X97116195Y-124157963D01*
X97116195Y-123749835D01*
X97324260Y-123749835D01*
X97532326Y-123749835D01*
X97532326Y-123541769D01*
X97532326Y-123333704D01*
X97732389Y-123333704D01*
X97932452Y-123333704D01*
X97932452Y-123541769D01*
X97932452Y-123749835D01*
X97732389Y-123749835D01*
X97532326Y-123749835D01*
X97532326Y-124157963D01*
X97532326Y-124566092D01*
X97324260Y-124566092D01*
X97116195Y-124566092D01*
X97116195Y-124766155D01*
X97116195Y-124966218D01*
X97524323Y-124966218D01*
X97932452Y-124966218D01*
X97932452Y-124766155D01*
X97932452Y-124566092D01*
X98140517Y-124566092D01*
X98348583Y-124566092D01*
X98348583Y-124766155D01*
X98348583Y-124966218D01*
X98140517Y-124966218D01*
X97932452Y-124966218D01*
X97932452Y-125174283D01*
X97932452Y-125382349D01*
X97732389Y-125382349D01*
X97532326Y-125382349D01*
X97532326Y-125590414D01*
X97532326Y-125798480D01*
X97324260Y-125798480D01*
X97116195Y-125798480D01*
X97116195Y-126206608D01*
X97116195Y-126614737D01*
X97324260Y-126614737D01*
X97532326Y-126614737D01*
X97532326Y-126814800D01*
X97532326Y-127014863D01*
X97124197Y-127014863D01*
X96716069Y-127014863D01*
X96716069Y-126814800D01*
X96716069Y-126614737D01*
X96508003Y-126614737D01*
X96299937Y-126614737D01*
X96299937Y-126406671D01*
X96299937Y-126198606D01*
X96508003Y-126198606D01*
X96716069Y-126198606D01*
X96716069Y-125998543D01*
X96716069Y-125798480D01*
X96916132Y-125798480D01*
X97116195Y-125798480D01*
X97116195Y-125590414D01*
X97116195Y-125382349D01*
X96916132Y-125382349D01*
X96716069Y-125382349D01*
X96716069Y-125590414D01*
X96716069Y-125798480D01*
X96508003Y-125798480D01*
X96299937Y-125798480D01*
X96299937Y-125590414D01*
X96299937Y-125382349D01*
X96091872Y-125382349D01*
X95883806Y-125382349D01*
X95883806Y-125590414D01*
X95883806Y-125798480D01*
X96091872Y-125798480D01*
X96299937Y-125798480D01*
X96299937Y-125998543D01*
X96299937Y-126198606D01*
X95683743Y-126198606D01*
X95067549Y-126198606D01*
X95067549Y-125998543D01*
X95067549Y-125798480D01*
X95275615Y-125798480D01*
X95483680Y-125798480D01*
X95483680Y-125590414D01*
X95483680Y-125382349D01*
X95275615Y-125382349D01*
X95067549Y-125382349D01*
X95067549Y-125174283D01*
X95067549Y-124966218D01*
X94659421Y-124966218D01*
X94251292Y-124966218D01*
X94251292Y-125582412D01*
X94251292Y-126198606D01*
X94051229Y-126198606D01*
X93851166Y-126198606D01*
X93851166Y-124974220D01*
X93851166Y-123749835D01*
X94051229Y-123749835D01*
X94251292Y-123749835D01*
X94251292Y-123949898D01*
X94251292Y-124149961D01*
X94459358Y-124149961D01*
X94667423Y-124149961D01*
X94667423Y-124358026D01*
X94667423Y-124566092D01*
X94867486Y-124566092D01*
X95067549Y-124566092D01*
X95067549Y-123949898D01*
X95067549Y-123333704D01*
X94867486Y-123333704D01*
X94667423Y-123333704D01*
X94667423Y-123541769D01*
X94667423Y-123749835D01*
X94459358Y-123749835D01*
X94251292Y-123749835D01*
X94251292Y-123541769D01*
X94251292Y-123333704D01*
X94459358Y-123333704D01*
X94667423Y-123333704D01*
X94667423Y-123133641D01*
X94667423Y-122933578D01*
X95275615Y-122933578D01*
X95883806Y-122933578D01*
X95883806Y-123541769D01*
G37*
G36*
X99564966Y-130287894D02*
G01*
X99564966Y-130696022D01*
X100181160Y-130696022D01*
X100797354Y-130696022D01*
X100797354Y-130287894D01*
X100797354Y-129879765D01*
X100997417Y-129879765D01*
X101197480Y-129879765D01*
X101197480Y-130087831D01*
X101197480Y-130295896D01*
X101613611Y-130295896D01*
X102029742Y-130295896D01*
X102029742Y-130087831D01*
X102029742Y-129879765D01*
X102229805Y-129879765D01*
X102429868Y-129879765D01*
X102429868Y-130287894D01*
X102429868Y-130696022D01*
X101613611Y-130696022D01*
X100797354Y-130696022D01*
X100797354Y-130904088D01*
X100797354Y-131112153D01*
X101413548Y-131112153D01*
X102029742Y-131112153D01*
X102029742Y-131520282D01*
X102029742Y-131928411D01*
X101821677Y-131928411D01*
X101613611Y-131928411D01*
X101613611Y-132128474D01*
X101613611Y-132328537D01*
X102021740Y-132328537D01*
X102429868Y-132328537D01*
X102429868Y-132736665D01*
X102429868Y-133144794D01*
X101813674Y-133144794D01*
X101197480Y-133144794D01*
X101197480Y-132736665D01*
X101197480Y-132328537D01*
X100997417Y-132328537D01*
X100797354Y-132328537D01*
X100797354Y-132736665D01*
X100797354Y-133144794D01*
X100589288Y-133144794D01*
X100381223Y-133144794D01*
X100381223Y-133552922D01*
X100381223Y-133961051D01*
X100181160Y-133961051D01*
X99981097Y-133961051D01*
X99981097Y-133760988D01*
X99981097Y-133560925D01*
X99773031Y-133560925D01*
X99564966Y-133560925D01*
X99564966Y-133352859D01*
X99564966Y-133144794D01*
X99364903Y-133144794D01*
X99164840Y-133144794D01*
X99164840Y-133352859D01*
X99164840Y-133560925D01*
X98956774Y-133560925D01*
X98748709Y-133560925D01*
X98748709Y-133969053D01*
X98748709Y-134377182D01*
X98548646Y-134377182D01*
X98348583Y-134377182D01*
X98348583Y-134577245D01*
X98348583Y-134777308D01*
X98140517Y-134777308D01*
X97932452Y-134777308D01*
X97932452Y-134169116D01*
X97932452Y-133560925D01*
X98340580Y-133560925D01*
X98748709Y-133560925D01*
X98748709Y-133352859D01*
X98748709Y-133144794D01*
X98548646Y-133144794D01*
X98348583Y-133144794D01*
X98348583Y-132944731D01*
X98348583Y-132744668D01*
X99164840Y-132744668D01*
X99773031Y-132744668D01*
X100381223Y-132744668D01*
X100381223Y-132128474D01*
X100381223Y-131928411D01*
X100797354Y-131928411D01*
X101205483Y-131928411D01*
X101613611Y-131928411D01*
X101613611Y-131720345D01*
X101613611Y-131512279D01*
X101205483Y-131512279D01*
X100797354Y-131512279D01*
X100797354Y-131720345D01*
X100797354Y-131928411D01*
X100381223Y-131928411D01*
X100381223Y-131720345D01*
X100381223Y-131512279D01*
X99773031Y-131512279D01*
X99164840Y-131512279D01*
X99164840Y-132128474D01*
X99164840Y-132744668D01*
X98348583Y-132744668D01*
X98140517Y-132744668D01*
X97932452Y-132744668D01*
X97932452Y-132944731D01*
X97932452Y-133144794D01*
X97732389Y-133144794D01*
X97532326Y-133144794D01*
X97532326Y-133352859D01*
X97532326Y-133560925D01*
X97124197Y-133560925D01*
X96716069Y-133560925D01*
X96716069Y-133352859D01*
X96716069Y-133144794D01*
X97116195Y-133144794D01*
X97324260Y-133144794D01*
X97532326Y-133144794D01*
X97532326Y-132736665D01*
X97532326Y-132328537D01*
X97324260Y-132328537D01*
X97116195Y-132328537D01*
X97116195Y-132736665D01*
X97116195Y-133144794D01*
X96716069Y-133144794D01*
X96508003Y-133144794D01*
X96299937Y-133144794D01*
X96299937Y-133352859D01*
X96299937Y-133560925D01*
X96091872Y-133560925D01*
X95883806Y-133560925D01*
X95883806Y-133760988D01*
X95883806Y-133961051D01*
X96299937Y-133961051D01*
X96716069Y-133961051D01*
X96716069Y-134369179D01*
X96716069Y-134777308D01*
X96299937Y-134777308D01*
X95883806Y-134777308D01*
X95883806Y-134577245D01*
X95883806Y-134377182D01*
X95683743Y-134377182D01*
X95483680Y-134377182D01*
X95483680Y-134577245D01*
X95483680Y-134777308D01*
X95275615Y-134777308D01*
X95067549Y-134777308D01*
X95067549Y-134577245D01*
X95067549Y-134377182D01*
X94659421Y-134377182D01*
X94251292Y-134377182D01*
X94251292Y-134577245D01*
X94251292Y-134777308D01*
X94051229Y-134777308D01*
X93851166Y-134777308D01*
X93851166Y-134577245D01*
X93851166Y-134377182D01*
X94051229Y-134377182D01*
X94251292Y-134377182D01*
X94251292Y-134169116D01*
X94251292Y-133961051D01*
X94051229Y-133961051D01*
X93851166Y-133961051D01*
X93851166Y-133144794D01*
X93851166Y-132328537D01*
X94051229Y-132328537D01*
X94251292Y-132328537D01*
X94251292Y-132536602D01*
X94251292Y-132744668D01*
X94459358Y-132744668D01*
X94667423Y-132744668D01*
X94667423Y-132536602D01*
X94667423Y-132328537D01*
X95075552Y-132328537D01*
X95483680Y-132328537D01*
X95483680Y-132536602D01*
X95483680Y-132744668D01*
X95275615Y-132744668D01*
X95067549Y-132744668D01*
X95067549Y-133152796D01*
X95067549Y-133560925D01*
X94867486Y-133560925D01*
X94667423Y-133560925D01*
X94667423Y-133760988D01*
X94667423Y-133961051D01*
X95075552Y-133961051D01*
X95483680Y-133961051D01*
X95483680Y-133552922D01*
X95483680Y-133144794D01*
X95891809Y-133144794D01*
X96299937Y-133144794D01*
X96299937Y-132944731D01*
X96299937Y-132744668D01*
X96508003Y-132744668D01*
X96716069Y-132744668D01*
X96716069Y-132736665D01*
X96716069Y-132536602D01*
X96716069Y-132328537D01*
X96508003Y-132328537D01*
X96299937Y-132328537D01*
X96299937Y-132536602D01*
X96299937Y-132744668D01*
X96091872Y-132744668D01*
X95883806Y-132744668D01*
X95883806Y-132536602D01*
X95883806Y-132336539D01*
X95883806Y-132128474D01*
X95883806Y-131928411D01*
X95475678Y-131928411D01*
X95067549Y-131928411D01*
X95067549Y-131520282D01*
X95067549Y-131112153D01*
X95475678Y-131112153D01*
X95883806Y-131112153D01*
X95883806Y-131312216D01*
X95883806Y-131512279D01*
X96500000Y-131512279D01*
X97116195Y-131512279D01*
X97116195Y-131720345D01*
X97116195Y-131928411D01*
X97524323Y-131928411D01*
X97932452Y-131928411D01*
X97932452Y-131720345D01*
X97932452Y-131512279D01*
X98340580Y-131512279D01*
X98748709Y-131512279D01*
X98748709Y-131312216D01*
X98748709Y-131112153D01*
X98340580Y-131112153D01*
X97932452Y-131112153D01*
X97932452Y-131312216D01*
X97932452Y-131512279D01*
X97524323Y-131512279D01*
X97116195Y-131512279D01*
X97116195Y-131104151D01*
X97116195Y-130696022D01*
X97324260Y-130696022D01*
X97532326Y-130696022D01*
X97532326Y-130495959D01*
X97532326Y-130295896D01*
X97732389Y-130295896D01*
X97932452Y-130295896D01*
X97932452Y-130495959D01*
X97932452Y-130696022D01*
X98340580Y-130696022D01*
X98748709Y-130696022D01*
X98748709Y-130287894D01*
X98748709Y-129879765D01*
X99156837Y-129879765D01*
X99564966Y-129879765D01*
X99564966Y-130287894D01*
G37*
G36*
X93435035Y-126406671D02*
G01*
X93435035Y-126614737D01*
X93234972Y-126614737D01*
X93034909Y-126614737D01*
X93034909Y-126814800D01*
X93034909Y-127014863D01*
X92826844Y-127014863D01*
X92618778Y-127014863D01*
X92618778Y-127422991D01*
X92618778Y-127831120D01*
X93026907Y-127831120D01*
X93435035Y-127831120D01*
X93435035Y-127631057D01*
X93435035Y-127430994D01*
X93643101Y-127430994D01*
X93851166Y-127430994D01*
X93851166Y-127222928D01*
X93851166Y-127014863D01*
X94051229Y-127014863D01*
X94251292Y-127014863D01*
X94251292Y-127422991D01*
X94251292Y-127831120D01*
X94459358Y-127831120D01*
X94667423Y-127831120D01*
X94667423Y-127422991D01*
X94667423Y-127014863D01*
X94867486Y-127014863D01*
X95067549Y-127014863D01*
X95067549Y-126814800D01*
X95067549Y-126614737D01*
X95475678Y-126614737D01*
X95883806Y-126614737D01*
X95883806Y-126814800D01*
X95883806Y-127014863D01*
X95475678Y-127014863D01*
X95067549Y-127014863D01*
X95067549Y-127222928D01*
X95067549Y-127430994D01*
X95275615Y-127430994D01*
X95483680Y-127430994D01*
X95483680Y-127631057D01*
X95483680Y-127831120D01*
X95683743Y-127831120D01*
X95883806Y-127831120D01*
X95883806Y-128039186D01*
X95883806Y-128247251D01*
X95475678Y-128247251D01*
X95067549Y-128247251D01*
X95067549Y-128039186D01*
X95067549Y-127831120D01*
X94867486Y-127831120D01*
X94667423Y-127831120D01*
X94667423Y-128039186D01*
X94667423Y-128247251D01*
X94459358Y-128247251D01*
X94251292Y-128247251D01*
X94251292Y-128039186D01*
X94251292Y-127831120D01*
X94051229Y-127831120D01*
X93851166Y-127831120D01*
X93851166Y-128039186D01*
X93851166Y-128247251D01*
X93443038Y-128247251D01*
X93034909Y-128247251D01*
X93034909Y-128447314D01*
X93034909Y-128647377D01*
X93234972Y-128647377D01*
X93435035Y-128647377D01*
X93435035Y-128855443D01*
X93435035Y-129063508D01*
X93234972Y-129063508D01*
X93034909Y-129063508D01*
X93034909Y-129263571D01*
X93034909Y-129463634D01*
X92826844Y-129463634D01*
X92618778Y-129463634D01*
X92618778Y-129263571D01*
X92618778Y-129063508D01*
X92418715Y-129063508D01*
X92218652Y-129063508D01*
X92218652Y-129263571D01*
X92218652Y-129463634D01*
X92010586Y-129463634D01*
X91802521Y-129463634D01*
X91802521Y-129055506D01*
X91802521Y-128647377D01*
X92010586Y-128647377D01*
X92218652Y-128647377D01*
X92218652Y-128447314D01*
X92218652Y-128247251D01*
X92010586Y-128247251D01*
X91802521Y-128247251D01*
X91802521Y-128447314D01*
X91802521Y-128647377D01*
X91594455Y-128647377D01*
X91386390Y-128647377D01*
X91386390Y-129055506D01*
X91386390Y-129463634D01*
X91594455Y-129463634D01*
X91802521Y-129463634D01*
X91802521Y-130287894D01*
X91802521Y-131112153D01*
X92210649Y-131112153D01*
X92618778Y-131112153D01*
X93034909Y-131112153D01*
X93234972Y-131112153D01*
X93435035Y-131112153D01*
X93435035Y-130904088D01*
X93435035Y-130696022D01*
X93234972Y-130696022D01*
X93034909Y-130696022D01*
X93034909Y-130904088D01*
X93034909Y-131112153D01*
X92618778Y-131112153D01*
X92618778Y-130904088D01*
X92618778Y-130696022D01*
X92826844Y-130696022D01*
X93034909Y-130696022D01*
X93034909Y-130495959D01*
X93034909Y-130295896D01*
X93443038Y-130295896D01*
X93851166Y-130295896D01*
X93851166Y-129879765D01*
X93851166Y-129463634D01*
X93643101Y-129463634D01*
X93435035Y-129463634D01*
X93435035Y-129263571D01*
X93435035Y-129063508D01*
X94251292Y-129063508D01*
X95067549Y-129063508D01*
X95067549Y-128855443D01*
X95067549Y-128647377D01*
X95275615Y-128647377D01*
X95483680Y-128647377D01*
X95483680Y-128855443D01*
X95483680Y-129063508D01*
X95683743Y-129063508D01*
X95883806Y-129063508D01*
X95883806Y-128655380D01*
X95883806Y-128247251D01*
X96500000Y-128247251D01*
X97116195Y-128247251D01*
X97116195Y-128447314D01*
X97116195Y-128647377D01*
X97524323Y-128647377D01*
X97932452Y-128647377D01*
X97932452Y-128855443D01*
X97932452Y-129063508D01*
X97524323Y-129063508D01*
X97116195Y-129063508D01*
X97116195Y-129471637D01*
X97116195Y-129879765D01*
X97324260Y-129879765D01*
X97532326Y-129879765D01*
X97532326Y-130087831D01*
X97532326Y-130295896D01*
X97124197Y-130295896D01*
X96716069Y-130295896D01*
X96716069Y-130087831D01*
X96716069Y-129879765D01*
X96508003Y-129879765D01*
X96299937Y-129879765D01*
X96299937Y-129671700D01*
X96299937Y-129463634D01*
X96508003Y-129463634D01*
X96716069Y-129463634D01*
X96716069Y-129263571D01*
X96716069Y-129063508D01*
X96508003Y-129063508D01*
X96299937Y-129063508D01*
X96299937Y-129263571D01*
X96299937Y-129463634D01*
X95891809Y-129463634D01*
X95483680Y-129463634D01*
X95483680Y-129263571D01*
X95483680Y-129063508D01*
X95275615Y-129063508D01*
X95067549Y-129063508D01*
X95067549Y-129679702D01*
X95067549Y-130295896D01*
X94867486Y-130295896D01*
X94667423Y-130295896D01*
X94667423Y-130087831D01*
X94667423Y-129879765D01*
X94459358Y-129879765D01*
X94251292Y-129879765D01*
X94251292Y-130287894D01*
X94251292Y-130696022D01*
X94051229Y-130696022D01*
X93851166Y-130696022D01*
X93851166Y-131104151D01*
X93851166Y-131512279D01*
X94051229Y-131512279D01*
X94251292Y-131512279D01*
X94251292Y-131312216D01*
X94251292Y-131112153D01*
X94459358Y-131112153D01*
X94667423Y-131112153D01*
X94667423Y-131312216D01*
X94667423Y-131512279D01*
X94459358Y-131512279D01*
X94251292Y-131512279D01*
X94251292Y-131720345D01*
X94251292Y-131928411D01*
X94051229Y-131928411D01*
X93851166Y-131928411D01*
X93851166Y-131720345D01*
X93851166Y-131512279D01*
X92826844Y-131512279D01*
X91802521Y-131512279D01*
X91802521Y-131312216D01*
X91802521Y-131112153D01*
X91594455Y-131112153D01*
X91386390Y-131112153D01*
X91386390Y-130704025D01*
X91386390Y-130295896D01*
X91186327Y-130295896D01*
X90986264Y-130295896D01*
X90986264Y-130904088D01*
X90986264Y-131512279D01*
X90778198Y-131512279D01*
X90570133Y-131512279D01*
X90570133Y-130487957D01*
X90570133Y-129463634D01*
X90778198Y-129463634D01*
X90986264Y-129463634D01*
X90986264Y-128855443D01*
X90986264Y-128247251D01*
X90778198Y-128247251D01*
X90570133Y-128247251D01*
X90570133Y-128039186D01*
X90570133Y-127831120D01*
X90778198Y-127831120D01*
X90986264Y-127831120D01*
X90986264Y-128039186D01*
X90986264Y-128247251D01*
X91394392Y-128247251D01*
X91802521Y-128247251D01*
X91802521Y-128039186D01*
X91802521Y-127831120D01*
X91594455Y-127831120D01*
X91386390Y-127831120D01*
X91386390Y-127631057D01*
X91386390Y-127430994D01*
X91186327Y-127430994D01*
X90986264Y-127430994D01*
X90986264Y-127222928D01*
X90986264Y-127014863D01*
X91186327Y-127014863D01*
X91386390Y-127014863D01*
X91386390Y-127222928D01*
X91386390Y-127430994D01*
X91802521Y-127430994D01*
X92218652Y-127430994D01*
X92218652Y-127022865D01*
X92218652Y-126614737D01*
X91802521Y-126614737D01*
X91386390Y-126614737D01*
X91386390Y-126406671D01*
X91386390Y-126198606D01*
X92410712Y-126198606D01*
X93435035Y-126198606D01*
X93435035Y-126406671D01*
G37*
%TO.C,U2*%
D14*
X104820000Y-119590000D02*
X104820000Y-139910000D01*
X107360000Y-142450000D02*
X125140000Y-142450000D01*
D10*
X124370000Y-125021000D02*
X123370000Y-124021000D01*
X124370000Y-128521000D02*
X123370000Y-127521000D01*
X124370000Y-132006000D02*
X123370000Y-131006000D01*
X124370000Y-135506000D02*
X123370000Y-134506000D01*
D14*
X125140000Y-117050000D02*
X107360000Y-117050000D01*
X127680000Y-139910000D02*
X127680000Y-119590000D01*
X104820001Y-119590001D02*
G75*
G02*
X107360000Y-117050000I2539999J2D01*
G01*
X107360001Y-142450001D02*
G75*
G02*
X104819999Y-139910000I-1J2540001D01*
G01*
X125140000Y-117050000D02*
G75*
G02*
X127680000Y-119590000I-1J-2540001D01*
G01*
X127680000Y-139910000D02*
G75*
G02*
X125140000Y-142450000I-2540000J0D01*
G01*
D10*
X124370000Y-124521000D02*
G75*
G02*
X123370000Y-124521000I-500000J0D01*
G01*
X123370000Y-124521000D02*
G75*
G02*
X124370000Y-124521000I500000J0D01*
G01*
X124370000Y-128021000D02*
G75*
G02*
X123370000Y-128021000I-500000J0D01*
G01*
X123370000Y-128021000D02*
G75*
G02*
X124370000Y-128021000I500000J0D01*
G01*
X124370000Y-131506000D02*
G75*
G02*
X123370000Y-131506000I-500000J0D01*
G01*
X123370000Y-131506000D02*
G75*
G02*
X124370000Y-131506000I500000J0D01*
G01*
X124370000Y-135006000D02*
G75*
G02*
X123370000Y-135006000I-500000J0D01*
G01*
X123370000Y-135006000D02*
G75*
G02*
X124370000Y-135006000I500000J0D01*
G01*
%TO.C,J3*%
X83980000Y-127845000D02*
X83980000Y-126575000D01*
X83980000Y-127845000D02*
X84615000Y-128480000D01*
X83980000Y-130385000D02*
X83980000Y-129115000D01*
X83980000Y-130385000D02*
X84615000Y-131020000D01*
X83980000Y-132925000D02*
X83980000Y-131655000D01*
X83980000Y-132925000D02*
X84615000Y-133560000D01*
X84615000Y-125940000D02*
X83980000Y-126575000D01*
X84615000Y-128480000D02*
X83980000Y-129115000D01*
X84615000Y-128480000D02*
X85885000Y-128480000D01*
X84615000Y-131020000D02*
X83980000Y-131655000D01*
X84615000Y-131020000D02*
X85885000Y-131020000D01*
X84615000Y-133560000D02*
X85885000Y-133560000D01*
X85885000Y-125940000D02*
X84615000Y-125940000D01*
X85885000Y-125940000D02*
X86520000Y-126575000D01*
X85885000Y-128480000D02*
X84615000Y-128480000D01*
X85885000Y-128480000D02*
X86520000Y-127845000D01*
X85885000Y-128480000D02*
X86520000Y-129115000D01*
X85885000Y-131020000D02*
X84615000Y-131020000D01*
X85885000Y-131020000D02*
X86520000Y-130385000D01*
X85885000Y-131020000D02*
X86520000Y-131655000D01*
X85885000Y-133560000D02*
X86520000Y-132925000D01*
X86520000Y-127845000D02*
X86520000Y-126575000D01*
X86520000Y-130385000D02*
X86520000Y-129115000D01*
X86520000Y-132925000D02*
X86520000Y-131655000D01*
%TO.C,J2*%
X93955000Y-117615000D02*
X93955000Y-118885000D01*
X93955000Y-117615000D02*
X94590000Y-116980000D01*
X93955000Y-118885000D02*
X94590000Y-119520000D01*
X95860000Y-116980000D02*
X94590000Y-116980000D01*
X95860000Y-119520000D02*
X94590000Y-119520000D01*
X95860000Y-119520000D02*
X96495000Y-118885000D01*
X96495000Y-117615000D02*
X95860000Y-116980000D01*
X96495000Y-117615000D02*
X96495000Y-118885000D01*
X96495000Y-117615000D02*
X97130000Y-116980000D01*
X96495000Y-118885000D02*
X96495000Y-117615000D01*
X96495000Y-118885000D02*
X97130000Y-119520000D01*
X98400000Y-116979999D02*
X97130000Y-116980000D01*
X98400000Y-119520001D02*
X97130000Y-119520000D01*
X98400000Y-119520001D02*
X99035000Y-118885000D01*
X99035000Y-117615000D02*
X98400000Y-116979999D01*
X99035000Y-117615000D02*
X99035000Y-118885000D01*
X99035000Y-118885000D02*
X99035000Y-117615000D01*
D11*
%TO.C,G\u002A\u002A\u002A*%
G36*
X124086858Y-156162107D02*
G01*
X124796206Y-156284461D01*
X123775615Y-157745850D01*
X123628862Y-157837109D01*
X123905903Y-156819880D01*
X123172085Y-156722420D01*
X124284347Y-155411760D01*
X124086858Y-156162107D01*
G37*
G36*
X125220254Y-155328982D02*
G01*
X125267406Y-155329117D01*
X125341739Y-155329404D01*
X125411762Y-155329804D01*
X125475824Y-155330300D01*
X125532275Y-155330871D01*
X125579465Y-155331500D01*
X125615744Y-155332169D01*
X125639461Y-155332857D01*
X125648540Y-155333447D01*
X125716450Y-155351753D01*
X125782607Y-155382534D01*
X125843981Y-155423598D01*
X125897548Y-155472738D01*
X125940281Y-155527760D01*
X125957040Y-155557608D01*
X125963454Y-155570564D01*
X125969196Y-155582381D01*
X125974301Y-155593952D01*
X125978809Y-155606169D01*
X125982757Y-155619924D01*
X125986181Y-155636109D01*
X125989119Y-155655616D01*
X125991608Y-155679337D01*
X125993685Y-155708163D01*
X125995389Y-155742987D01*
X125996755Y-155784701D01*
X125997821Y-155834197D01*
X125998625Y-155892366D01*
X125999204Y-155960101D01*
X125999595Y-156038293D01*
X125999834Y-156127835D01*
X125999962Y-156229619D01*
X126000013Y-156344536D01*
X126000024Y-156473479D01*
X126000031Y-156586478D01*
X126000028Y-156725892D01*
X125999982Y-156850543D01*
X125999881Y-156961295D01*
X125999713Y-157059010D01*
X125999469Y-157144553D01*
X125999136Y-157218785D01*
X125998702Y-157282572D01*
X125998159Y-157336775D01*
X125997493Y-157382258D01*
X125996692Y-157419884D01*
X125995746Y-157450516D01*
X125994644Y-157475019D01*
X125993374Y-157494254D01*
X125991925Y-157509086D01*
X125990286Y-157520377D01*
X125988445Y-157528990D01*
X125987659Y-157531849D01*
X125957907Y-157606297D01*
X125915415Y-157672862D01*
X125861681Y-157730112D01*
X125798199Y-157776608D01*
X125726465Y-157810914D01*
X125682974Y-157824336D01*
X125672563Y-157826534D01*
X125659345Y-157828437D01*
X125642268Y-157830060D01*
X125620279Y-157831419D01*
X125592328Y-157832530D01*
X125557364Y-157833406D01*
X125514335Y-157834064D01*
X125462189Y-157834519D01*
X125399876Y-157834786D01*
X125326344Y-157834880D01*
X125240540Y-157834817D01*
X125141415Y-157834612D01*
X125027918Y-157834280D01*
X125004519Y-157834204D01*
X124373667Y-157832114D01*
X124354868Y-157810257D01*
X124334293Y-157777172D01*
X124329342Y-157744000D01*
X124340016Y-157710848D01*
X124354866Y-157689898D01*
X124373662Y-157668041D01*
X125009147Y-157664135D01*
X125644633Y-157660228D01*
X125683698Y-157640945D01*
X125730879Y-157610704D01*
X125771554Y-157571177D01*
X125802012Y-157526309D01*
X125811493Y-157505166D01*
X125828238Y-157460412D01*
X125828238Y-156585923D01*
X125828221Y-156448990D01*
X125828161Y-156326808D01*
X125828049Y-156218503D01*
X125827867Y-156123200D01*
X125827609Y-156040026D01*
X125827260Y-155968104D01*
X125826809Y-155906562D01*
X125826243Y-155854525D01*
X125825551Y-155811117D01*
X125824719Y-155775465D01*
X125823739Y-155746694D01*
X125822595Y-155723930D01*
X125821277Y-155706297D01*
X125819773Y-155692923D01*
X125818069Y-155682931D01*
X125816155Y-155675448D01*
X125815705Y-155674051D01*
X125789831Y-155620694D01*
X125751318Y-155574274D01*
X125702465Y-155537139D01*
X125662650Y-155517653D01*
X125653180Y-155514559D01*
X125640960Y-155511930D01*
X125624601Y-155509706D01*
X125602711Y-155507830D01*
X125573902Y-155506240D01*
X125536783Y-155504880D01*
X125489967Y-155503690D01*
X125432059Y-155502610D01*
X125361673Y-155501583D01*
X125277420Y-155500548D01*
X125252647Y-155500266D01*
X124876287Y-155496032D01*
X124856258Y-155477204D01*
X124836579Y-155448780D01*
X124830863Y-155415031D01*
X124838982Y-155379820D01*
X124843987Y-155368332D01*
X124849469Y-155358682D01*
X124856745Y-155350715D01*
X124867132Y-155344274D01*
X124881946Y-155339202D01*
X124902506Y-155335346D01*
X124930127Y-155332548D01*
X124966127Y-155330652D01*
X125011823Y-155329504D01*
X125068531Y-155328947D01*
X125137569Y-155328825D01*
X125220254Y-155328982D01*
G37*
G36*
X123248522Y-155327579D02*
G01*
X123322268Y-155328142D01*
X123391837Y-155329022D01*
X123455498Y-155330219D01*
X123511522Y-155331731D01*
X123558177Y-155333559D01*
X123593733Y-155335702D01*
X123616461Y-155338159D01*
X123623317Y-155339824D01*
X123648476Y-155358426D01*
X123663916Y-155385512D01*
X123669011Y-155416852D01*
X123663128Y-155448220D01*
X123645639Y-155475387D01*
X123643771Y-155477204D01*
X123623739Y-155496032D01*
X123161439Y-155499939D01*
X122699138Y-155503845D01*
X122655811Y-155524168D01*
X122604869Y-155553605D01*
X122565749Y-155589717D01*
X122535016Y-155635817D01*
X122530229Y-155645187D01*
X122521113Y-155664266D01*
X122514478Y-155680832D01*
X122509833Y-155697985D01*
X122506685Y-155718824D01*
X122504544Y-155746449D01*
X122502918Y-155783959D01*
X122501575Y-155825965D01*
X122500056Y-155873924D01*
X122498567Y-155908838D01*
X122496675Y-155933279D01*
X122493945Y-155949823D01*
X122489945Y-155961042D01*
X122484242Y-155969510D01*
X122476401Y-155977801D01*
X122475923Y-155978279D01*
X122466317Y-155987331D01*
X122456834Y-155993434D01*
X122444307Y-155997172D01*
X122425575Y-155999124D01*
X122397472Y-155999878D01*
X122357922Y-156000013D01*
X122303655Y-156000850D01*
X122262618Y-156003682D01*
X122232479Y-156009076D01*
X122210908Y-156017595D01*
X122195574Y-156029804D01*
X122186920Y-156041467D01*
X122183912Y-156046807D01*
X122181333Y-156053058D01*
X122179156Y-156061373D01*
X122177352Y-156072905D01*
X122175895Y-156088808D01*
X122174756Y-156110234D01*
X122173907Y-156138338D01*
X122173321Y-156174273D01*
X122172969Y-156219192D01*
X122172824Y-156274248D01*
X122172859Y-156340597D01*
X122173045Y-156419389D01*
X122173354Y-156511778D01*
X122173654Y-156591628D01*
X122175669Y-157116877D01*
X122197314Y-157138537D01*
X122206253Y-157146949D01*
X122215362Y-157152953D01*
X122227451Y-157157081D01*
X122245322Y-157159863D01*
X122271779Y-157161830D01*
X122309629Y-157163513D01*
X122334041Y-157164427D01*
X122375783Y-157166335D01*
X122412644Y-157168719D01*
X122441469Y-157171321D01*
X122459102Y-157173885D01*
X122462328Y-157174849D01*
X122477438Y-157184774D01*
X122488057Y-157199721D01*
X122494877Y-157222200D01*
X122498599Y-157254716D01*
X122499917Y-157299780D01*
X122499953Y-157310322D01*
X122501668Y-157381821D01*
X122507203Y-157440378D01*
X122517258Y-157488364D01*
X122532535Y-157528150D01*
X122553735Y-157562106D01*
X122581559Y-157592602D01*
X122584171Y-157595036D01*
X122601302Y-157610652D01*
X122616762Y-157623547D01*
X122632210Y-157634002D01*
X122649306Y-157642301D01*
X122669707Y-157648723D01*
X122695072Y-157653552D01*
X122727062Y-157657070D01*
X122767334Y-157659557D01*
X122817547Y-157661296D01*
X122879361Y-157662569D01*
X122954434Y-157663658D01*
X122990827Y-157664135D01*
X123290327Y-157668041D01*
X123313112Y-157693557D01*
X123332638Y-157725008D01*
X123336771Y-157757359D01*
X123325562Y-157789108D01*
X123309333Y-157809456D01*
X123282769Y-157836020D01*
X122990954Y-157835905D01*
X122907084Y-157835750D01*
X122837084Y-157835231D01*
X122779198Y-157834151D01*
X122731669Y-157832319D01*
X122692743Y-157829536D01*
X122660666Y-157825612D01*
X122633679Y-157820351D01*
X122610028Y-157813559D01*
X122587958Y-157805043D01*
X122565712Y-157794605D01*
X122551420Y-157787273D01*
X122506207Y-157757836D01*
X122460577Y-157718118D01*
X122419005Y-157672674D01*
X122385964Y-157626064D01*
X122376774Y-157609385D01*
X122350082Y-157541412D01*
X122333489Y-157465840D01*
X122328158Y-157393565D01*
X122328023Y-157337853D01*
X122255314Y-157334673D01*
X122215605Y-157332044D01*
X122185841Y-157327429D01*
X122160363Y-157319628D01*
X122138398Y-157309864D01*
X122089827Y-157277878D01*
X122049054Y-157234664D01*
X122019497Y-157183991D01*
X122015613Y-157174325D01*
X122012549Y-157165782D01*
X122009908Y-157156948D01*
X122007663Y-157146675D01*
X122005788Y-157133809D01*
X122004256Y-157117205D01*
X122003041Y-157095711D01*
X122002117Y-157068179D01*
X122001456Y-157033460D01*
X122001031Y-156990403D01*
X122000818Y-156937859D01*
X122000788Y-156874680D01*
X122000916Y-156799716D01*
X122001174Y-156711817D01*
X122001537Y-156609834D01*
X122001680Y-156571575D01*
X122003784Y-156011689D01*
X122022714Y-155973227D01*
X122056605Y-155920521D01*
X122100522Y-155879777D01*
X122154493Y-155850977D01*
X122218546Y-155834106D01*
X122258724Y-155829868D01*
X122328023Y-155825917D01*
X122328158Y-155770356D01*
X122335406Y-155687830D01*
X122356011Y-155610475D01*
X122388891Y-155539692D01*
X122432961Y-155476879D01*
X122487137Y-155423436D01*
X122550334Y-155380763D01*
X122621468Y-155350258D01*
X122661972Y-155339512D01*
X122682324Y-155336874D01*
X122715804Y-155334558D01*
X122760677Y-155332564D01*
X122815217Y-155330892D01*
X122877691Y-155329540D01*
X122946369Y-155328510D01*
X123019522Y-155327799D01*
X123095419Y-155327407D01*
X123172329Y-155327334D01*
X123248522Y-155327579D01*
G37*
G36*
X124851642Y-156371624D02*
G01*
X124817268Y-156422415D01*
X124777145Y-156481408D01*
X124731909Y-156547679D01*
X124682200Y-156620306D01*
X124628656Y-156698366D01*
X124571913Y-156780936D01*
X124512611Y-156867093D01*
X124451387Y-156955915D01*
X124388879Y-157046478D01*
X124325727Y-157137860D01*
X124262566Y-157229139D01*
X124200037Y-157319390D01*
X124138776Y-157407692D01*
X124079423Y-157493121D01*
X124022614Y-157574755D01*
X123968988Y-157651670D01*
X123919183Y-157722945D01*
X123873838Y-157787656D01*
X123833590Y-157844880D01*
X123799077Y-157893693D01*
X123770937Y-157933177D01*
X123749809Y-157962404D01*
X123736331Y-157980452D01*
X123731457Y-157986246D01*
X123710861Y-157995482D01*
X123682469Y-157999659D01*
X123653409Y-157998359D01*
X123632358Y-157992048D01*
X123615048Y-157975829D01*
X123601093Y-157950749D01*
X123594012Y-157923574D01*
X123593725Y-157917763D01*
X123595351Y-157907797D01*
X123600008Y-157884096D01*
X123607366Y-157848189D01*
X123617094Y-157801598D01*
X123628862Y-157745850D01*
X123642339Y-157682471D01*
X123657196Y-157612987D01*
X123673101Y-157538924D01*
X123689724Y-157461809D01*
X123706735Y-157383166D01*
X123723802Y-157304521D01*
X123740597Y-157227400D01*
X123756789Y-157153329D01*
X123772044Y-157083834D01*
X123786037Y-157020440D01*
X123798434Y-156964675D01*
X123808907Y-156918062D01*
X123817122Y-156882129D01*
X123822751Y-156858401D01*
X123825047Y-156849631D01*
X123825293Y-156846368D01*
X123822997Y-156843669D01*
X123816832Y-156841480D01*
X123805467Y-156839749D01*
X123787575Y-156838420D01*
X123761826Y-156837442D01*
X123726893Y-156836762D01*
X123681445Y-156836328D01*
X123624155Y-156836084D01*
X123553693Y-156835979D01*
X123482702Y-156835959D01*
X123397372Y-156835959D01*
X123326273Y-156835849D01*
X123268011Y-156835462D01*
X123221193Y-156834632D01*
X123184424Y-156833191D01*
X123156310Y-156830974D01*
X123135456Y-156827813D01*
X123120469Y-156823542D01*
X123109954Y-156817995D01*
X123102517Y-156811004D01*
X123096763Y-156802403D01*
X123091301Y-156792026D01*
X123089744Y-156788994D01*
X123079114Y-156756520D01*
X123083165Y-156725810D01*
X123092480Y-156706948D01*
X123099848Y-156696484D01*
X123116027Y-156674653D01*
X123126925Y-156660167D01*
X123346403Y-156660167D01*
X123660862Y-156664073D01*
X123975321Y-156667980D01*
X123995354Y-156686808D01*
X124010811Y-156707206D01*
X124019940Y-156729906D01*
X124019960Y-156730011D01*
X124019440Y-156744869D01*
X124015159Y-156774843D01*
X124007122Y-156819880D01*
X123995339Y-156879935D01*
X123979823Y-156954957D01*
X123960580Y-157044898D01*
X123945592Y-157113550D01*
X123929508Y-157186623D01*
X123914334Y-157255363D01*
X123900420Y-157318195D01*
X123888117Y-157373541D01*
X123877777Y-157419825D01*
X123869752Y-157455468D01*
X123864392Y-157478895D01*
X123862105Y-157488344D01*
X123865765Y-157484384D01*
X123877689Y-157468439D01*
X123897264Y-157441381D01*
X123923874Y-157404081D01*
X123956905Y-157357413D01*
X123995745Y-157302250D01*
X124039777Y-157239462D01*
X124088388Y-157169924D01*
X124140963Y-157094509D01*
X124196890Y-157014086D01*
X124255552Y-156929531D01*
X124260838Y-156921901D01*
X124664120Y-156339834D01*
X124343949Y-156335928D01*
X124023780Y-156332021D01*
X124003835Y-156312069D01*
X123995115Y-156302880D01*
X123988321Y-156293616D01*
X123983722Y-156282947D01*
X123981591Y-156269543D01*
X123982197Y-156252072D01*
X123985812Y-156229206D01*
X123992706Y-156199613D01*
X124003151Y-156161962D01*
X124017417Y-156114924D01*
X124035776Y-156057168D01*
X124058498Y-155987363D01*
X124085852Y-155904178D01*
X124088528Y-155896059D01*
X124111344Y-155826617D01*
X124132405Y-155762102D01*
X124151252Y-155703948D01*
X124167428Y-155653590D01*
X124180474Y-155612460D01*
X124189931Y-155581995D01*
X124195340Y-155563628D01*
X124196365Y-155558632D01*
X124190966Y-155565396D01*
X124176723Y-155583650D01*
X124154323Y-155612504D01*
X124124456Y-155651066D01*
X124087810Y-155698446D01*
X124045072Y-155753754D01*
X123996932Y-155816097D01*
X123944079Y-155884585D01*
X123887199Y-155958327D01*
X123826982Y-156036433D01*
X123768911Y-156111789D01*
X123346403Y-156660167D01*
X123126925Y-156660167D01*
X123140334Y-156642342D01*
X123172085Y-156600438D01*
X123210598Y-156549826D01*
X123255189Y-156491393D01*
X123305176Y-156426026D01*
X123359875Y-156354610D01*
X123418604Y-156278034D01*
X123480680Y-156197180D01*
X123545417Y-156112937D01*
X123612136Y-156026192D01*
X123680154Y-155937831D01*
X123748784Y-155848740D01*
X123817347Y-155759804D01*
X123885157Y-155671912D01*
X123951533Y-155585948D01*
X124015793Y-155502800D01*
X124077249Y-155423354D01*
X124135224Y-155348495D01*
X124189031Y-155279111D01*
X124237990Y-155216088D01*
X124281414Y-155160312D01*
X124318624Y-155112670D01*
X124348935Y-155074047D01*
X124371664Y-155045331D01*
X124386128Y-155027407D01*
X124391333Y-155021394D01*
X124419745Y-155004507D01*
X124452936Y-154999213D01*
X124485388Y-155005799D01*
X124502318Y-155015656D01*
X124518707Y-155034235D01*
X124530998Y-155057679D01*
X124531403Y-155058870D01*
X124532918Y-155064783D01*
X124533538Y-155071977D01*
X124532949Y-155081512D01*
X124530832Y-155094446D01*
X124526877Y-155111839D01*
X124520764Y-155134750D01*
X124512177Y-155164238D01*
X124500803Y-155201361D01*
X124486326Y-155247179D01*
X124468430Y-155302749D01*
X124446800Y-155369134D01*
X124421118Y-155447389D01*
X124391070Y-155538575D01*
X124363990Y-155620597D01*
X124335042Y-155708294D01*
X124307574Y-155791631D01*
X124281971Y-155869427D01*
X124258622Y-155940497D01*
X124237915Y-156003658D01*
X124220237Y-156057726D01*
X124205975Y-156101518D01*
X124195518Y-156133850D01*
X124189252Y-156153538D01*
X124187512Y-156159450D01*
X124195061Y-156160411D01*
X124216651Y-156161304D01*
X124250698Y-156162107D01*
X124295617Y-156162799D01*
X124349824Y-156163359D01*
X124411734Y-156163765D01*
X124479763Y-156163996D01*
X124527978Y-156164042D01*
X124868443Y-156164042D01*
X124890881Y-156186480D01*
X124913335Y-156217588D01*
X124921098Y-156250550D01*
X124918871Y-156268930D01*
X124913879Y-156277687D01*
X124900585Y-156298337D01*
X124879626Y-156329957D01*
X124872992Y-156339834D01*
X124851642Y-156371624D01*
G37*
D15*
%TO.C,R1*%
X121020000Y-145750000D02*
X114480000Y-145750000D01*
X114480000Y-143010000D01*
X121020000Y-143010000D01*
X121020000Y-145750000D01*
X113710000Y-144380000D02*
X114479999Y-144380000D01*
X121790000Y-144380000D02*
X121020000Y-144380000D01*
%TO.C,U1*%
D16*
X89586000Y-145015000D02*
X89586000Y-158985000D01*
X91491000Y-143110000D02*
X108636000Y-143110000D01*
X91491000Y-160890000D02*
X108636000Y-160890000D01*
D10*
X110541000Y-158984999D02*
X110541000Y-145015001D01*
D16*
X110541000Y-158984999D02*
X110541000Y-145015001D01*
X110541001Y-147505000D02*
X111551272Y-147508728D01*
X111550999Y-156504000D02*
X110541001Y-156504000D01*
X112051000Y-148008728D02*
X112051000Y-156004000D01*
X89586000Y-145015000D02*
G75*
G02*
X91491000Y-143110000I1905001J-1D01*
G01*
X91491000Y-160890000D02*
G75*
G02*
X89585999Y-158985000I0J1905001D01*
G01*
X108636000Y-143110000D02*
G75*
G02*
X110541000Y-145015001I-3J-1905003D01*
G01*
X110541000Y-158984999D02*
G75*
G02*
X108636000Y-160890000I-1905000J-1D01*
G01*
X111551272Y-147508728D02*
G75*
G02*
X112050999Y-148008728I-291J-500018D01*
G01*
X112051000Y-156004000D02*
G75*
G02*
X111550999Y-156504000I-500000J0D01*
G01*
D17*
X109622000Y-144143000D02*
G75*
G02*
X109118002Y-144143000I-251999J0D01*
G01*
X109118002Y-144143000D02*
G75*
G02*
X109622000Y-144143000I251999J0D01*
G01*
%TO.C,J4*%
D10*
X121455000Y-159115000D02*
X121455000Y-160385000D01*
X121455000Y-159115000D02*
X122090000Y-158480000D01*
X121455000Y-160385000D02*
X122090000Y-161020000D01*
X123360000Y-158480000D02*
X122090000Y-158480000D01*
X123360000Y-161020000D02*
X122090000Y-161020000D01*
X123360000Y-161020000D02*
X123995000Y-160385000D01*
X123995000Y-159115000D02*
X123360000Y-158480000D01*
X123995000Y-159115000D02*
X123995000Y-160385000D01*
X123995000Y-159115000D02*
X124630000Y-158480000D01*
X123995000Y-160385000D02*
X123995000Y-159115000D01*
X123995000Y-160385000D02*
X124630000Y-161020000D01*
X125900000Y-158480000D02*
X124630000Y-158480000D01*
X125900000Y-161020000D02*
X124630000Y-161020000D01*
X125900000Y-161020000D02*
X126535000Y-160385000D01*
X126535000Y-159115000D02*
X125900000Y-158480000D01*
X126535000Y-159115000D02*
X126535000Y-160385000D01*
X126535000Y-160385000D02*
X126535000Y-159115000D01*
%TD*%
M02*
