M48
; DRILL file KiCad 10.0.3 date 2026-07-09T19:23:12
; FORMAT={-:-/ absolute / metric / decimal}
; #@! TF.CreationDate,2026-07-09T19:23:12+03:00
; #@! TF.GenerationSoftware,Kicad,Pcbnew,10.0.3
; #@! TF.FileFunction,Plated,1,2,PTH
FMAT,2
METRIC
; #@! TA.AperFunction,Plated,PTH,ViaDrill
T1C0.300
; #@! TA.AperFunction,Plated,PTH,ComponentDrill
T2C0.800
; #@! TA.AperFunction,Plated,PTH,ComponentDrill
T3C0.900
; #@! TA.AperFunction,Plated,PTH,ComponentDrill
T4C1.000
; #@! TA.AperFunction,Plated,PTH,ComponentDrill
T5C1.250
; #@! TA.AperFunction,Plated,PTH,ComponentDrill
T6C2.600
; #@! TA.AperFunction,Plated,PTH,ComponentDrill
T7C3.250
%
G90
G05
T1
X90.771Y-158.177
X91.353Y-146.99
X92.0Y-142.0
X93.707Y-152.793
X94.111Y-148.145
X99.899Y-120.744
X101.587Y-140.862
X101.75Y-151.25
X104.036Y-117.925
X104.138Y-142.086
X104.859Y-152.861
X105.734Y-132.363
X105.924Y-129.669
X108.934Y-129.635
X109.797Y-158.652
X110.939Y-117.951
X111.5Y-121.75
X113.25Y-149.25
X113.443Y-138.994
X118.0Y-158.75
X118.911Y-138.373
X120.25Y-121.5
X121.294Y-147.62
X124.5Y-147.62
X125.75Y-153.75
X126.5Y-123.5
X126.59Y-135.891
X129.448Y-159.892
X131.702Y-150.062
X131.709Y-152.598
X134.26Y-150.062
X134.268Y-152.598
T2
X112.67Y-144.38
X122.83Y-144.38
T3
X92.38Y-144.38
X92.38Y-159.62
X94.92Y-144.38
X94.92Y-159.62
X97.46Y-144.38
X97.46Y-159.62
X100.0Y-144.38
X100.0Y-159.62
X102.54Y-144.38
X102.54Y-159.62
X105.08Y-144.38
X105.08Y-159.62
X107.62Y-144.38
X107.62Y-159.62
T4
X85.25Y-127.21
X85.25Y-129.75
X85.25Y-132.29
X95.225Y-118.25
X97.765Y-118.25
X107.36Y-123.4
X107.36Y-125.94
X107.36Y-128.48
X107.36Y-131.02
X107.36Y-133.56
X107.36Y-136.1
X122.725Y-159.75
X125.265Y-159.75
T5
X133.0Y-141.17
X133.0Y-146.25
X133.0Y-151.33
T6
X107.36Y-119.59
X107.36Y-139.91
X125.14Y-119.59
X125.14Y-139.91
T7
X86.5Y-120.0
X86.5Y-158.0
X133.5Y-120.0
X133.5Y-158.0
M30
